<svg width="374" height="262" viewBox="0 0 374 262" fill="none" xmlns="http://www.w3.org/2000/svg">
<path d="M85.0102 69.2564C89.4929 69.2564 93.1268 65.6224 93.1268 61.1397C93.1268 56.657 89.4929 53.0231 85.0102 53.0231C80.5275 53.0231 76.8936 56.657 76.8936 61.1397C76.8936 65.6224 80.5275 69.2564 85.0102 69.2564Z" fill="#DEE5DC"/>
<path d="M84.7032 55.6656C87.9626 55.6656 90.6049 53.0233 90.6049 49.7638C90.6049 46.5044 87.9626 43.8621 84.7032 43.8621C81.4437 43.8621 78.8014 46.5044 78.8014 49.7638C78.8014 53.0233 81.4437 55.6656 84.7032 55.6656Z" fill="#DEE5DC"/>
<path d="M84.7882 80.294C84.4206 80.294 84.1221 80.0513 84.1213 79.6839L84.0363 47.3617C84.0355 46.9933 84.3332 46.6825 84.7015 46.6825C84.7021 46.6825 84.7026 46.6825 84.7032 46.6825C85.0707 46.6825 85.3692 47.0181 85.37 47.3854L85.4551 79.6613C85.4559 80.0297 85.1582 80.294 84.7898 80.294C84.7896 80.294 84.7888 80.294 84.7882 80.294Z" fill="#161616"/>
<path d="M84.7888 63.5677C84.5509 63.5677 84.3206 63.4399 84.2003 63.2153C84.0267 62.8907 84.1488 62.4865 84.4735 62.3126L88.859 59.9649C89.1834 59.7909 89.5878 59.9134 89.7617 60.238C89.9354 60.5627 89.8132 60.9668 89.4886 61.1407L85.103 63.4885C85.0027 63.5421 84.8952 63.5677 84.7888 63.5677Z" fill="#161616"/>
<path d="M84.7034 53.6903C84.5127 53.6903 84.3233 53.6089 84.1915 53.4513L80.7415 49.3248C80.5052 49.042 80.5428 48.6216 80.8253 48.3855C81.108 48.1487 81.5282 48.1868 81.7645 48.4693L85.2145 52.5958C85.4509 52.8786 85.4133 53.299 85.1308 53.535C85.0062 53.6393 84.8544 53.6903 84.7034 53.6903Z" fill="#161616"/>
<path d="M40.2805 122.709V74.6922C40.2805 74.6922 245.189 61.9174 303.381 120.109L40.2805 122.709Z" fill="#DEE5DC"/>
<path d="M40.2805 122.749C40.2805 122.749 181.662 97.3182 340.917 116.382V221.289L40.2805 218.286V122.749Z" fill="#EAEFE8"/>
<path d="M29.0112 124.773C28.6935 124.773 28.4118 124.545 28.3553 124.221C28.2915 123.858 28.534 123.513 28.8968 123.449C29.3073 123.377 70.6527 116.191 131.51 111.871C167.252 109.333 202.636 108.264 236.675 108.696C279.23 109.235 319.797 112.132 357.248 117.306C357.613 117.356 357.868 117.693 357.818 118.058C357.767 118.423 357.431 118.676 357.066 118.627C319.669 113.461 279.158 110.568 236.658 110.03C202.654 109.6 167.309 110.666 131.605 113.201C70.8149 117.517 29.537 124.691 29.1273 124.763C29.0883 124.77 29.0494 124.773 29.0112 124.773Z" fill="#161616"/>
<path d="M256.238 70.3949L228.939 63.5417C228.939 63.5417 226.979 59.7294 230.151 58.4231L254.923 63.7233C254.923 63.7233 258.063 66.9017 256.238 70.3949Z" fill="white"/>
<path d="M256.238 71.0618C256.185 71.0618 256.13 71.0554 256.076 71.0418L228.777 64.1888C228.591 64.1421 228.434 64.0175 228.346 63.8471C228.3 63.7569 227.22 61.6207 227.897 59.7796C228.228 58.8808 228.901 58.2172 229.897 57.8066C230.021 57.7554 230.158 57.7429 230.29 57.7711L255.062 63.0713C255.189 63.0986 255.305 63.1623 255.397 63.2549C255.432 63.2909 256.273 64.1496 256.872 65.4743C257.689 67.2789 257.674 69.0873 256.83 70.7038C256.713 70.9276 256.482 71.0618 256.238 71.0618ZM229.416 62.9737L255.861 69.6125C256.804 67.1466 255.068 64.9005 254.574 64.3304L230.224 59.1207C229.682 59.3829 229.329 59.7505 229.149 60.2397C228.79 61.2171 229.2 62.4445 229.416 62.9737Z" fill="#161616"/>
<path d="M218.475 72.6176V115.563L300.636 135.283V89.6124L218.475 72.6176Z" fill="#EAEFE8"/>
<path d="M300.77 135.95C300.718 135.95 300.665 135.944 300.614 135.931L218.453 116.211C218.153 116.139 217.941 115.871 217.941 115.563V72.6176C217.941 72.417 218.032 72.2271 218.187 72.1006C218.343 71.9739 218.546 71.9232 218.744 71.9646L300.905 88.9595C301.214 89.0235 301.437 89.2964 301.437 89.6125V135.283C301.437 135.487 301.343 135.68 301.183 135.806C301.064 135.9 300.918 135.95 300.77 135.95ZM219.275 115.037L300.103 134.437V90.1556L219.275 73.4365V115.037Z" fill="#161616"/>
<path d="M300.636 89.6124L329.318 77.11L329.406 120.454L300.636 135.283V89.6124Z" fill="#EAEFE8"/>
<path d="M300.77 135.95C300.649 135.95 300.529 135.917 300.423 135.852C300.224 135.731 300.103 135.515 300.103 135.283V89.6125C300.103 89.3473 300.26 89.1075 300.503 89.0013L329.118 76.4992C329.323 76.4095 329.56 76.4285 329.749 76.5517C329.937 76.6744 330.051 76.8836 330.052 77.1084L330.173 120.453C330.174 120.703 330.034 120.933 329.812 121.047L301.076 135.876C300.979 135.925 300.875 135.95 300.77 135.95ZM301.437 90.0486V134.188L328.838 120.049L328.721 78.128L301.437 90.0486Z" fill="#161616"/>
<path d="M218.711 72.6174L254.668 61.7329L329.395 77.1099L300.79 89.6123L218.711 72.6174Z" fill="#EAEFE8"/>
<path d="M300.79 90.2793C300.745 90.2793 300.7 90.2745 300.655 90.2654L218.576 73.2705C218.277 73.2086 218.059 72.9523 218.045 72.6474C218.031 72.3425 218.226 72.0674 218.518 71.9791L254.475 61.0946C254.581 61.0626 254.694 61.057 254.803 61.0797L329.529 76.4567C329.814 76.5154 330.028 76.7515 330.058 77.0404C330.088 77.3293 329.928 77.6045 329.662 77.7211L301.057 90.2233C300.972 90.2603 300.882 90.2793 300.79 90.2793ZM221.414 72.4961L300.717 88.9164L327.203 77.3402L254.7 62.4201L221.414 72.4961Z" fill="#161616"/>
<path d="M300.77 105.769C300.718 105.769 300.666 105.764 300.615 105.751L218.556 86.1446C218.198 86.059 217.977 85.6991 218.062 85.3408C218.148 84.9826 218.508 84.7617 218.866 84.8471L300.697 104.399L328.23 91.4259C328.563 91.2687 328.96 91.4117 329.118 91.7449C329.274 92.0781 329.132 92.4753 328.798 92.6324L301.054 105.706C300.964 105.748 300.867 105.769 300.77 105.769Z" fill="#161616"/>
<path d="M300.77 121.783C300.72 121.783 300.671 121.778 300.622 121.767L218.46 103.101C218.101 103.019 217.876 102.662 217.958 102.303C218.039 101.944 218.396 101.717 218.756 101.8L300.687 120.414L329.1 106.429C329.43 106.266 329.83 106.403 329.993 106.733C330.156 107.064 330.02 107.463 329.689 107.626L301.064 121.715C300.972 121.76 300.871 121.783 300.77 121.783Z" fill="#161616"/>
<path d="M292.634 97.187C291.383 97.187 290.366 96.1698 290.366 94.9195C290.366 93.6692 291.383 92.6521 292.634 92.6521C293.884 92.6521 294.901 93.6692 294.901 94.9195C294.901 96.1698 293.884 97.187 292.634 97.187ZM292.634 93.9859C292.119 93.9859 291.7 94.4047 291.7 94.9195C291.7 95.4344 292.119 95.8532 292.634 95.8532C293.148 95.8532 293.567 95.4344 293.567 94.9195C293.567 94.4047 293.148 93.9859 292.634 93.9859Z" fill="#161616"/>
<path d="M291.033 114.793C289.783 114.793 288.766 113.776 288.766 112.526C288.766 111.275 289.783 110.258 291.033 110.258C292.283 110.258 293.301 111.275 293.301 112.526C293.301 113.776 292.283 114.793 291.033 114.793ZM291.033 111.592C290.518 111.592 290.099 112.011 290.099 112.526C290.099 113.04 290.518 113.459 291.033 113.459C291.548 113.459 291.967 113.04 291.967 112.526C291.967 112.011 291.548 111.592 291.033 111.592Z" fill="#161616"/>
<path d="M225.411 98.7876C224.16 98.7876 223.143 97.7704 223.143 96.5201C223.143 95.2698 224.16 94.2527 225.411 94.2527C226.661 94.2527 227.678 95.2698 227.678 96.5201C227.678 97.7704 226.661 98.7876 225.411 98.7876ZM225.411 95.5865C224.896 95.5865 224.477 96.0053 224.477 96.5201C224.477 97.035 224.896 97.4538 225.411 97.4538C225.925 97.4538 226.344 97.035 226.344 96.5201C226.344 96.0053 225.925 95.5865 225.411 95.5865Z" fill="#161616"/>
<path d="M225.411 112.659C224.16 112.659 223.143 111.642 223.143 110.392C223.143 109.141 224.16 108.124 225.411 108.124C226.661 108.124 227.678 109.141 227.678 110.392C227.678 111.642 226.661 112.659 225.411 112.659ZM225.411 109.458C224.896 109.458 224.477 109.877 224.477 110.392C224.477 110.906 224.896 111.325 225.411 111.325C225.925 111.325 226.344 110.906 226.344 110.392C226.344 109.877 225.925 109.458 225.411 109.458Z" fill="#161616"/>
<path d="M227.778 83.3549L200.478 76.5019C200.478 76.5019 198.518 72.6896 201.69 71.3831L226.462 76.6835C226.462 76.6833 229.602 79.8617 227.778 83.3549Z" fill="white"/>
<path d="M227.778 84.0218C227.724 84.0218 227.669 84.0154 227.616 84.0018L200.316 77.1488C200.13 77.1021 199.973 76.9775 199.885 76.807C199.839 76.7169 198.759 74.5807 199.437 72.7395C199.767 71.8405 200.44 71.1768 201.436 70.7666C201.561 70.7154 201.698 70.7028 201.83 70.7311L226.601 76.0316C226.729 76.0588 226.845 76.1225 226.936 76.2151C226.972 76.2511 227.812 77.1098 228.412 78.4345C229.228 80.2391 229.213 82.0475 228.369 83.6641C228.252 83.8876 228.022 84.0218 227.778 84.0218ZM200.955 75.9337L227.4 82.5725C228.343 80.1066 226.607 77.8605 226.113 77.2904L201.763 72.0804C201.221 72.3428 200.868 72.7104 200.689 73.1997C200.329 74.1771 200.739 75.4044 200.955 75.9337Z" fill="#161616"/>
<path d="M235.814 75.406C235.814 75.406 241.238 52.6388 247.062 51.7947C252.887 50.9507 259.658 59.2202 259.658 59.2202L269.935 35.4203C269.935 35.4203 275.219 28.01 284.993 30.6774C294.767 33.3447 303.381 56.2915 303.381 56.2915C303.381 56.2915 314.365 57.327 316.17 63.3422C317.975 69.3573 320.1 80.3667 320.1 80.3667L300.79 88.8122L235.814 75.406Z" fill="#8DC73F"/>
<path d="M277.957 62.4002C277.664 62.4002 277.395 62.2057 277.314 61.9099L275.852 56.596C275.819 56.4779 275.82 56.3525 275.854 56.2346C275.866 56.1922 275.879 56.1498 275.891 56.1068C275.887 56.1127 275.885 56.1186 275.881 56.1244C275.706 56.4485 275.301 56.5694 274.978 56.3946C274.322 56.0409 271.027 54.1952 270.592 52.6112C270.487 52.2276 270.531 51.8576 270.721 51.541C270.937 51.1817 271.283 50.9581 271.697 50.9117C272.533 50.8186 273.605 51.506 274.466 52.2095C274.443 51.1496 274.571 49.9068 275.188 49.2226C275.538 48.835 276.005 48.6475 276.539 48.6845C276.977 48.7136 277.345 48.9244 277.605 49.2943C278.652 50.7863 277.54 55.1593 277.187 56.4216L278.6 61.5559C278.698 61.9109 278.489 62.278 278.134 62.3756C278.075 62.3924 278.015 62.4002 277.957 62.4002ZM271.87 52.2332C271.882 52.5819 273.146 53.8903 275.611 55.2209C275.849 55.3495 275.978 55.6026 275.96 55.8563C276.597 53.5025 276.978 50.7236 276.513 50.0605C276.483 50.0178 276.475 50.0173 276.45 50.0154C276.306 50.0074 276.241 50.0469 276.179 50.1157C275.691 50.6561 275.755 52.6173 275.951 53.7727C276.001 54.0613 275.856 54.3483 275.594 54.4801C275.332 54.6116 275.016 54.558 274.813 54.3467C273.727 53.217 272.36 52.2316 271.898 52.2316C271.888 52.2319 271.879 52.2322 271.87 52.2332Z" fill="#161616"/>
<path d="M251.814 71.2032C251.521 71.2032 251.253 71.0088 251.172 70.7129L249.71 65.3991C249.677 65.2809 249.678 65.1556 249.712 65.0377C249.724 64.9952 249.736 64.9528 249.748 64.9099C249.745 64.9157 249.742 64.9216 249.739 64.9275C249.564 65.2513 249.159 65.3724 248.836 65.1977C248.18 64.844 244.885 62.9983 244.45 61.4143C244.344 61.0307 244.389 60.6607 244.579 60.344C244.795 59.9847 245.141 59.7612 245.555 59.7148C246.392 59.6211 247.464 60.3088 248.324 61.0125C248.3 59.9527 248.429 58.7099 249.046 58.0256C249.396 57.6378 249.864 57.4513 250.397 57.4876C250.835 57.5167 251.203 57.7274 251.463 58.0974C252.51 59.5894 251.397 63.9623 251.045 65.2246L252.458 70.3589C252.555 70.714 252.347 71.0811 251.992 71.1787C251.933 71.1955 251.873 71.2032 251.814 71.2032ZM245.728 61.0363C245.74 61.3849 247.004 62.6934 249.469 64.024C249.707 64.1525 249.836 64.4057 249.817 64.6594C250.454 62.3055 250.836 59.5267 250.371 58.8635C250.341 58.8209 250.333 58.8203 250.308 58.8185C250.163 58.8102 250.099 58.8499 250.037 58.9188C249.549 59.4592 249.613 61.4204 249.809 62.5757C249.858 62.8644 249.714 63.1514 249.452 63.2832C249.191 63.415 248.874 63.3611 248.671 63.1498C247.562 61.9958 246.154 60.9859 245.728 61.0363Z" fill="#161616"/>
<path d="M274.367 71.3171C274.228 71.3171 274.087 71.2737 273.967 71.1832L269.563 67.8701C269.465 67.7962 269.389 67.6967 269.344 67.5823C269.327 67.5414 269.311 67.5004 269.294 67.4593C269.296 67.4657 269.297 67.4721 269.298 67.4785C269.358 67.8421 269.111 68.1849 268.748 68.2446C268.012 68.3657 264.276 68.9174 262.964 67.929C262.646 67.6898 262.456 67.3694 262.413 67.0026C262.364 66.5867 262.501 66.1981 262.8 65.9084C263.402 65.325 264.674 65.2118 265.785 65.2439C265.12 64.4193 264.462 63.3568 264.533 62.4378C264.572 61.9177 264.828 61.485 265.273 61.1867C265.638 60.9424 266.059 60.884 266.489 61.0181C268.23 61.5597 270.021 65.7014 270.514 66.9156L274.769 70.1167C275.063 70.3381 275.122 70.7562 274.901 71.0507C274.77 71.2254 274.57 71.3171 274.367 71.3171ZM268.641 66.9196C268.868 66.9196 269.075 67.0354 269.197 67.2184C268.262 64.9656 266.867 62.5325 266.093 62.2919C266.043 62.2756 266.036 62.281 266.016 62.2946C265.898 62.3741 265.87 62.4474 265.863 62.5403C265.807 63.2688 267.056 64.7808 267.917 65.5733C268.133 65.7715 268.193 66.0873 268.067 66.3517C267.941 66.6158 267.658 66.7673 267.367 66.7238C265.784 66.488 264.061 66.5512 263.745 66.8487C264.05 67.2424 266.36 67.2851 268.532 66.9287C268.569 66.9226 268.605 66.9196 268.641 66.9196Z" fill="#161616"/>
<path d="M286.868 46.1986C286.512 46.1986 286.216 45.9172 286.202 45.5584L285.983 40.0515C285.978 39.9288 286.007 39.8068 286.067 39.6999C286.088 39.6615 286.109 39.6233 286.131 39.5846C286.127 39.5894 286.123 39.594 286.119 39.5985C285.875 39.8743 285.453 39.901 285.177 39.6572C284.618 39.1637 281.828 36.6188 281.763 34.9775C281.748 34.5803 281.875 34.2297 282.132 33.9646C282.423 33.6639 282.809 33.5252 283.225 33.573C284.058 33.6703 284.949 34.5843 285.628 35.4651C285.845 34.4277 286.252 33.2462 287.009 32.7196C287.437 32.4216 287.935 32.3464 288.447 32.5022C288.866 32.63 289.177 32.9189 289.346 33.3377C290.027 35.0284 287.953 39.0354 287.323 40.1848L287.535 45.5053C287.55 45.8735 287.263 46.1837 286.895 46.1984C286.886 46.1984 286.877 46.1986 286.868 46.1986ZM283.094 34.8988C282.982 35.3837 284.409 37.1993 286.06 38.6571C286.263 38.8364 286.331 39.1111 286.256 39.3539C287.41 37.2057 288.411 34.5867 288.109 33.8355C288.089 33.7872 288.081 33.785 288.058 33.7776C287.921 33.7362 287.846 33.7605 287.771 33.8139C287.171 34.2313 286.789 36.1549 286.72 37.3233C286.703 37.6157 286.497 37.8624 286.212 37.9318C285.927 38.0006 285.631 37.8763 285.481 37.625C284.663 36.2502 283.525 34.9553 283.094 34.8988Z" fill="#161616"/>
<path d="M294.211 67.7565C294.207 67.7565 294.203 67.7565 294.199 67.7565C293.831 67.7565 293.538 67.3857 293.544 67.0176L293.641 61.477C293.644 61.354 293.68 61.2193 293.745 61.1158C293.769 61.0788 293.793 61.0337 293.817 60.9961C293.812 61.0011 293.808 61.0019 293.803 61.0067C293.544 61.2682 293.121 61.2679 292.86 61.0091C292.33 60.4844 289.69 57.783 289.72 56.1408C289.727 55.7431 289.875 55.4003 290.146 55.1501C290.454 54.8668 290.85 54.7502 291.26 54.8214C292.086 54.9665 292.923 55.9295 293.55 56.8482C293.827 55.825 294.301 54.6686 295.086 54.1863C295.531 53.9131 296.032 53.8667 296.534 54.0515C296.946 54.2031 297.24 54.5096 297.385 54.9372C297.968 56.6644 295.666 60.5455 294.972 61.6568L294.878 67.0411C294.871 67.4055 294.574 67.7565 294.211 67.7565ZM291.053 56.1376C290.913 56.6151 292.234 58.5096 293.799 60.0595C293.991 60.2505 294.043 60.5295 293.954 60.7677C295.229 58.6891 296.38 56.1309 296.121 55.3637C296.104 55.3141 296.096 55.3114 296.073 55.3026C295.938 55.253 295.863 55.2741 295.784 55.3224C295.161 55.7049 294.67 57.6034 294.534 58.7657C294.5 59.0567 294.28 59.2915 293.992 59.3443C293.704 59.3968 293.415 59.2555 293.28 58.9956C292.542 57.5762 291.48 56.2182 291.053 56.1376Z" fill="#161616"/>
<path d="M280.229 63.6217C279.861 63.6217 279.562 63.3232 279.562 62.9548V60.2873C279.562 59.9189 279.861 59.6204 280.229 59.6204C280.598 59.6204 280.896 59.9189 280.896 60.2873V62.9548C280.896 63.3232 280.598 63.6217 280.229 63.6217Z" fill="#161616"/>
<path d="M296.819 69.7575C296.747 69.7575 296.674 69.7457 296.602 69.7209C296.254 69.6011 296.068 69.2218 296.188 68.8734L297.205 65.9161C297.325 65.5675 297.704 65.3824 298.052 65.5021C298.401 65.6219 298.586 66.0012 298.466 66.3496L297.45 69.3069C297.354 69.5838 297.096 69.7575 296.819 69.7575Z" fill="#161616"/>
<path d="M291.033 81.0946C290.777 81.0946 290.533 80.9463 290.423 80.6971L288.956 77.3797C288.807 77.0428 288.959 76.6493 289.296 76.5002C289.632 76.3511 290.027 76.5034 290.176 76.8403L291.643 80.1577C291.792 80.4947 291.64 80.8881 291.303 81.0372C291.215 81.0762 291.123 81.0946 291.033 81.0946Z" fill="#161616"/>
<path d="M293.3 80.4277C293.021 80.4277 292.761 80.2508 292.668 79.9715L291.867 77.5707C291.751 77.221 291.94 76.8433 292.289 76.727C292.639 76.6109 293.016 76.7995 293.133 77.1487L293.933 79.5495C294.05 79.8993 293.861 80.277 293.511 80.3933C293.441 80.4165 293.37 80.4277 293.3 80.4277Z" fill="#161616"/>
<path d="M249.419 72.0499C249.16 72.0499 248.914 71.8983 248.806 71.6449L247.824 69.3524C247.68 69.0136 247.837 68.622 248.175 68.4769C248.514 68.3329 248.906 68.4892 249.051 68.8277L250.032 71.1202C250.177 71.459 250.02 71.8506 249.681 71.9957C249.596 72.0323 249.507 72.0499 249.419 72.0499Z" fill="#161616"/>
<path d="M272.626 73.2845C272.507 73.2845 272.386 73.2525 272.276 73.185L270.276 71.9502C269.962 71.7568 269.865 71.3459 270.059 71.0325C270.252 70.7191 270.663 70.6217 270.976 70.8156L272.977 72.0504C273.29 72.2438 273.388 72.6547 273.194 72.9681C273.068 73.1722 272.85 73.2845 272.626 73.2845Z" fill="#161616"/>
<path d="M307.439 67.3563C307.07 67.3563 306.772 67.0578 306.772 66.6894V63.755C306.772 63.3866 307.07 63.0881 307.439 63.0881C307.807 63.0881 308.106 63.3866 308.106 63.755V66.6894C308.106 67.0578 307.807 67.3563 307.439 67.3563Z" fill="#161616"/>
<path d="M309.44 67.3563C309.401 67.3563 309.36 67.3529 309.32 67.3457C308.958 67.2798 308.717 66.9324 308.783 66.5702L309.317 63.6358C309.383 63.2736 309.73 63.0335 310.092 63.0989C310.454 63.1647 310.695 63.5121 310.629 63.8743L310.096 66.8087C310.037 67.1306 309.756 67.3563 309.44 67.3563Z" fill="#161616"/>
<path d="M288.766 46.2825C288.746 46.2825 288.726 46.2817 288.705 46.2796C288.339 46.2462 288.068 45.9218 288.102 45.555L288.368 42.6207C288.401 42.2539 288.729 41.9815 289.093 42.017C289.46 42.0504 289.73 42.3747 289.697 42.7415L289.43 45.6759C289.398 46.0221 289.107 46.2825 288.766 46.2825Z" fill="#161616"/>
<path d="M47.8926 153.188L126.87 131.8C126.87 131.8 140.478 134.234 137.339 157.955L58.3041 186.149" fill="#161616"/>
<path d="M58.3041 186.816C58.0301 186.816 57.7732 186.646 57.6761 186.373C57.5524 186.026 57.7332 185.644 58.0803 185.521L136.73 157.464C137.555 150.872 137.493 142.017 132.772 136.412C130.281 133.453 127.521 132.64 126.887 132.486L48.0667 153.831C47.7111 153.928 47.3451 153.717 47.2488 153.362C47.1525 153.006 47.3627 152.64 47.7183 152.544L126.696 131.156C126.791 131.131 126.891 131.126 126.988 131.144C127.136 131.17 130.663 131.837 133.792 135.552C138.924 141.646 138.913 151.146 138 158.043C137.967 158.291 137.799 158.499 137.563 158.583L58.5282 186.777C58.4543 186.803 58.3785 186.816 58.3041 186.816Z" fill="#161616"/>
<path d="M50.2607 188.109C59.904 188.109 67.7214 180.291 67.7214 170.648C67.7214 161.005 59.904 153.188 50.2607 153.188C40.6174 153.188 32.8 161.005 32.8 170.648C32.8 180.291 40.6174 188.109 50.2607 188.109Z" fill="#DEE5DC"/>
<path d="M50.2607 188.776C40.265 188.776 32.1332 180.644 32.1332 170.648C32.1332 160.652 40.265 152.521 50.2607 152.521C60.2564 152.521 68.3883 160.652 68.3883 170.648C68.3883 180.644 60.2564 188.776 50.2607 188.776ZM50.2607 153.854C41.0008 153.854 33.467 161.388 33.467 170.648C33.467 179.908 41.0008 187.442 50.2607 187.442C59.5207 187.442 67.0545 179.908 67.0545 170.648C67.0545 161.388 59.5207 153.854 50.2607 153.854Z" fill="#161616"/>
<path d="M50.2607 175.617C53.0051 175.617 55.2298 173.393 55.2298 170.648C55.2298 167.904 53.0051 165.679 50.2607 165.679C47.5163 165.679 45.2915 167.904 45.2915 170.648C45.2915 173.393 47.5163 175.617 50.2607 175.617Z" fill="#EAEFE8"/>
<path d="M50.2608 176.284C47.1531 176.284 44.6248 173.756 44.6248 170.648C44.6248 167.54 47.1531 165.012 50.2608 165.012C53.3686 165.012 55.8969 167.54 55.8969 170.648C55.8969 173.756 53.3686 176.284 50.2608 176.284ZM50.2608 166.346C47.8885 166.346 45.9585 168.276 45.9585 170.648C45.9585 173.02 47.8885 174.95 50.2608 174.95C52.6331 174.95 54.5631 173.02 54.5631 170.648C54.5631 168.276 52.6331 166.346 50.2608 166.346Z" fill="#161616"/>
<path d="M81.849 164.118L160.827 142.731C160.827 142.731 174.435 145.164 171.295 168.886L92.2608 197.08" fill="#161616"/>
<path d="M92.2609 197.747C91.9869 197.747 91.7301 197.577 91.633 197.304C91.5092 196.957 91.69 196.576 92.0371 196.452L170.687 168.396C171.512 161.803 171.45 152.949 166.729 147.343C164.238 144.385 161.478 143.571 160.844 143.418L82.0235 164.762C81.6682 164.859 81.3017 164.648 81.2056 164.293C81.1096 163.937 81.3195 163.571 81.6751 163.475L160.653 142.088C160.748 142.062 160.847 142.057 160.944 142.075C161.093 142.101 164.62 142.768 167.749 146.483C172.881 152.577 172.87 162.077 171.957 168.974C171.924 169.222 171.755 169.431 171.52 169.514L92.485 197.708C92.4108 197.734 92.3353 197.747 92.2609 197.747Z" fill="#161616"/>
<path d="M84.2172 199.04C93.8605 199.04 101.678 191.222 101.678 181.579C101.678 171.936 93.8605 164.118 84.2172 164.118C74.574 164.118 66.7566 171.936 66.7566 181.579C66.7566 191.222 74.574 199.04 84.2172 199.04Z" fill="#DEE5DC"/>
<path d="M84.2173 199.707C74.2216 199.707 66.0897 191.575 66.0897 181.579C66.0897 171.584 74.2216 163.452 84.2173 163.452C94.213 163.452 102.345 171.584 102.345 181.579C102.345 191.575 94.213 199.707 84.2173 199.707ZM84.2173 164.785C74.9573 164.785 67.4235 172.319 67.4235 181.579C67.4235 190.839 74.9573 198.373 84.2173 198.373C93.4772 198.373 101.011 190.839 101.011 181.579C101.011 172.319 93.4772 164.785 84.2173 164.785Z" fill="#161616"/>
<path d="M84.2173 186.548C86.9617 186.548 89.1865 184.323 89.1865 181.579C89.1865 178.835 86.9617 176.61 84.2173 176.61C81.4729 176.61 79.2482 178.835 79.2482 181.579C79.2482 184.323 81.4729 186.548 84.2173 186.548Z" fill="#EAEFE8"/>
<path d="M84.2174 187.215C81.1096 187.215 78.5813 184.687 78.5813 181.579C78.5813 178.471 81.1096 175.943 84.2174 175.943C87.3251 175.943 89.8534 178.471 89.8534 181.579C89.8534 184.687 87.3251 187.215 84.2174 187.215ZM84.2174 177.277C81.8451 177.277 79.9151 179.207 79.9151 181.579C79.9151 183.951 81.8451 185.881 84.2174 185.881C86.5896 185.881 88.5196 183.951 88.5196 181.579C88.5196 179.207 86.5896 177.277 84.2174 177.277Z" fill="#161616"/>
<path d="M116.503 168.537L195.481 147.15C195.481 147.15 209.09 149.584 205.95 173.305L126.915 201.499" fill="#161616"/>
<path d="M126.915 202.166C126.641 202.166 126.384 201.996 126.287 201.723C126.163 201.376 126.344 200.995 126.691 200.871L205.341 172.814C206.502 163.553 205.157 156.304 201.444 151.835C198.954 148.838 196.139 147.996 195.497 147.837L116.678 169.181C116.322 169.279 115.956 169.068 115.86 168.712C115.764 168.356 115.974 167.99 116.33 167.894L195.307 146.507C195.402 146.481 195.502 146.476 195.599 146.494C195.748 146.521 199.275 147.188 202.404 150.903C207.535 156.996 207.524 166.496 206.612 173.393C206.579 173.641 206.41 173.85 206.174 173.933L127.139 202.127C127.065 202.153 126.989 202.166 126.915 202.166Z" fill="#161616"/>
<path d="M118.872 203.459C128.515 203.459 136.332 195.641 136.332 185.998C136.332 176.355 128.515 168.537 118.872 168.537C109.228 168.537 101.411 176.355 101.411 185.998C101.411 195.641 109.228 203.459 118.872 203.459Z" fill="#DEE5DC"/>
<path d="M118.872 204.126C108.876 204.126 100.744 195.994 100.744 185.998C100.744 176.002 108.876 167.871 118.872 167.871C128.867 167.871 136.999 176.002 136.999 185.998C136.999 195.994 128.867 204.126 118.872 204.126ZM118.872 169.204C109.612 169.204 102.078 176.738 102.078 185.998C102.078 195.258 109.612 202.792 118.872 202.792C128.132 202.792 135.666 195.258 135.666 185.998C135.666 176.738 128.132 169.204 118.872 169.204Z" fill="#161616"/>
<path d="M118.872 190.967C121.616 190.967 123.841 188.743 123.841 185.998C123.841 183.254 121.616 181.029 118.872 181.029C116.127 181.029 113.902 183.254 113.902 185.998C113.902 188.743 116.127 190.967 118.872 190.967Z" fill="#EAEFE8"/>
<path d="M118.872 191.634C115.764 191.634 113.235 189.106 113.235 185.998C113.235 182.89 115.764 180.362 118.872 180.362C121.979 180.362 124.508 182.89 124.508 185.998C124.508 189.106 121.979 191.634 118.872 191.634ZM118.872 181.696C116.499 181.696 114.569 183.626 114.569 185.998C114.569 188.37 116.499 190.3 118.872 190.3C121.244 190.3 123.174 188.37 123.174 185.998C123.174 183.626 121.244 181.696 118.872 181.696Z" fill="#161616"/>
<path d="M75.8203 126.055L156.338 111.504C156.338 111.504 169.688 115.093 164.531 138.459L83.3736 159.786" fill="#161616"/>
<path d="M83.3733 160.454C83.0775 160.454 82.8072 160.256 82.7286 159.956C82.6349 159.6 82.8478 159.235 83.2042 159.142L163.966 137.918C165.915 128.789 165.195 121.452 161.878 116.681C159.654 113.482 156.921 112.403 156.295 112.189L75.939 126.712C75.5773 126.778 75.2297 126.537 75.1641 126.174C75.0985 125.811 75.3394 125.464 75.7016 125.399L156.219 110.847C156.317 110.83 156.416 110.834 156.511 110.86C156.657 110.899 160.114 111.865 162.913 115.834C167.505 122.344 166.681 131.809 165.182 138.603C165.128 138.847 164.942 139.04 164.7 139.104L83.5432 160.432C83.4864 160.447 83.4293 160.454 83.3733 160.454Z" fill="#161616"/>
<path d="M76.6862 161.115C86.3295 161.115 94.1469 153.298 94.1469 143.655C94.1469 134.011 86.3295 126.194 76.6862 126.194C67.043 126.194 59.2256 134.011 59.2256 143.655C59.2256 153.298 67.043 161.115 76.6862 161.115Z" fill="#DEE5DC"/>
<path d="M76.706 161.783C76.1853 161.783 75.6569 161.761 75.1354 161.716C65.1765 160.86 57.7702 152.062 58.6252 142.103C59.016 137.552 61.0876 133.351 64.4586 130.272C67.8099 127.211 72.1453 125.526 76.6665 125.526C77.1873 125.526 77.7157 125.548 78.2372 125.593C88.1961 126.448 95.6026 135.246 94.7474 145.205C94.3566 149.757 92.285 153.958 88.9137 157.037C85.5627 160.098 81.227 161.783 76.706 161.783ZM76.6665 126.86C72.4792 126.86 68.4632 128.421 65.3581 131.257C62.2352 134.109 60.3161 138.002 59.9539 142.218C59.1616 151.444 66.0232 159.595 75.2493 160.387C75.7329 160.428 76.2229 160.449 76.7058 160.449C80.8931 160.449 84.9091 158.888 88.0142 156.052C91.1371 153.201 93.0562 149.308 93.4184 145.091C94.2107 135.865 87.3494 127.715 78.123 126.923C77.6394 126.881 77.1494 126.86 76.6665 126.86Z" fill="#161616"/>
<path d="M76.6862 148.624C79.4306 148.624 81.6554 146.399 81.6554 143.655C81.6554 140.91 79.4306 138.686 76.6862 138.686C73.9418 138.686 71.717 140.91 71.717 143.655C71.717 146.399 73.9418 148.624 76.6862 148.624Z" fill="#EAEFE8"/>
<path d="M76.6921 149.291C76.5302 149.291 76.3658 149.284 76.2039 149.27C74.7039 149.141 73.344 148.436 72.3746 147.284C71.4052 146.133 70.9419 144.673 71.0707 143.173C71.3188 140.283 73.7828 138.019 76.6804 138.019C76.8423 138.019 77.0066 138.025 77.1685 138.039C78.6685 138.168 80.0282 138.874 80.9978 140.025C81.9675 141.176 82.4306 142.637 82.3017 144.137C82.0534 147.027 79.5893 149.291 76.6921 149.291ZM76.6804 139.352C74.4695 139.352 72.5891 141.081 72.3997 143.287C72.3015 144.432 72.655 145.546 73.395 146.425C74.1352 147.305 75.1734 147.843 76.3181 147.941C76.4424 147.952 76.5683 147.957 76.6921 147.957C78.903 147.957 80.7831 146.229 80.9728 144.023C81.0709 142.878 80.7175 141.764 79.9775 140.884C79.2372 140.005 78.1993 139.467 77.0543 139.369C76.93 139.358 76.8041 139.352 76.6804 139.352Z" fill="#161616"/>
<path d="M100.499 102.295L181.793 93.005C181.793 93.005 194.881 97.4535 188.217 120.435L105.846 136.446" fill="#161616"/>
<path d="M105.845 137.113C105.532 137.113 105.253 136.892 105.191 136.573C105.121 136.212 105.357 135.862 105.718 135.791L187.688 119.858C190.226 110.876 189.984 103.507 186.985 98.5315C184.973 95.1944 182.316 93.9398 181.705 93.6864L100.575 102.958C100.21 103.003 99.8787 102.737 99.8368 102.371C99.7949 102.005 100.058 101.675 100.424 101.633L181.717 92.3427C181.815 92.3315 181.914 92.3419 182.007 92.3737C182.15 92.4225 185.537 93.6112 188.073 97.7539C192.232 104.549 190.795 113.939 188.857 120.621C188.788 120.861 188.59 121.042 188.344 121.09L105.972 137.101C105.93 137.109 105.887 137.113 105.845 137.113Z" fill="#161616"/>
<path d="M100.22 137.374C109.863 137.374 117.681 129.557 117.681 119.914C117.681 110.271 109.863 102.453 100.22 102.453C90.5769 102.453 82.7595 110.271 82.7595 119.914C82.7595 129.557 90.5769 137.374 100.22 137.374Z" fill="#DEE5DC"/>
<path d="M100.242 138.044C99.3301 138.044 98.4072 137.974 97.4991 137.836C92.7121 137.109 88.4944 134.562 85.623 130.663C82.7517 126.764 81.571 121.98 82.2979 117.193C82.9528 112.88 85.1397 108.948 88.4557 106.122C91.7382 103.324 95.9087 101.784 100.199 101.784C101.11 101.784 102.033 101.853 102.941 101.991C112.823 103.492 119.642 112.752 118.142 122.634C117.487 126.947 115.3 130.879 111.984 133.705C108.702 136.503 104.532 138.044 100.242 138.044ZM100.199 103.118C96.2253 103.118 92.3624 104.545 89.3208 107.137C86.2489 109.755 84.2231 113.398 83.6165 117.393C82.9432 121.828 84.0372 126.26 86.697 129.872C89.3569 133.484 93.2643 135.844 97.6992 136.517C98.5413 136.645 99.3966 136.71 100.242 136.71C104.215 136.71 108.078 135.282 111.119 132.69C114.191 130.072 116.217 126.43 116.823 122.435C118.213 113.28 111.896 104.7 102.741 103.31C101.899 103.182 101.044 103.118 100.199 103.118Z" fill="#161616"/>
<path d="M100.22 124.883C102.965 124.883 105.19 122.658 105.19 119.914C105.19 117.169 102.965 114.944 100.22 114.944C97.4756 114.944 95.2507 117.169 95.2507 119.914C95.2507 122.658 97.4756 124.883 100.22 124.883Z" fill="#EAEFE8"/>
<path d="M100.227 125.55C99.9435 125.55 99.6564 125.529 99.3739 125.486C96.3017 125.019 94.1815 122.14 94.6478 119.068C95.0629 116.337 97.456 114.277 100.214 114.277C100.498 114.277 100.784 114.299 101.066 114.342C104.139 114.808 106.259 117.687 105.792 120.76C105.378 123.491 102.985 125.55 100.227 125.55ZM100.214 115.611C98.1095 115.611 96.2833 117.184 95.9664 119.268C95.6105 121.613 97.2289 123.811 99.574 124.167C99.7906 124.2 100.01 124.217 100.227 124.217C102.331 124.217 104.157 122.645 104.474 120.56C104.829 118.215 103.211 116.017 100.866 115.661C100.65 115.628 100.431 115.611 100.214 115.611Z" fill="#161616"/>
<path d="M109.544 134.661L190.062 120.109C190.062 120.109 203.413 123.698 198.255 147.064L117.098 168.392" fill="#161616"/>
<path d="M117.097 169.059C116.802 169.059 116.531 168.861 116.453 168.562C116.359 168.206 116.572 167.841 116.928 167.747L197.69 146.523C199.076 140.026 199.772 131.198 195.548 125.209C193.319 122.048 190.639 121.002 190.02 120.795L109.663 135.317C109.301 135.384 108.953 135.142 108.888 134.779C108.822 134.417 109.063 134.07 109.426 134.005L189.944 119.453C190.04 119.436 190.14 119.44 190.235 119.465C190.381 119.504 193.838 120.471 196.638 124.44C201.229 130.95 200.406 140.414 198.906 147.208C198.852 147.452 198.666 147.646 198.424 147.709L117.267 169.037C117.211 169.052 117.153 169.059 117.097 169.059Z" fill="#161616"/>
<path d="M110.41 169.721C120.053 169.721 127.871 161.903 127.871 152.26C127.871 142.617 120.053 134.799 110.41 134.799C100.767 134.799 92.9493 142.617 92.9493 152.26C92.9493 161.903 100.767 169.721 110.41 169.721Z" fill="#DEE5DC"/>
<path d="M110.43 170.389C109.909 170.389 109.381 170.366 108.859 170.321C104.034 169.907 99.6604 167.639 96.542 163.935C93.4236 160.23 91.9346 155.534 92.3489 150.709C92.7397 146.158 94.8113 141.956 98.1823 138.877C101.533 135.817 105.869 134.132 110.39 134.132C110.911 134.132 111.439 134.154 111.961 134.199C116.785 134.614 121.159 136.882 124.277 140.586C127.396 144.29 128.885 148.987 128.471 153.811C128.08 158.363 126.008 162.564 122.637 165.643C119.287 168.703 114.951 170.389 110.43 170.389ZM110.39 135.465C106.203 135.465 102.187 137.027 99.0818 139.862C95.9589 142.714 94.0398 146.607 93.6779 150.823C93.294 155.293 94.6737 159.644 97.5624 163.076C100.451 166.507 104.504 168.608 108.973 168.992C109.457 169.034 109.947 169.055 110.43 169.055C114.617 169.055 118.633 167.493 121.738 164.658C124.861 161.806 126.78 157.914 127.142 153.697C127.526 149.228 126.146 144.877 123.258 141.445C120.369 138.013 116.316 135.912 111.847 135.528C111.363 135.486 110.873 135.465 110.39 135.465Z" fill="#161616"/>
<path d="M110.41 157.229C113.154 157.229 115.379 155.005 115.379 152.26C115.379 149.516 113.154 147.291 110.41 147.291C107.666 147.291 105.441 149.516 105.441 152.26C105.441 155.005 107.666 157.229 110.41 157.229Z" fill="#EAEFE8"/>
<path d="M110.416 157.896C110.254 157.896 110.09 157.889 109.928 157.875C108.428 157.747 107.068 157.042 106.098 155.89C105.129 154.738 104.666 153.278 104.795 151.778C105.043 148.888 107.507 146.624 110.404 146.624C110.566 146.624 110.73 146.631 110.892 146.645C113.989 146.911 116.292 149.647 116.026 152.743C115.778 155.633 113.313 157.896 110.416 157.896ZM110.404 147.958C108.193 147.958 106.313 149.686 106.124 151.892C106.025 153.037 106.379 154.152 107.119 155.031C107.859 155.91 108.897 156.448 110.042 156.546C110.166 156.557 110.292 156.563 110.416 156.563C112.627 156.563 114.507 154.834 114.697 152.629C114.899 150.265 113.142 148.177 110.778 147.974C110.654 147.963 110.528 147.958 110.404 147.958Z" fill="#161616"/>
<path d="M131.832 171.715C131.599 171.715 131.385 171.561 131.319 171.325C131.239 171.042 131.405 170.747 131.689 170.668L199.296 151.746C199.58 151.667 199.874 151.832 199.954 152.116C200.033 152.4 199.867 152.694 199.584 152.774L131.976 171.695C131.928 171.709 131.88 171.715 131.832 171.715Z" fill="#AFB7AC"/>
<path d="M135.3 176.517C135.067 176.517 134.853 176.363 134.787 176.127C134.707 175.844 134.873 175.549 135.157 175.47L202.764 156.548C203.048 156.468 203.342 156.634 203.421 156.918C203.501 157.201 203.335 157.496 203.051 157.575L135.444 176.497C135.396 176.511 135.348 176.517 135.3 176.517Z" fill="#AFB7AC"/>
<path d="M138.768 183.186C138.538 183.186 138.326 183.036 138.257 182.804C138.173 182.521 138.334 182.225 138.616 182.141L204.09 162.686C204.371 162.601 204.669 162.763 204.753 163.045C204.837 163.328 204.676 163.625 204.393 163.708L138.92 183.164C138.87 183.179 138.818 183.186 138.768 183.186Z" fill="#AFB7AC"/>
<path d="M137.968 190.922C137.744 190.922 137.536 190.78 137.462 190.557C137.369 190.277 137.52 189.975 137.8 189.882L204.34 167.759C204.62 167.666 204.922 167.818 205.014 168.097C205.108 168.377 204.956 168.679 204.677 168.772L138.136 190.895C138.081 190.913 138.024 190.922 137.968 190.922Z" fill="#AFB7AC"/>
<path d="M125.209 137.498C124.958 137.498 124.735 137.321 124.686 137.066C124.63 136.777 124.819 136.497 125.108 136.441L191.424 123.582C191.713 123.527 191.993 123.715 192.049 124.004C192.105 124.294 191.916 124.573 191.627 124.63L125.311 137.488C125.276 137.495 125.242 137.498 125.209 137.498Z" fill="#AFB7AC"/>
<path d="M128.159 142.374C127.909 142.374 127.685 142.198 127.636 141.943C127.58 141.653 127.769 141.373 128.058 141.317L194.374 128.458C194.664 128.402 194.943 128.591 194.999 128.88C195.055 129.17 194.866 129.449 194.577 129.506L128.261 142.365C128.227 142.371 128.193 142.374 128.159 142.374Z" fill="#AFB7AC"/>
<path d="M130.963 149.041C130.716 149.041 130.494 148.869 130.441 148.617C130.381 148.329 130.565 148.046 130.854 147.986L195.164 134.448C195.451 134.387 195.736 134.572 195.796 134.86C195.857 135.149 195.672 135.432 195.384 135.492L131.073 149.03C131.036 149.037 130.999 149.041 130.963 149.041Z" fill="#AFB7AC"/>
<path d="M129.591 156.397C129.351 156.397 129.132 156.234 129.073 155.99C129.003 155.704 129.178 155.415 129.465 155.345L195.007 139.334C195.293 139.264 195.582 139.439 195.652 139.725C195.722 140.012 195.546 140.3 195.26 140.37L129.718 156.382C129.675 156.392 129.633 156.397 129.591 156.397Z" fill="#AFB7AC"/>
<path d="M119.604 107.472C119.337 107.472 119.107 107.273 119.075 107.002C119.04 106.709 119.249 106.444 119.542 106.409L181.538 99.0234C181.83 98.9908 182.096 99.1973 182.131 99.4902C182.166 99.7829 181.957 100.048 181.664 100.083L119.668 107.468C119.646 107.471 119.625 107.472 119.604 107.472Z" fill="#AFB7AC"/>
<path d="M142.633 110.354C142.37 110.354 142.141 110.16 142.105 109.892C142.066 109.6 142.271 109.331 142.563 109.292L183.921 103.718C184.213 103.681 184.482 103.884 184.521 104.176C184.56 104.468 184.356 104.737 184.064 104.776L142.705 110.35C142.681 110.353 142.657 110.354 142.633 110.354Z" fill="#AFB7AC"/>
<path d="M124.13 118.5C123.868 118.5 123.639 118.306 123.603 118.038C123.563 117.746 123.768 117.477 124.06 117.438L184.254 109.292C184.545 109.252 184.815 109.457 184.854 109.749C184.894 110.042 184.689 110.31 184.397 110.35L124.203 118.496C124.178 118.499 124.154 118.5 124.13 118.5Z" fill="#AFB7AC"/>
<path d="M122.37 125.189C122.114 125.189 121.888 125.004 121.844 124.744C121.795 124.453 121.991 124.178 122.282 124.129L183.779 113.785C184.067 113.736 184.344 113.932 184.393 114.223C184.442 114.514 184.246 114.789 183.955 114.838L122.459 125.181C122.429 125.186 122.399 125.189 122.37 125.189Z" fill="#AFB7AC"/>
<path d="M178.085 91.6745C177.394 91.6745 176.651 91.5604 175.876 91.335C175.829 91.3214 175.784 91.303 175.742 91.2795L163.84 84.761C163.443 84.559 153.71 79.3797 153.624 60.3852C153.623 60.1325 153.764 59.901 153.99 59.7868C154.216 59.6729 154.486 59.6961 154.689 59.8471L170.192 71.3815V48.2879C170.192 48.0113 170.363 47.7632 170.621 47.6648C170.88 47.5664 171.172 47.6376 171.356 47.8443C173.318 50.0443 179.104 55.754 182.283 55.754C182.774 55.754 183.163 55.6126 183.473 55.3218C183.667 55.1394 183.95 55.09 184.195 55.1959C184.439 55.3015 184.597 55.5419 184.597 55.8079V82.477C184.54 85.6661 183.107 91.6745 178.085 91.6745ZM176.317 90.074C176.946 90.2511 177.54 90.3408 178.085 90.3408C183.066 90.3408 183.263 82.5437 183.263 82.4653V56.948C182.996 57.0411 182.632 57.0878 182.283 57.0878C178.865 57.0878 173.796 52.3067 171.525 49.9725V72.7086C171.525 72.9607 171.383 73.1914 171.158 73.3045C170.932 73.4174 170.663 73.3939 170.46 73.2434L154.982 61.7272C155.144 66.8426 156.158 73.5555 159.752 78.8728C162.086 82.326 164.441 83.5702 164.464 83.5824L176.317 90.074Z" fill="#161616"/>
<path d="M173.259 51.0841C172.891 51.0841 172.593 50.7856 172.593 50.4172V40.5376C171.998 39.3315 169.194 33.3084 171.307 30.9636C173.4 28.6412 176.49 27.8996 176.621 27.8689C176.845 27.8167 177.081 27.8841 177.244 28.0471C177.407 28.2101 177.474 28.4459 177.421 28.6705C177.404 28.7444 177.062 30.1753 176.252 31.4083C177.06 31.8319 178.052 32.8152 178.288 35.0965C178.326 35.4627 178.059 35.7906 177.693 35.8282C177.326 35.8671 176.999 35.6001 176.961 35.2336C176.677 32.4809 175.132 32.4212 175.117 32.4209C174.85 32.4158 174.612 32.2531 174.511 32.0064C174.41 31.7596 174.466 31.4768 174.653 31.2866C175.107 30.8244 175.462 30.1668 175.713 29.5765C174.733 29.9734 173.349 30.6907 172.298 31.8567C171.083 33.2054 172.608 37.6158 173.855 40.0787C173.902 40.1724 173.927 40.2753 173.927 40.3802V50.4172C173.926 50.7856 173.628 51.0841 173.259 51.0841Z" fill="#161616"/>
<path d="M181.529 54.5519C181.16 54.5519 180.862 54.2534 180.862 53.885V43.8685C180.862 43.6946 180.93 43.5276 181.051 43.403L185.238 39.1082C185.495 38.8444 185.917 38.8393 186.181 39.0962C186.445 39.3533 186.45 39.7756 186.193 40.0392L182.196 44.1398V53.885C182.196 54.2534 181.897 54.5519 181.529 54.5519Z" fill="#161616"/>
<path d="M198.957 42.7517C195.353 42.7517 190.913 40.4866 190.522 40.2828L177.283 34.3605C176.947 34.2101 176.796 33.8155 176.947 33.4794C177.097 33.1433 177.492 32.9926 177.828 33.1428L191.084 39.0734C191.097 39.079 191.11 39.0851 191.122 39.0915C191.183 39.123 197.225 42.2574 200.461 41.2122C201.164 40.9849 201.655 40.5773 201.961 39.9654C202.111 39.6645 202.115 39.3126 201.973 38.8898C200.757 35.2699 190.269 29.4322 186.331 27.4886C179.942 24.0815 170.212 20.1898 168.528 22.1737C168.058 22.7269 167.871 23.3258 167.955 24.0047C168.244 26.3234 171.473 28.6495 171.506 28.6727C171.806 28.8864 171.876 29.3028 171.662 29.6026C171.449 29.9027 171.033 29.9726 170.733 29.7598C170.581 29.6515 166.995 27.0732 166.632 24.1722C166.5 23.1159 166.795 22.1532 167.511 21.3102C168.893 19.6832 172.524 20.0596 178.614 22.4629C182.902 24.1554 186.9 26.2807 186.939 26.3018C187.519 26.5875 201.595 33.5824 203.237 38.4646C203.495 39.2305 203.466 39.936 203.154 40.5619C202.685 41.4979 201.917 42.1437 200.869 42.4817C200.283 42.6714 199.635 42.7514 198.957 42.7517Z" fill="#161616"/>
<path d="M202.745 39.303C202.492 39.303 202.251 39.159 202.139 38.9149C198.498 31.0111 192.01 25.6989 182.857 23.1255C175.984 21.1933 170.107 21.6204 170.048 21.6247C169.677 21.6527 169.36 21.3787 169.332 21.0117C169.303 20.6446 169.577 20.3237 169.944 20.2949C170.192 20.2757 176.081 19.8436 183.175 21.8293C189.754 23.671 198.594 28.0333 203.35 38.3568C203.504 38.6913 203.357 39.0875 203.023 39.2414C202.933 39.2833 202.838 39.303 202.745 39.303Z" fill="#161616"/>
<path d="M198.541 32.5852C198.412 32.5852 198.282 32.5481 198.168 32.4708C197.862 32.2646 197.782 31.8498 197.989 31.5446C198.009 31.5142 200.089 28.3608 199.292 24.9004C198.778 22.6733 197.187 20.7705 194.562 19.2446C190.695 16.9964 187.082 16.6982 183.824 18.3582C181.387 19.5992 180.08 21.5001 180.067 21.5193C179.86 21.8242 179.446 21.9034 179.141 21.697C178.836 21.4902 178.756 21.0754 178.963 20.7705C179.022 20.6835 184.984 12.1345 195.233 18.0917C198.194 19.8131 199.998 22.0083 200.594 24.615C201.516 28.6465 199.193 32.1451 199.094 32.2918C198.965 32.4828 198.755 32.5852 198.541 32.5852Z" fill="#161616"/>
<path d="M199.79 29.72C199.568 29.72 199.351 29.6093 199.225 29.4071C194.323 21.5796 181.327 19.9489 181.196 19.9332C180.831 19.8897 180.569 19.5581 180.613 19.1924C180.656 18.8269 180.989 18.566 181.353 18.6087C181.493 18.6252 184.819 19.0299 188.831 20.4595C194.191 22.3692 198.176 25.2184 200.355 28.6988C200.551 29.0109 200.456 29.4225 200.144 29.6181C200.034 29.6872 199.911 29.72 199.79 29.72Z" fill="#161616"/>
<path d="M183.835 56.4748C183.661 56.4748 183.487 56.407 183.357 56.2723C183.1 56.0082 183.107 55.5859 183.371 55.3293C183.806 54.9065 183.995 54.4578 183.948 53.9576C183.815 52.5332 181.877 50.959 181.142 50.4727C180.835 50.2694 180.75 49.856 180.953 49.5487C181.156 49.2416 181.569 49.1571 181.876 49.359C182.201 49.5732 185.058 51.5179 185.276 53.8312C185.361 54.7344 185.024 55.5833 184.3 56.2864C184.17 56.4123 184.003 56.4748 183.835 56.4748Z" fill="#161616"/>
<path d="M143.795 46.6964C142.924 46.6964 142.203 46.2386 142.109 46.1762C141.802 45.9727 141.718 45.5589 141.921 45.2519C142.124 44.9456 142.536 44.8616 142.843 45.0627C143.023 45.1785 143.587 45.4522 144.042 45.3322C144.302 45.2639 144.513 45.0678 144.688 44.733C144.859 44.4065 145.262 44.2806 145.588 44.4508C145.915 44.6215 146.041 45.0243 145.871 45.3508C145.427 46.1991 144.81 46.512 144.37 46.6249C144.175 46.6756 143.981 46.6964 143.795 46.6964Z" fill="#161616"/>
<path d="M153.563 45.0682C152.692 45.0682 151.972 44.6104 151.877 44.548C151.57 44.3445 151.486 43.9307 151.69 43.6237C151.893 43.3175 152.304 43.2334 152.612 43.4346C152.791 43.5509 153.355 43.8243 153.811 43.704C154.07 43.6357 154.282 43.4396 154.457 43.1049C154.627 42.7783 155.03 42.6522 155.357 42.8226C155.683 42.9934 155.809 43.3962 155.639 43.7227C155.196 44.571 154.578 44.8839 154.139 44.997C153.943 45.0474 153.749 45.0682 153.563 45.0682Z" fill="#161616"/>
<path d="M148.261 58.0924C146.745 58.0924 145.087 57.91 143.291 57.5453C140.125 56.9016 137.745 55.9226 137.645 55.8813C137.305 55.7402 137.143 55.3502 137.284 55.0098C137.425 54.6699 137.815 54.5077 138.156 54.6489C138.248 54.6873 147.494 58.4571 153.203 55.8106C157.678 53.7357 154.481 43.6875 152.872 39.9905C152.725 39.6528 152.879 39.2598 153.217 39.1129C153.554 38.9651 153.947 39.1201 154.094 39.4581C154.352 40.0495 160.326 53.9785 153.763 57.0209C152.224 57.7353 150.383 58.0924 148.261 58.0924Z" fill="#161616"/>
<path d="M134.876 59.1882C134.549 59.1882 134.263 58.9468 134.216 58.6128L133.137 50.8136C131.688 50.8016 130.404 50.2974 129.623 49.4123C129.056 48.7707 128.467 47.6079 128.876 45.7116C129.125 44.5608 129.793 44.0278 130.31 43.7837C132.151 42.9149 134.878 44.2681 135.183 44.4255C135.51 44.5944 135.639 44.9964 135.47 45.3237C135.302 45.6507 134.9 45.7788 134.572 45.6113C133.904 45.2685 131.938 44.4887 130.879 44.9903C130.648 45.0994 130.325 45.3221 130.18 45.9927C129.946 47.0779 130.095 47.9315 130.623 48.5291C131.238 49.2258 132.373 49.5732 133.655 49.4587C134.009 49.4246 134.326 49.6791 134.375 50.0314L135.538 58.4295C135.588 58.7942 135.334 59.1311 134.969 59.1815C134.937 59.186 134.907 59.1882 134.876 59.1882Z" fill="#161616"/>
<path d="M137.901 48.0164H139.063L137.901 39.7634L127.435 31.7444C127.435 31.7444 122.085 36.6514 124.876 44.4511C127.667 52.2514 133.952 51.847 133.952 51.847C133.952 51.847 135.207 50.2158 133.714 50.1219C132.189 50.0267 129.406 49.5473 129.528 45.8935C129.643 42.4457 136.272 44.2817 137.901 48.0164Z" fill="#161616"/>
<path d="M128.365 30.8444L139.063 39.7247C139.063 39.7247 150.576 39.566 154.297 37.8217L155.576 41.078C155.576 41.078 161.042 32.4724 154.297 26.7742C147.553 21.0762 135.342 17.7036 128.365 30.8444Z" fill="#161616"/>
<path d="M121.155 115.642C120.991 115.642 120.832 115.582 120.708 115.471C120.555 115.333 120.475 115.132 120.49 114.927L123.582 72.6755C123.6 72.043 124.107 59.7279 134.847 59.2504C134.94 59.2458 135.028 59.2613 135.11 59.2912C135.286 59.2258 135.487 59.2362 135.66 59.3301L144.487 64.1107L150.952 58.4834C151.143 58.3175 151.41 58.2735 151.644 58.3698L153.901 59.2997C153.923 59.3088 153.944 59.3189 153.965 59.3301C154.276 59.499 161.578 63.567 162.057 72.6736C162.518 81.4334 162.063 107.577 162.058 107.84C162.052 108.158 161.822 108.429 161.508 108.485L121.272 115.632C121.233 115.639 121.194 115.642 121.155 115.642ZM134.944 60.5802C134.932 60.5815 134.919 60.5823 134.907 60.5828C130.856 60.7632 127.949 62.8265 126.265 66.7159C124.974 69.6995 124.915 72.6883 124.915 72.7182C124.915 72.7313 124.914 72.7446 124.913 72.7574L121.883 114.169L160.734 107.267C160.796 103.443 161.147 80.7521 160.725 72.7438C160.3 64.668 153.831 60.7914 153.355 60.5175L151.517 59.7601L151.466 59.805C151.611 59.9575 151.682 60.1765 151.637 60.3988L149.718 69.8185C149.67 70.0535 149.5 70.2445 149.272 70.3192C149.044 70.3939 148.794 70.3406 148.617 70.1794L144.706 66.6329L141.774 71.0979C141.646 71.294 141.42 71.4047 141.189 71.3983C140.954 71.3884 140.743 71.2563 140.631 71.0501L134.944 60.5802ZM137.001 61.5733L141.271 69.4341L143.958 65.341L137.001 61.5733ZM145.188 65.2692L148.645 68.4044L150.166 60.9363L145.188 65.2692Z" fill="#161616"/>
<path d="M137.647 110.705H132.312V60.2872H135.595L137.647 64.199V110.705Z" fill="#946D42"/>
<path d="M145.805 95.5481C145.45 95.5481 145.155 95.2677 145.14 94.909L143.91 65.6427C143.894 65.2748 144.18 64.964 144.548 64.9483C144.912 64.9438 145.227 65.2188 145.242 65.5869L146.472 94.8532C146.488 95.2211 146.202 95.5318 145.834 95.5476C145.824 95.5478 145.815 95.5481 145.805 95.5481Z" fill="#161616"/>
<path d="M156.587 110.705H150.985V60.382L152.199 58.9866L156.587 62.2426V110.705Z" fill="#946D42"/>
<path d="M121.108 115.038V129.225C121.108 129.225 122.887 138.761 131.69 136.435C140.494 134.109 151 129.69 151 129.69C151 129.69 157.213 126.899 159.772 120.852C162.33 114.805 161.43 107.828 161.43 107.828L121.108 115.038Z" fill="#946D42"/>
<path d="M124.991 68.2888L115.224 103.176C115.224 103.176 114.294 109.223 118.829 110.619C123.364 112.014 124.992 111.083 125.69 110.619C126.388 110.154 155.228 92.9807 155.228 92.9807L149.064 81.1978L128.714 91.1985" fill="#DEE5DC"/>
<path d="M122.938 112.023C121.852 112.023 120.456 111.817 118.633 111.256C114.61 110.018 114.213 105.363 114.565 103.075C114.569 103.048 114.575 103.022 114.582 102.997L124.348 68.1091C124.448 67.7543 124.816 67.5476 125.17 67.6468C125.525 67.746 125.732 68.1142 125.632 68.4687L115.878 103.314C115.806 103.834 115.226 108.813 119.025 109.981C123.416 111.332 124.849 110.377 125.32 110.064C125.979 109.625 150.258 95.1645 154.344 92.7309L148.775 82.0832L129.008 91.7972C128.677 91.9589 128.277 91.8231 128.115 91.4926C127.953 91.1621 128.089 90.7625 128.419 90.5997L148.77 80.599C149.095 80.4395 149.487 80.568 149.655 80.8884L155.819 92.6716C155.983 92.9856 155.873 93.3727 155.569 93.5541C145.605 99.4868 126.615 110.805 126.06 111.174C125.441 111.586 124.519 112.023 122.938 112.023Z" fill="#161616"/>
<path d="M152.204 48.8167H149.651C149.283 48.8167 148.984 48.5182 148.984 48.1498C148.984 47.7814 149.283 47.4829 149.651 47.4829H151.089L149.991 45.4422C149.817 45.1178 149.939 44.7137 150.263 44.5389C150.587 44.3647 150.991 44.4859 151.166 44.8108L152.792 47.8342C152.903 48.0407 152.897 48.2906 152.777 48.492C152.656 48.6934 152.439 48.8167 152.204 48.8167Z" fill="#161616"/>
<path d="M152.199 105.936L166.565 87.6092C166.565 87.6092 173.899 82.6704 177.644 85.9734C182.126 89.9271 181.929 97.1293 181.929 97.1293V134.342C181.929 134.342 187.708 139.924 187.708 144.343C187.708 144.343 184.842 146.436 177.696 144.343C170.55 142.25 164.323 134.109 164.323 134.109V117.131L152.2 128.999" fill="#946D42"/>
<path d="M129.286 114.975L143.712 96.6632C143.712 96.6632 151.135 91.7332 154.879 95.0357C159.362 98.9893 159.254 106.2 159.254 106.2V143.413C159.254 143.413 164.974 148.994 164.974 153.413C164.974 153.413 162.004 155.507 154.858 153.413C147.712 151.32 141.382 143.18 141.382 143.18V114.973" fill="#946D42"/>
<path d="M141.515 123.109C141.147 123.109 140.848 122.81 140.848 122.442V114.973C140.848 114.604 141.147 114.306 141.515 114.306C141.884 114.306 142.182 114.604 142.182 114.973V122.442C142.182 122.81 141.884 123.109 141.515 123.109Z" fill="#161616"/>
<path d="M159.121 123.109C158.753 123.109 158.454 122.81 158.454 122.442V106.2C158.456 106.117 158.542 99.2504 154.351 95.554C152.66 94.0625 149.991 94.5744 148.05 95.2662C146.119 95.9547 144.512 96.9497 144.128 97.1959L127.157 119.148C126.931 119.439 126.513 119.493 126.221 119.267C125.93 119.042 125.876 118.623 126.102 118.332L143.142 96.2908C143.186 96.234 143.239 96.1849 143.298 96.1449C143.617 95.9309 151.149 90.9521 155.233 94.5534C159.894 98.6649 159.788 105.908 159.788 106.214V122.442C159.788 122.81 159.49 123.109 159.121 123.109Z" fill="#161616"/>
<path d="M159.255 143.413V122.442H141.382V143.18C141.382 143.18 147.752 151.32 154.898 153.413C162.045 155.507 164.943 153.413 164.943 153.413C164.944 148.994 159.255 143.413 159.255 143.413Z" fill="#FBFCFA"/>
<path d="M160.754 155.011C158.957 155.011 156.946 154.689 154.778 154.054C151.714 153.156 148.46 151.119 145.106 148C142.626 145.693 141.054 143.673 140.988 143.588C140.898 143.471 140.849 143.328 140.849 143.18V122.308C140.849 121.94 141.147 121.642 141.515 121.642H159.388C159.757 121.642 160.055 121.94 160.055 122.308V143.139C161.095 144.21 165.711 149.203 165.711 153.414C165.711 153.629 165.607 153.831 165.431 153.956C165.371 153.999 163.917 155.011 160.754 155.011ZM142.182 142.946C143.14 144.127 148.871 150.933 155.153 152.773C157.199 153.373 159.084 153.677 160.754 153.677C162.696 153.677 163.858 153.263 164.361 153.028C164.046 148.992 158.972 143.939 158.92 143.887C158.793 143.762 158.721 143.591 158.721 143.413V122.975H142.182V142.946Z" fill="#161616"/>
<path d="M159.414 144.079C159.229 144.079 159.044 144.002 158.912 143.852C157.385 142.107 152.816 143.066 151.185 143.583C150.834 143.695 150.459 143.5 150.348 143.149C150.236 142.798 150.431 142.423 150.782 142.312C150.849 142.29 152.439 141.791 154.324 141.596C156.993 141.319 158.874 141.782 159.916 142.973C160.158 143.25 160.13 143.671 159.853 143.914C159.727 144.025 159.571 144.079 159.414 144.079Z" fill="#161616"/>
<path d="M164.323 117.131V134.109C164.323 134.109 170.62 142.25 177.765 144.343C184.912 146.436 187.714 144.343 187.714 144.343C187.714 139.924 181.929 134.342 181.929 134.342V113.105H164.182L164.323 117.131Z" fill="#FBFCFA"/>
<path d="M183.596 145.94C181.815 145.94 179.813 145.618 177.644 144.983C174.58 144.085 171.337 142.048 168.008 138.928C165.546 136.62 163.991 134.6 163.927 134.515C163.837 134.398 163.789 134.256 163.789 134.109V117.153L163.516 113.016C163.504 112.832 163.569 112.651 163.695 112.516C163.821 112.381 163.998 112.305 164.182 112.305H182.062C182.431 112.305 182.729 112.604 182.729 112.972V134.065C183.788 135.137 188.481 140.13 188.481 144.343C188.481 144.555 188.381 144.754 188.21 144.879C188.152 144.923 186.737 145.94 183.596 145.94ZM165.123 133.878C166.068 135.057 171.739 141.863 178.019 143.703C180.066 144.302 181.942 144.606 183.596 144.606C185.501 144.606 186.638 144.196 187.132 143.961C186.814 139.927 181.652 134.873 181.598 134.82C181.468 134.695 181.395 134.522 181.395 134.342V113.639H164.894L165.122 117.087C165.122 117.102 165.123 117.117 165.123 117.131V133.878H165.123Z" fill="#161616"/>
<path d="M164.456 113.772C164.088 113.772 163.789 113.474 163.789 113.105V103.235C163.789 102.867 164.088 102.568 164.456 102.568C164.825 102.568 165.123 102.867 165.123 103.235V113.105C165.123 113.474 164.825 113.772 164.456 113.772Z" fill="#161616"/>
<path d="M173.486 135.723C173.221 135.723 172.971 135.565 172.867 135.305C172.729 134.964 172.894 134.576 173.236 134.438C173.434 134.357 178.148 132.489 182.39 133.7C182.744 133.802 182.949 134.171 182.848 134.525C182.747 134.879 182.378 135.084 182.024 134.983C178.229 133.898 173.779 135.657 173.734 135.675C173.653 135.708 173.569 135.723 173.486 135.723Z" fill="#161616"/>
<path d="M125.643 31.4775H123.509C123.141 31.4775 122.842 31.179 122.842 30.8106C122.842 30.4422 123.141 30.1437 123.509 30.1437H125.643C126.012 30.1437 126.31 30.4422 126.31 30.8106C126.31 31.179 126.012 31.4775 125.643 31.4775Z" fill="#161616"/>
<path d="M125.574 29.1853C125.399 29.1853 125.225 29.117 125.094 28.9813L124.047 27.8961C123.792 27.6309 123.799 27.2089 124.064 26.9531C124.33 26.6975 124.752 26.7053 125.007 26.9702L126.054 28.0553C126.309 28.3205 126.302 28.7425 126.037 28.9983C125.907 29.1234 125.741 29.1853 125.574 29.1853Z" fill="#161616"/>
<path d="M148.017 61.0488C147.672 61.0488 147.38 60.7829 147.353 60.4329L147.12 57.4092C147.092 57.0421 147.367 56.7215 147.734 56.6932C148.102 56.6601 148.422 56.9397 148.45 57.307L148.683 60.3307C148.711 60.6978 148.436 61.0184 148.069 61.0467C148.052 61.0486 148.034 61.0488 148.017 61.0488Z" fill="#161616"/>
<path d="M150.785 83.5974L160.926 77.7092C160.926 77.7092 164.88 75.9646 167.206 77.7092C169.531 79.4535 172.323 83.5974 172.323 83.5974C172.323 83.5974 170.271 84.0196 169.494 83.5974L168.369 81.3142C168.369 81.3142 170.968 86.4255 169.959 87.3584C168.95 88.2912 166.043 84.8026 166.043 84.8026C166.043 84.8026 169.066 90.0028 167.903 91.0079C166.741 92.0128 164.182 86.9809 164.182 86.9809C164.182 86.9809 161.857 90.5203 158.6 89.338L154.995 91.1405" fill="#DEE5DC"/>
<path d="M154.996 91.8076C154.751 91.8076 154.516 91.6724 154.399 91.4387C154.234 91.1093 154.368 90.7089 154.697 90.544L158.302 88.7415C158.466 88.6596 158.656 88.6487 158.828 88.7114C161.542 89.6954 163.542 86.74 163.626 86.6139C163.757 86.4162 163.982 86.3018 164.22 86.3162C164.457 86.3298 164.669 86.4674 164.777 86.6787C165.71 88.514 166.964 90.2468 167.493 90.4549C167.723 89.8891 166.789 87.4136 165.466 85.1379C165.292 84.8383 165.376 84.4552 165.66 84.2562C165.944 84.0578 166.333 84.1095 166.555 84.3755C167.644 85.6799 169.045 86.8515 169.505 86.8523C169.696 86.3399 169.035 84.2386 168.049 82.1726L167.771 81.6089C167.608 81.28 167.742 80.8818 168.07 80.7177C168.398 80.5539 168.797 80.6846 168.963 81.0117C169.082 81.2456 169.208 81.4996 169.336 81.7674L169.977 83.0686C170.241 83.1289 170.679 83.1311 171.149 83.0913C170.211 81.8013 168.376 79.4207 166.805 78.2425C164.921 76.8284 161.58 78.159 161.225 78.3065L151.12 84.1738C150.801 84.3592 150.393 84.2506 150.208 83.9319C150.023 83.6136 150.131 83.2052 150.45 83.0204L160.591 77.1322C160.613 77.1199 160.635 77.1087 160.657 77.0989C160.833 77.0215 164.998 75.219 167.606 77.1754C169.994 78.9667 172.759 83.0516 172.876 83.2247C173 83.409 173.024 83.6432 172.94 83.8492C172.856 84.0551 172.675 84.2056 172.457 84.2504C172.208 84.3013 171.294 84.475 170.428 84.4483C170.891 85.8917 171.064 87.245 170.412 87.8481C170.15 88.0901 169.81 88.2043 169.431 88.1805C169.05 88.1557 168.629 87.9741 168.206 87.7102C169.009 89.7197 169.047 90.9012 168.34 91.5123C168.052 91.761 167.684 91.8567 167.304 91.7826C166.152 91.5561 164.832 89.5295 164.074 88.1883C162.934 89.4209 160.949 90.7342 158.653 90.0572L155.294 91.7369C155.198 91.7847 155.096 91.8076 154.996 91.8076Z" fill="#161616"/>
<path d="M173.833 75.4685C173.694 75.4685 173.554 75.425 173.434 75.3351L170.643 73.2421C170.349 73.0212 170.289 72.603 170.51 72.3085C170.731 72.014 171.149 71.9547 171.443 72.1751L174.234 74.2681C174.529 74.4889 174.589 74.9072 174.368 75.2017C174.237 75.3765 174.036 75.4685 173.833 75.4685Z" fill="#161616"/>
<path d="M177.555 23.402C177.555 23.402 173.407 22.6788 172.439 24.2807C171.47 25.8828 184.975 32.9375 184.975 32.9375C184.975 32.9375 198.139 39.5662 199.79 37.9952C201.195 36.6582 197.829 33.5916 197.829 33.5916C197.829 33.5916 180.932 23.4588 177.555 23.402Z" fill="#161616"/>
<path d="M142.644 50.2536C142.447 51.298 145.337 54.4209 148.785 53.1226C150.645 52.4226 149.526 50.6908 147.362 50.6908C146.152 50.6906 143.237 47.1037 142.644 50.2536Z" fill="#161616"/>
<path d="M254.458 146.461C254.298 146.461 254.14 146.403 254.017 146.294L250.577 143.259C250.301 143.015 250.275 142.594 250.518 142.318C250.762 142.042 251.183 142.015 251.46 142.259L254.097 144.586L256.403 136.159C256.5 135.804 256.865 135.595 257.222 135.692C257.577 135.789 257.787 136.156 257.689 136.511L255.101 145.97C255.04 146.192 254.87 146.367 254.649 146.433C254.586 146.452 254.522 146.461 254.458 146.461Z" fill="#161616"/>
<path d="M254.459 146.461C254.413 146.461 254.366 146.456 254.32 146.446L250.277 145.592C249.916 145.515 249.686 145.162 249.762 144.801C249.838 144.441 250.194 144.212 250.552 144.286L254.595 145.141C254.956 145.217 255.186 145.571 255.11 145.931C255.044 146.245 254.767 146.461 254.459 146.461Z" fill="#161616"/>
<path d="M242.703 116.931C242.703 116.931 249.165 127.991 250.077 130.439C250.989 132.887 261.364 146.983 273.279 139.421C273.279 139.421 279.754 136.895 279.934 127.722L257.811 117.759C257.811 117.758 248.279 107.038 242.703 116.931Z" fill="#EAEFE8"/>
<path d="M266.124 142.182C266.123 142.182 266.123 142.182 266.122 142.182C256.996 142.182 250.216 132.666 249.452 130.615C248.571 128.249 242.192 117.349 242.127 117.239C242.008 117.034 242.006 116.796 242.122 116.589C243.817 113.583 246.044 112.065 248.742 112.065C253.26 112.065 257.498 116.434 258.21 117.204L280.207 127.112C280.451 127.222 280.605 127.467 280.6 127.734C280.421 136.859 274.327 139.646 273.585 139.959C271.184 141.471 268.674 142.182 266.124 142.182ZM243.475 116.931C244.585 118.838 249.861 127.891 250.702 130.15C251.382 131.974 257.817 140.848 266.123 140.848C266.123 140.848 266.124 140.848 266.124 140.848C268.435 140.848 270.722 140.197 272.921 138.801C272.958 138.778 272.996 138.787 273.037 138.771C273.278 138.675 278.9 136.362 279.253 128.133L257.537 118.36C257.452 118.321 257.375 118.269 257.313 118.199C257.27 118.15 252.99 113.404 248.743 113.404C246.657 113.404 244.886 114.591 243.475 116.931Z" fill="#161616"/>
<path d="M279.934 127.722L293.603 119.089C293.603 119.089 289.106 134.736 279.934 127.722Z" fill="#161616"/>
<path d="M279.675 128.33L295.811 127.336C295.811 127.337 284.342 138.892 279.675 128.33Z" fill="#161616"/>
<path d="M279.944 129.569L295.482 134.035C295.482 134.035 280.806 141.084 279.944 129.569Z" fill="#161616"/>
<path d="M246.709 113.101C246.709 113.101 244.24 107.038 246.709 107.218C249.178 107.398 250.415 109.376 250.415 109.376C250.415 109.376 253.132 106.841 254.033 107.839C254.934 108.837 252.437 113.678 252.437 113.678" fill="#946D42"/>
<path d="M270.221 148.851H265.691C265.323 148.851 265.024 148.553 265.024 148.184C265.024 147.816 265.323 147.517 265.691 147.517H269.154L265.333 139.671C265.171 139.34 265.309 138.941 265.64 138.78C265.972 138.618 266.37 138.756 266.532 139.087L270.821 147.892C270.921 148.099 270.909 148.343 270.787 148.538C270.665 148.733 270.451 148.851 270.221 148.851Z" fill="#161616"/>
<path d="M266.625 151.062C266.392 151.062 266.166 150.94 266.044 150.723C265.862 150.403 265.975 149.996 266.296 149.815L269.893 147.78C270.213 147.599 270.62 147.711 270.801 148.032C270.983 148.352 270.87 148.76 270.549 148.941L266.952 150.975C266.849 151.034 266.736 151.062 266.625 151.062Z" fill="#161616"/>
<path d="M251.247 124.792C251.247 124.792 253.972 125.776 255.362 124.214C256.751 122.651 255.515 119.931 255.515 119.931C255.515 119.931 258.477 120.518 260.183 118.827L257.811 117.759C257.811 117.759 248.279 107.038 242.703 116.931C242.703 116.931 246.985 124.26 249.069 128.306C249.895 127.944 251.496 126.954 251.247 124.792Z" fill="#EAEFE8"/>
<path d="M249.07 128.973C248.827 128.973 248.594 128.84 248.476 128.612C246.424 124.627 242.17 117.34 242.127 117.267C242.007 117.063 242.005 116.81 242.122 116.603C243.816 113.597 246.044 112.072 248.742 112.072C253.259 112.072 257.498 116.438 258.21 117.208L260.456 118.219C260.656 118.309 260.799 118.492 260.838 118.708C260.877 118.925 260.808 119.146 260.652 119.301C259.404 120.539 257.627 120.727 256.475 120.693C256.752 121.767 256.932 123.451 255.86 124.657C255.215 125.382 254.255 125.765 253.084 125.765C252.656 125.765 252.254 125.715 251.92 125.652C251.723 127.642 250.101 128.582 249.337 128.917C249.251 128.955 249.16 128.973 249.07 128.973ZM243.475 116.931C244.293 118.338 247.474 123.833 249.352 127.405C250.086 126.938 250.733 126.158 250.585 124.868C250.558 124.639 250.652 124.412 250.833 124.269C251.014 124.126 251.257 124.087 251.474 124.165C251.48 124.167 252.231 124.431 253.084 124.431C253.875 124.431 254.473 124.209 254.863 123.77C255.935 122.565 254.919 120.229 254.908 120.206C254.804 119.978 254.837 119.712 254.992 119.516C255.148 119.32 255.399 119.227 255.645 119.276C255.651 119.277 257.425 119.605 258.837 118.952L257.537 118.367C257.451 118.328 257.375 118.272 257.312 118.202C257.27 118.154 252.989 113.406 248.742 113.406C246.657 113.406 244.886 114.591 243.475 116.931Z" fill="#161616"/>
<path d="M260.183 118.827C260.183 118.827 258.889 130.283 265.634 132.869C272.379 135.456 274.898 125.578 274.898 125.578L260.183 118.827Z" fill="#EAEFE8"/>
<path d="M267.81 133.912H267.809C267.031 133.912 266.219 133.78 265.395 133.464C262.403 132.317 260.441 129.39 259.721 124.972C259.192 121.731 259.506 118.865 259.52 118.745C259.544 118.532 259.668 118.348 259.855 118.243C260.041 118.137 260.266 118.129 260.461 118.219L275.176 124.971C275.468 125.105 275.623 125.43 275.544 125.742C275.523 125.825 275.015 127.76 273.849 129.749C272.241 132.491 270.153 133.912 267.81 133.912ZM260.781 119.835C260.657 122.537 260.767 130.289 265.873 132.247C266.544 132.504 267.195 132.634 267.81 132.634C271.615 132.635 273.554 127.61 274.093 125.943L260.781 119.835Z" fill="#161616"/>
<path d="M242.703 116.931C242.703 116.931 240.365 117.82 239.825 120.523L244.128 119.393L242.703 116.931Z" fill="#161616"/>
<path d="M248.925 117C249.474 117 249.92 116.555 249.92 116.005C249.92 115.456 249.474 115.01 248.925 115.01C248.375 115.01 247.93 115.456 247.93 116.005C247.93 116.555 248.375 117 248.925 117Z" fill="#161616"/>
<path d="M228.888 147.546C228.888 147.546 233.97 152.988 238.544 150.436C243.118 147.885 243.118 140.53 238.544 140.226C233.97 139.922 237.358 149.748 228.888 147.546Z" fill="#8DC73F"/>
<path d="M236.481 154.319C236.113 154.319 235.814 154.021 235.814 153.653V151.252C235.814 150.883 236.113 150.585 236.481 150.585C236.849 150.585 237.148 150.883 237.148 151.252V153.653C237.148 154.021 236.849 154.319 236.481 154.319Z" fill="#161616"/>
<path d="M238.615 153.253C238.247 153.253 237.948 152.954 237.948 152.586V150.452C237.948 150.083 238.247 149.785 238.615 149.785C238.984 149.785 239.282 150.083 239.282 150.452V152.586C239.282 152.954 238.984 153.253 238.615 153.253Z" fill="#161616"/>
<path d="M241.382 142.178C241.382 142.178 244.55 143.218 244.72 145.297L241.636 144.853L241.382 142.178Z" fill="#161616"/>
<path d="M238.619 143.79C239.136 143.79 239.556 143.37 239.556 142.853C239.556 142.335 239.136 141.915 238.619 141.915C238.101 141.915 237.681 142.335 237.681 142.853C237.681 143.37 238.101 143.79 238.619 143.79Z" fill="#161616"/>
<path d="M217.961 131.028C217.961 131.028 223.043 136.47 227.618 133.919C232.191 131.367 232.191 124.013 227.618 123.709C223.043 123.405 226.432 133.231 217.961 131.028Z" fill="#8DC73F"/>
<path d="M225.544 137.781C225.176 137.781 224.877 137.482 224.877 137.114V134.713C224.877 134.344 225.176 134.046 225.544 134.046C225.912 134.046 226.211 134.344 226.211 134.713V137.114C226.211 137.482 225.912 137.781 225.544 137.781Z" fill="#161616"/>
<path d="M227.678 136.98C227.31 136.98 227.011 136.682 227.011 136.313V133.913C227.011 133.544 227.31 133.246 227.678 133.246C228.046 133.246 228.345 133.544 228.345 133.913V136.313C228.345 136.682 228.046 136.98 227.678 136.98Z" fill="#161616"/>
<path d="M230.455 125.661C230.455 125.661 233.623 126.7 233.793 128.78L230.709 128.335L230.455 125.661Z" fill="#161616"/>
<path d="M227.682 127.518C228.199 127.518 228.619 127.098 228.619 126.58C228.619 126.063 228.199 125.643 227.682 125.643C227.164 125.643 226.744 126.063 226.744 126.58C226.744 127.098 227.164 127.518 227.682 127.518Z" fill="#161616"/>
<path d="M330.972 108.707C331.11 109.538 330.548 110.323 329.718 110.461C328.887 110.599 328.102 110.037 327.964 109.206L316.191 38.2622C316.053 37.4315 316.615 36.6461 317.446 36.5085C318.276 36.3706 319.062 36.9324 319.199 37.7631L330.972 108.707Z" fill="#DEE5DC"/>
<path d="M329.466 111.148C328.391 111.148 327.482 110.377 327.306 109.315L315.533 38.3713C315.437 37.794 315.572 37.2135 315.913 36.7374C316.253 36.2612 316.759 35.9462 317.336 35.8507C317.455 35.8309 317.577 35.8208 317.697 35.8208C318.772 35.8208 319.681 36.592 319.857 37.654L331.63 108.598C331.828 109.79 331.019 110.921 329.827 111.119C329.707 111.138 329.586 111.148 329.466 111.148ZM317.697 37.1543C317.65 37.1543 317.602 37.1583 317.555 37.1661C317.329 37.2037 317.131 37.3272 316.997 37.5134C316.864 37.6996 316.812 37.9269 316.849 38.1525L328.621 109.097C328.698 109.559 329.141 109.881 329.608 109.803C330.075 109.725 330.391 109.283 330.314 108.816L318.541 37.8719C318.472 37.4563 318.117 37.1543 317.697 37.1543Z" fill="#161616"/>
<path d="M317.45 50.1105L321.754 49.2625C321.754 49.2625 321.915 29.0481 316.127 28.5087C310.337 27.9696 317.45 50.1105 317.45 50.1105Z" fill="#946D42"/>
<path d="M329.931 103.213C329.931 103.213 332.326 110.846 337.278 111.009C341.811 111.159 344.422 132.328 344.422 132.328C344.422 132.328 342.833 135.168 342.291 132.682C341.75 130.195 338.655 117.546 336.973 117.5C335.291 117.453 338.389 133.224 338.389 133.224C338.389 133.224 337.499 137.172 336.138 134.408C334.778 131.645 333.054 118.15 331.153 118.337C329.252 118.523 332.127 135.176 332.127 135.176C332.127 135.176 331.198 138.012 330.115 136.142C329.032 134.272 327.177 118.439 324.761 119.397C322.961 120.111 325.245 135.51 325.245 135.51C325.245 135.51 324.571 140.762 323.113 135.856C322.436 133.579 318.589 119.789 320.753 114.653C321.862 112.022 327.501 112.631 327.048 103.691L329.931 103.213Z" fill="white"/>
<path d="M324.271 138.617C323.413 138.617 322.932 137.59 322.474 136.047C321.989 134.414 317.802 119.939 320.139 114.394C320.567 113.378 321.479 112.796 322.445 112.178C324.427 110.912 326.674 109.476 326.383 103.725C326.366 103.386 326.605 103.089 326.94 103.034L329.823 102.555C330.15 102.5 330.468 102.696 330.568 103.013C330.591 103.085 332.882 110.197 337.301 110.343C340.3 110.442 342.104 116.801 343.201 121.575C344.413 126.859 345.078 132.193 345.084 132.246C345.101 132.387 345.074 132.568 345.004 132.692C344.716 133.208 343.943 134.446 343.003 134.446C343.003 134.446 343.003 134.446 343.003 134.446C342.534 134.446 341.918 134.139 341.64 132.862C340.059 125.601 338.092 119.996 337.159 118.523C336.939 120.518 337.894 127.253 339.043 133.105C339.061 133.196 339.104 133.285 339.083 133.375C338.901 134.183 338.249 136.059 337.182 136.059V136.058C336.115 136.058 335.749 135.038 335.584 134.704C335.025 133.567 334.44 130.982 333.788 127.988C333.192 125.246 332.11 120.33 331.308 119.189C330.831 120.935 331.657 128.498 332.79 135.063C332.808 135.17 332.798 135.28 332.764 135.384C332.605 135.867 332 137.447 330.882 137.447C330.364 137.447 329.912 137.12 329.539 136.476C329.134 135.777 328.744 133.917 328.089 130.691C327.616 128.357 327.079 125.712 326.49 123.597C325.74 120.911 325.215 120.236 325.019 120.07C324.492 121.122 324.67 127.084 325.904 135.412C325.913 135.473 325.914 135.534 325.906 135.595C325.649 137.601 325.098 138.617 324.271 138.617ZM327.737 104.253C327.87 110.294 325.159 112.027 323.163 113.302C322.309 113.848 321.635 114.279 321.368 114.912C320.517 116.93 320.571 120.837 321.524 126.21C322.362 130.935 323.612 135.197 323.752 135.667C323.949 136.329 324.113 136.734 324.233 136.98C324.363 136.613 324.496 136.051 324.571 135.514C324.482 134.898 323.978 131.354 323.664 127.78C322.985 120.053 323.747 119.082 324.515 118.778C324.664 118.719 324.817 118.689 324.972 118.689C326.732 118.689 327.718 122.149 329.396 130.426C329.878 132.805 330.377 135.263 330.692 135.808C330.778 135.956 330.846 136.037 330.889 136.08C331.048 135.94 331.286 135.525 331.44 135.118C330.796 131.36 328.976 119.913 330.357 118.099C330.598 117.783 330.887 117.693 331.088 117.673C331.123 117.669 331.157 117.668 331.192 117.668C332.64 117.668 333.43 120.174 335.069 127.704C335.649 130.368 336.249 133.124 336.736 134.114C336.895 134.436 337.018 134.596 337.09 134.672C337.284 134.451 337.551 133.821 337.706 133.209C337.57 132.505 336.965 129.323 336.478 126.042C335.327 118.293 335.942 117.546 336.237 117.187C336.425 116.959 336.684 116.833 336.965 116.833C337.745 116.854 338.716 117.426 340.698 123.983C341.812 127.667 342.715 131.491 342.943 132.54C342.99 132.756 343.039 132.892 343.077 132.973C343.255 132.835 343.522 132.515 343.731 132.184C343.592 131.121 342.956 126.471 341.898 121.865C339.742 112.481 337.8 111.694 337.256 111.676C332.657 111.524 330.168 105.8 329.486 103.963L327.737 104.253Z" fill="#161616"/>
<path d="M53.9851 64.8875C60.3549 64.8875 65.5186 59.7238 65.5186 53.354C65.5186 46.9842 60.3549 41.8204 53.9851 41.8204C47.6153 41.8204 42.4515 46.9842 42.4515 53.354C42.4515 59.7238 47.6153 64.8875 53.9851 64.8875Z" fill="#DEE5DC"/>
<path d="M54.4213 45.5747C59.0529 45.5747 62.8076 41.82 62.8076 37.1883C62.8076 32.5567 59.0529 28.802 54.4213 28.802C49.7896 28.802 46.0349 32.5567 46.0349 37.1883C46.0349 41.82 49.7896 45.5747 54.4213 45.5747Z" fill="#DEE5DC"/>
<path d="M54.3001 80.5608C54.2995 80.5608 54.299 80.5608 54.2985 80.5608C53.9301 80.5608 53.6324 80.2034 53.6332 79.835L53.7543 33.8317C53.7551 33.4641 54.0536 33.0779 54.4212 33.0779C54.4217 33.0779 54.4223 33.0779 54.4228 33.0779C54.7912 33.0779 55.0889 33.4385 55.0881 33.8067L54.967 79.8083C54.9662 80.1762 54.6677 80.5608 54.3001 80.5608Z" fill="#161616"/>
<path d="M54.2995 56.523C54.1934 56.523 54.0856 56.4974 53.9853 56.4438L47.7533 53.1075C47.4286 52.9338 47.3065 52.5294 47.4801 52.2047C47.6543 51.8798 48.0582 51.7579 48.3828 51.9316L54.6148 55.2679C54.9395 55.4416 55.0616 55.846 54.888 56.1706C54.7679 56.395 54.5375 56.523 54.2995 56.523Z" fill="#161616"/>
<path d="M54.4207 42.4868C54.27 42.4868 54.1182 42.4361 53.9933 42.3316C53.7106 42.0952 53.6732 41.6748 53.9096 41.3923L58.8121 35.529C59.0484 35.2462 59.4688 35.2083 59.7513 35.4452C60.0341 35.6815 60.0714 36.102 59.8351 36.3845L54.9326 42.2478C54.8008 42.4057 54.6114 42.4868 54.4207 42.4868Z" fill="#161616"/>
<path d="M114.388 240.33C114.336 240.33 114.284 240.324 114.231 240.312C113.873 240.225 113.653 239.864 113.74 239.506C113.788 239.307 114.961 234.545 118.256 228.487C121.299 222.892 126.799 215.129 135.723 209.913C136.041 209.727 136.449 209.835 136.635 210.152C136.821 210.47 136.714 210.879 136.396 211.065C119.814 220.755 115.081 239.631 115.035 239.82C114.962 240.125 114.689 240.33 114.388 240.33Z" fill="#161616"/>
<path d="M104.37 237.85C104.349 237.85 104.327 237.848 104.305 237.846C103.939 237.811 103.67 237.485 103.705 237.119C103.746 236.692 107.671 194.321 96.1469 181.595C95.8996 181.322 95.9204 180.901 96.1936 180.653C96.4667 180.406 96.8882 180.427 97.1355 180.7C102.161 186.25 105.016 197.471 105.618 214.051C106.064 226.325 105.043 237.138 105.033 237.246C105 237.591 104.71 237.85 104.37 237.85Z" fill="#161616"/>
<path d="M136.125 208.462C136.125 208.462 141.341 199.443 136.855 197.257C133.21 195.481 131.993 206.191 136.125 208.462Z" fill="#8DC73F"/>
<path d="M135.945 209.138C135.578 209.138 135.28 208.837 135.278 208.47L135.235 199.428C135.233 199.06 135.53 198.735 135.899 198.735C135.9 198.735 135.901 198.735 135.902 198.735C136.269 198.735 136.567 199.052 136.569 199.419L136.612 208.453C136.614 208.821 136.317 209.138 135.949 209.138C135.947 209.138 135.946 209.138 135.945 209.138Z" fill="#161616"/>
<path d="M125.612 217.651C125.612 217.651 129.113 207.839 124.306 206.499C120.4 205.41 121.137 216.164 125.612 217.651Z" fill="#8DC73F"/>
<path d="M125.434 218.351C125.12 218.351 124.84 218.128 124.779 217.807L123.108 208.944C123.039 208.583 123.277 208.234 123.639 208.165C124.001 208.098 124.35 208.335 124.418 208.697L126.09 217.56C126.158 217.922 125.92 218.271 125.558 218.339C125.517 218.347 125.475 218.351 125.434 218.351Z" fill="#161616"/>
<path d="M116.89 229.953C116.89 229.953 119.755 219.936 114.872 218.907C110.904 218.072 112.329 228.756 116.89 229.953Z" fill="#8DC73F"/>
<path d="M116.715 230.664C116.417 230.664 116.146 230.464 116.069 230.162L113.833 221.425C113.742 221.068 113.957 220.705 114.314 220.613C114.67 220.521 115.034 220.737 115.125 221.094L117.361 229.831C117.452 230.188 117.237 230.551 116.881 230.643C116.825 230.657 116.77 230.664 116.715 230.664Z" fill="#161616"/>
<path d="M139.788 209.051C139.788 209.051 150.155 210.087 150.298 205.098C150.414 201.045 140.154 204.349 139.788 209.051Z" fill="#8DC73F"/>
<path d="M139.715 209.554C139.462 209.554 139.22 209.409 139.108 209.164C138.955 208.83 139.102 208.434 139.437 208.281L147.636 204.525C147.971 204.37 148.367 204.518 148.52 204.853C148.673 205.188 148.526 205.584 148.191 205.737L139.992 209.493C139.902 209.534 139.808 209.554 139.715 209.554Z" fill="#161616"/>
<path d="M131.435 215.068C131.435 215.068 139.298 221.903 142.297 217.914C144.733 214.673 134.449 211.443 131.435 215.068Z" fill="#8DC73F"/>
<path d="M140.332 217.23C140.291 217.23 140.25 217.227 140.208 217.219L131.345 215.547C130.983 215.479 130.745 215.13 130.814 214.768C130.882 214.406 131.231 214.169 131.593 214.236L140.455 215.908C140.817 215.976 141.055 216.325 140.987 216.687C140.926 217.007 140.647 217.23 140.332 217.23Z" fill="#161616"/>
<path d="M121.198 227.64C121.198 227.64 130.65 232.021 132.422 227.356C133.862 223.565 123.086 223.319 121.198 227.64Z" fill="#8DC73F"/>
<path d="M121.181 228.128C120.841 228.128 120.551 227.87 120.518 227.524C120.483 227.158 120.751 226.832 121.118 226.797L130.096 225.94C130.464 225.906 130.788 226.174 130.824 226.54C130.858 226.907 130.59 227.233 130.223 227.268L121.245 228.125C121.223 228.127 121.202 228.128 121.181 228.128Z" fill="#161616"/>
<path d="M97.252 177.851C97.252 177.851 106.087 167.057 100.629 163.202C96.1948 160.071 92.2796 173.961 97.252 177.851Z" fill="#8DC73F"/>
<path d="M97.0151 178.479C96.9807 178.479 96.9455 178.477 96.9103 178.471C96.5465 178.414 96.2981 178.072 96.3557 177.708L98.2404 165.781C98.2977 165.418 98.6373 165.171 99.003 165.227C99.3669 165.284 99.6152 165.626 99.5576 165.99L97.673 177.917C97.6212 178.245 97.3377 178.479 97.0151 178.479Z" fill="#161616"/>
<path d="M104.991 196.216C104.991 196.216 116.93 191.29 114.171 185.753C111.929 181.255 102.643 190.862 104.991 196.216Z" fill="#8DC73F"/>
<path d="M104.814 196.746C104.673 196.746 104.531 196.702 104.41 196.61C104.117 196.387 104.06 195.969 104.283 195.676L111.052 186.778C111.275 186.485 111.694 186.428 111.987 186.651C112.28 186.874 112.337 187.293 112.114 187.586L105.345 196.483C105.214 196.656 105.015 196.746 104.814 196.746Z" fill="#161616"/>
<path d="M106.98 220.749C106.98 220.749 118.919 215.823 116.16 210.285C113.918 205.787 104.632 215.395 106.98 220.749Z" fill="#8DC73F"/>
<path d="M106.803 221.279C106.662 221.279 106.52 221.235 106.4 221.143C106.106 220.92 106.05 220.502 106.273 220.209L113.042 211.311C113.264 211.018 113.683 210.961 113.976 211.184C114.269 211.407 114.326 211.826 114.103 212.119L107.334 221.016C107.203 221.189 107.004 221.279 106.803 221.279Z" fill="#161616"/>
<path d="M94.8792 179.702C94.8792 179.702 82.0473 178.24 83.1813 172.158C84.1035 167.218 95.6685 173.91 94.8792 179.702Z" fill="#8DC73F"/>
<path d="M95.0116 180.19C94.8726 180.19 94.7323 180.146 94.6126 180.056L85.6626 173.357C85.3678 173.136 85.3075 172.718 85.5284 172.424C85.7493 172.129 86.1673 172.068 86.462 172.289L95.412 178.989C95.7068 179.209 95.7671 179.627 95.5462 179.922C95.415 180.097 95.2146 180.19 95.0116 180.19Z" fill="#161616"/>
<path d="M99.9108 191.335C99.9108 191.335 87.1755 193.482 86.5819 187.323C86.1002 182.321 99.0657 185.55 99.9108 191.335Z" fill="#8DC73F"/>
<path d="M99.9881 191.792C99.9096 191.792 99.8299 191.778 99.752 191.749L89.2972 187.789C88.9528 187.658 88.7794 187.273 88.9099 186.929C89.0403 186.585 89.425 186.411 89.7699 186.541L100.225 190.502C100.569 190.632 100.742 191.017 100.612 191.362C100.511 191.628 100.257 191.792 99.9881 191.792Z" fill="#161616"/>
<path d="M103.226 207.911C103.226 207.911 90.4905 210.058 89.897 203.9C89.4152 198.897 102.381 202.127 103.226 207.911Z" fill="#8DC73F"/>
<path d="M103.303 208.369C103.225 208.369 103.145 208.354 103.067 208.325L92.6129 204.365C92.2685 204.234 92.0951 203.849 92.2255 203.505C92.356 203.161 92.7415 202.987 93.0856 203.117L103.54 207.078C103.884 207.208 104.058 207.593 103.927 207.938C103.826 208.204 103.573 208.369 103.303 208.369Z" fill="#161616"/>
<path d="M102.526 226.568C102.526 226.568 93.9251 228.018 93.5238 223.859C93.1987 220.481 101.955 222.662 102.526 226.568Z" fill="#8DC73F"/>
<path d="M102.578 227.094C102.5 227.094 102.42 227.08 102.342 227.051L95.2815 224.376C94.9371 224.245 94.7637 223.86 94.8941 223.516C95.0248 223.172 95.41 222.999 95.7542 223.128L102.815 225.803C103.159 225.934 103.333 226.319 103.202 226.663C103.101 226.93 102.848 227.094 102.578 227.094Z" fill="#161616"/>
<path d="M298.983 166.513L334.051 167.021L336.735 200.316C336.735 200.316 337.116 205.906 332.542 205.906C327.968 205.906 298.983 206.033 298.983 206.033C298.983 206.033 293.283 204.127 294.045 199.935C294.807 195.742 298.983 166.513 298.983 166.513Z" fill="#EAEFE8"/>
<path d="M298.983 206.737C298.911 206.737 298.84 206.707 298.771 206.684C298.709 206.664 297.227 206.152 295.827 205.099C293.872 203.628 293.029 201.799 293.389 199.82C294.14 195.688 298.281 166.752 298.323 166.46C298.37 166.131 298.651 165.923 298.983 165.923C298.986 165.923 298.989 165.923 298.993 165.923L334.06 166.393C334.404 166.398 334.688 166.644 334.715 166.987L337.399 200.272C337.408 200.407 337.592 203.405 335.887 205.23C335.052 206.125 333.926 206.594 332.542 206.594C328.022 206.594 299.276 206.737 298.986 206.737C298.985 206.737 298.984 206.737 298.983 206.737ZM299.56 167.188C298.967 171.328 295.397 196.226 294.701 200.054C294.1 203.36 298.391 205.103 299.097 205.366C301.118 205.357 328.166 205.239 332.542 205.239C333.554 205.239 334.328 204.938 334.909 204.318C336.219 202.921 336.071 200.386 336.069 200.36L333.435 167.679L299.56 167.188Z" fill="#161616"/>
<path d="M294.045 199.935C293.283 204.127 298.983 206.033 298.983 206.033C298.983 206.033 327.968 205.906 332.542 205.906C337.116 205.906 336.735 200.316 336.735 200.316C315.297 186.219 294.045 199.935 294.045 199.935Z" fill="#B2BCAF"/>
<path d="M298.983 206.737C298.911 206.737 298.84 206.707 298.771 206.684C298.709 206.664 297.227 206.152 295.827 205.099C293.872 203.628 293.029 201.799 293.389 199.82C293.455 199.458 293.802 199.215 294.165 199.281C294.527 199.347 294.767 199.693 294.701 200.056C294.102 203.35 298.392 205.102 299.098 205.367C301.125 205.358 328.167 205.24 332.541 205.24C333.553 205.24 334.328 204.938 334.909 204.318C336.218 202.921 336.07 200.386 336.069 200.36C336.045 199.993 336.323 199.676 336.69 199.651C337.06 199.628 337.375 199.904 337.4 200.271C337.408 200.398 337.592 203.4 335.887 205.225C335.051 206.12 333.926 206.592 332.541 206.592C328.021 206.592 299.276 206.737 298.986 206.737C298.985 206.737 298.984 206.737 298.983 206.737Z" fill="#161616"/>
<path d="M347.011 195.534H336.338C335.992 195.534 335.703 195.269 335.673 194.924L335.258 190.122C335.242 189.936 335.305 189.752 335.431 189.614C335.558 189.477 335.736 189.398 335.923 189.398H341.51L334.658 181.272C334.568 181.166 334.514 181.035 334.503 180.896L333.877 173.196C333.853 172.905 334.022 172.633 334.293 172.524C334.564 172.414 334.875 172.495 335.059 172.721L347.522 188.017C347.539 188.038 347.555 188.06 347.569 188.082C347.649 188.209 349.521 191.206 348.905 193.508C348.674 194.371 348.141 195.027 347.321 195.458C347.225 195.507 347.118 195.534 347.011 195.534ZM336.949 194.2H346.835C347.24 193.951 347.496 193.611 347.616 193.164C347.998 191.745 346.932 189.585 346.462 188.827L335.381 175.227L335.816 180.576L343.455 189.635C343.622 189.833 343.659 190.111 343.549 190.346C343.44 190.581 343.204 190.732 342.945 190.732H336.65L336.949 194.2Z" fill="#161616"/>
<path d="M321.342 187.849C321.137 187.849 320.935 187.755 320.804 187.577C320.586 187.281 320.649 186.863 320.945 186.645C327.76 181.625 330.082 169.42 328.627 163.55C328.361 162.475 327.719 160.642 326.413 160.446C321.56 159.718 316.773 166.81 316.725 166.882C316.521 167.188 316.107 167.271 315.801 167.067C315.494 166.863 315.411 166.45 315.615 166.143C315.829 165.821 320.923 158.275 326.611 159.127C327.698 159.29 329.156 160.134 329.922 163.229C331.499 169.594 329.094 182.298 321.736 187.718C321.617 187.806 321.479 187.849 321.342 187.849Z" fill="#161616"/>
<path d="M279.485 175.627C277.777 175.627 275.769 175.163 273.337 174.062C273.002 173.91 272.853 173.515 273.005 173.179C273.157 172.844 273.553 172.696 273.888 172.847C281.665 176.367 284.358 172.863 287.768 168.428C289.332 166.393 290.95 164.289 293.212 162.656C295.241 161.192 297.387 160.636 299.592 161.002C304.087 161.748 307.188 166.057 307.317 166.24C307.53 166.541 307.459 166.957 307.159 167.17C306.858 167.383 306.442 167.312 306.23 167.012C306.201 166.972 303.31 162.967 299.367 162.316C297.528 162.013 295.72 162.491 293.993 163.738C291.889 165.256 290.331 167.282 288.826 169.241C286.321 172.499 283.916 175.627 279.485 175.627Z" fill="#161616"/>
<path d="M324.452 182.715C324.452 182.715 315.993 188.616 319.675 198.117C319.675 198.117 329.383 194.985 324.452 182.715Z" fill="#8DC73F"/>
<path d="M271.43 164.795C271.43 164.795 277.165 173.368 286.736 169.871C286.736 169.871 283.793 160.104 271.43 164.795Z" fill="#8DC73F"/>
<path d="M291.964 164.991C291.964 164.991 283.872 171.388 288.117 180.652C288.117 180.652 297.619 176.944 291.964 164.991Z" fill="#8DC73F"/>
<path d="M311.954 175.855C311.954 175.855 320.627 181.44 328.017 174.424C328.017 174.424 321.432 166.634 311.954 175.855Z" fill="#8DC73F"/>
<path d="M329.117 169.909C329.117 169.909 324.922 179.332 332.983 185.565C332.983 185.565 339.677 177.868 329.117 169.909Z" fill="#8DC73F"/>
<path d="M300.075 161.468C300.075 161.468 296.337 154.249 288.535 156.146C288.535 156.146 289.981 164.053 300.075 161.468Z" fill="#8DC73F"/>
<path d="M335.89 164.307C335.89 164.307 333.573 158.823 327.768 159.763C327.768 159.763 328.372 165.619 335.89 164.307Z" fill="#8DC73F"/>
<path d="M317.266 164.711C319.549 164.711 321.401 162.859 321.401 160.575C321.401 158.291 319.549 156.44 317.266 156.44C314.982 156.44 313.13 158.291 313.13 160.575C313.13 162.859 314.982 164.711 317.266 164.711Z" fill="#946D42"/>
<path d="M325.802 156.488C328.111 156.488 329.984 154.615 329.984 152.306C329.984 149.996 328.111 148.124 325.802 148.124C323.492 148.124 321.62 149.996 321.62 152.306C321.62 154.615 323.492 156.488 325.802 156.488Z" fill="#946D42"/>
</svg>
