<svg width="1453" height="712" viewBox="0 0 1453 712" fill="none" xmlns="http://www.w3.org/2000/svg">
<path d="M278.492 425.927L127.344 582.1L64.7744 641.994C41.3311 664.436 57.2153 704 89.6683 704H1241.48C1271.42 704 1288.28 669.576 1269.92 645.925L998.41 296.172L774.314 51.5034C759.55 35.3847 733.947 36.0344 720.02 52.8812L397.813 442.642C382.452 461.224 353.524 459.749 340.132 439.702L334.296 430.966C321.55 411.887 294.449 409.439 278.492 425.927Z" fill="#BCF4A1" fill-opacity="0.76"/>
<path d="M731 435.762C535.8 386.162 340.333 593.762 267 703.762H1437C1437 513.683 1440.2 134.372 1453 137.762C1366.6 108.962 1281 179.096 1249 217.762C1157.67 311.096 926.2 485.362 731 435.762Z" fill="#AEEC91"/>
<path d="M629.104 256.744C623.104 264.344 616.604 283.244 614.104 291.744C614.104 316.544 631.438 300.744 640.104 289.744L643.604 262.244C648.804 263.444 657.104 259.077 660.604 256.744C667.104 241.744 652.938 248.244 642.604 252.744C660.204 242.744 652.938 240.244 647.104 240.244C643.604 242.577 635.104 249.144 629.104 256.744Z" fill="#FEFFFA" stroke="black"/>
<path d="M533.604 270.244C536.938 263.577 545.104 247.644 551.104 237.244C545.604 228.577 537.904 211.344 551.104 211.744C552.1 213.336 553.653 216.842 554.659 221.707C554.705 216.386 555.645 211.744 558.604 211.744C563.804 211.744 565.104 228.744 565.104 237.244C563.938 247.244 561.004 269.244 558.604 277.244C555.604 287.244 533.604 291.244 533.604 270.244Z" fill="#FEFFFA"/>
<path d="M533.604 270.244C536.938 263.577 545.104 247.644 551.104 237.244C545.604 228.577 537.904 211.344 551.104 211.744C552.771 214.411 556.004 222.444 555.604 233.244C554.438 226.077 553.404 211.744 558.604 211.744C563.804 211.744 565.104 228.744 565.104 237.244C563.938 247.244 561.004 269.244 558.604 277.244C555.604 287.244 533.604 291.244 533.604 270.244Z" stroke="black"/>
<path d="M558.104 238.244L546.604 281.744L558.104 278.744L565.104 243.744L558.104 238.244Z" fill="#C2C4D1" fill-opacity="0.51"/>
<path d="M638.104 262.244L630.104 293.244L640.104 291.244L644.104 262.244H638.104Z" fill="#DFE1E5"/>
<path d="M581.604 484.244C545.204 507.844 506.438 486.411 491.604 472.744C477.204 474.344 470.604 480.077 469.104 482.744C469.104 484.744 466.438 487.244 465.104 488.244C462.604 488.244 457.104 487.144 455.104 482.744C453.104 478.344 440.938 467.244 435.104 462.244C411.104 439.244 429.604 441.244 433.104 440.744C435.904 440.344 451.604 456.911 459.104 465.244C457.437 454.911 457.104 432.744 469.104 426.744C479.45 421.571 489.549 429.902 494.913 436.676L492.104 432.744C497.704 419.944 508.104 404.744 512.604 399.744C512.204 388.944 515.437 385.911 517.104 385.744C502.304 377.744 499.604 370.077 500.104 367.244L496.104 370.244C489.704 361.844 491.771 351.744 493.604 347.744L489.604 349.244C489.518 345.781 489.976 342.755 490.805 340.126C491.42 337.859 492.318 335.721 493.604 334.273C497.297 328.766 502.703 326.044 506.104 325.244H500.104C500.104 319.744 510.437 317.911 514.604 317.744C517.804 309.744 526.604 299.744 530.604 295.744C529.437 295.744 522.904 294.644 506.104 290.244C485.104 284.744 470.104 265.244 461.104 255.244C453.904 247.244 439.104 237.244 432.604 233.244C425.404 216.444 454.604 223.244 470.104 228.744C500.504 235.144 531.771 267.744 543.604 283.244C586.104 264.744 611.438 285.91 618.104 299.244C625.704 288.844 678.604 285.744 704.604 285.744C752.104 292.244 747.104 305.744 742.604 305.744C739.004 305.744 724.771 307.077 718.104 307.744C715.271 307.577 705.804 309.344 690.604 317.744C675.404 326.144 645.938 324.577 633.104 322.744C633.904 329.944 628.771 342.744 626.104 348.244C642.904 356.644 643.104 362.744 641.104 364.744L637.104 362.244C644.704 384.244 640.938 386.41 638.104 384.744L637.104 379.744C635.104 393.744 629.938 397.91 627.604 398.244L626.104 395.244C621.304 405.244 609.104 407.744 603.604 407.744C602.404 413.344 598.644 417.744 596.913 419.244C600.813 432.626 599.506 450.696 598.104 459.244C603.304 453.644 615.271 452.911 620.604 453.244C638.604 459.244 633.438 483.411 628.604 494.744C633.004 490.744 646.771 490.411 653.104 490.744C664.704 497.544 655.271 503.577 649.104 505.744C632.304 506.544 618.104 513.744 613.104 517.244H606.604V502.744C603.004 489.944 588.438 485.077 581.604 484.244Z" fill="#FDFFFC"/>
<path d="M596.913 419.244C600.813 432.626 599.506 450.696 598.104 459.244C603.304 453.644 615.271 452.911 620.604 453.244C638.604 459.244 633.438 483.411 628.604 494.744C633.004 490.744 646.771 490.411 653.104 490.744C664.704 497.544 655.271 503.577 649.104 505.744C632.304 506.544 618.104 513.744 613.104 517.244H606.604V502.744C603.004 489.944 588.438 485.077 581.604 484.244C545.204 507.844 506.438 486.411 491.604 472.744C477.204 474.344 470.604 480.077 469.104 482.744C469.104 484.744 466.438 487.244 465.104 488.244C462.604 488.244 457.104 487.144 455.104 482.744C453.104 478.344 440.938 467.244 435.104 462.244C411.104 439.244 429.604 441.244 433.104 440.744C435.904 440.344 451.604 456.911 459.104 465.244C457.437 454.911 457.104 432.744 469.104 426.744C481.104 420.744 492.771 432.911 497.104 439.744L492.104 432.744C497.704 419.944 508.104 404.744 512.604 399.744C512.204 388.944 515.437 385.911 517.104 385.744C502.304 377.744 499.604 370.077 500.104 367.244L496.104 370.244C489.704 361.844 491.771 351.744 493.604 347.744L489.604 349.244M596.913 419.244C596.175 416.71 595.25 414.345 594.104 412.244L596.913 419.244ZM596.913 419.244C598.644 417.744 602.404 413.344 603.604 407.744M603.604 407.744C598.251 406.144 597.707 405.41 598.104 405.244L603.604 407.744ZM603.604 407.744C609.104 407.744 621.304 405.244 626.104 395.244L627.604 398.244C629.938 397.91 635.104 393.744 637.104 379.744L638.104 384.744C640.938 386.41 644.704 384.244 637.104 362.244L641.104 364.744C643.104 362.744 642.904 356.644 626.104 348.244M626.104 348.244C628.771 342.744 633.904 329.944 633.104 322.744M626.104 348.244C626.23 341.096 626.223 327.889 625.53 319.744M624.604 313.744C625 314.932 625.302 317.064 625.53 319.744M633.104 322.744L625.53 319.744M633.104 322.744C645.938 324.577 675.404 326.144 690.604 317.744C705.804 309.344 715.271 307.577 718.104 307.744C724.771 307.077 739.004 305.744 742.604 305.744C747.104 305.744 752.104 292.244 704.604 285.744C678.604 285.744 625.704 288.844 618.104 299.244C611.438 285.91 586.104 264.744 543.604 283.244C531.771 267.744 500.504 235.144 470.104 228.744C454.604 223.244 425.404 216.444 432.604 233.244C439.104 237.244 453.904 247.244 461.104 255.244C470.104 265.244 485.104 284.744 506.104 290.244C522.904 294.644 529.437 295.744 530.604 295.744C526.604 299.744 517.804 309.744 514.604 317.744C510.437 317.911 500.104 319.744 500.104 325.244H506.104C502.703 326.044 497.297 328.766 493.604 334.273M489.604 349.244C489.444 342.847 491.144 337.942 493.604 334.273M489.604 349.244C489.604 345.755 490.404 337.875 493.604 334.273" stroke="black"/>
<path d="M597.604 459.744H593.604C592.804 459.744 589.604 423.411 588.104 405.244C598.938 402.911 620.804 395.444 621.604 384.244C622.438 386.744 624.704 390.544 627.104 385.744C629.504 380.944 630.771 375.411 631.104 373.244C632.938 374.577 636.804 376.444 637.604 373.244C638.404 370.044 638.604 368.244 638.604 367.744C640.104 371.077 642.804 378.544 641.604 381.744C640.438 384.411 637.904 387.844 637.104 380.244C636.438 384.577 634.304 393.844 631.104 396.244C627.104 399.244 626.604 397.244 626.104 394.744C624.104 398.911 617.704 407.244 608.104 407.244C606.462 407.244 603.526 407.115 601.137 406.686C601.999 407.048 602.881 407.428 603.604 407.744C602.938 410.577 600.704 416.744 597.104 418.744L594.859 414.254C597.257 419.372 600.684 429.666 599.604 439.744L597.604 459.744Z" fill="#D2D7DB"/>
<path d="M625.104 495.244L627.604 458.744C637.204 465.144 631.604 485.744 627.604 495.244H625.104Z" fill="#D2D7DB"/>
<path d="M449.104 238.744L460.104 253.744C476.104 277.344 498.771 288.244 508.104 290.744C506.937 290.244 504.404 288.744 503.604 286.744C502.804 284.744 514.271 285.911 520.104 286.744C517.437 286.244 511.304 284.844 508.104 283.244C504.104 281.244 503.604 278.244 508.104 278.244C512.604 278.244 523.604 284.744 521.604 283.244C520.004 282.044 516.604 279.411 515.104 278.244C513.937 276.577 512.104 273.044 514.104 272.244C516.104 271.444 522.937 277.577 526.104 280.744C520.504 263.944 504.437 253.411 497.104 250.244C490.937 249.077 475.204 244.844 461.604 237.244C448.004 229.644 447.604 235.077 449.104 238.744Z" fill="#E97A5E" stroke="black"/>
<path d="M456.604 239.744C463.004 242.544 501.271 260.577 519.604 269.244C518.438 265.911 512.504 257.544 498.104 250.744C487.604 247.911 464.904 240.944 458.104 235.744C454.104 233.244 446.804 230.544 449.604 239.744C449.271 238.577 450.204 236.944 456.604 239.744Z" fill="#AC5136"/>
<path d="M630.604 309.744C635.104 303.744 649.084 294.744 674.104 294.744C702.104 294.744 707.604 294.244 725.604 302.244C721.771 303.244 713.704 305.944 712.104 308.744C704.771 311.41 688.004 317.744 679.604 321.744C671.204 325.744 645.438 323.41 633.604 321.744C639.938 322.41 652.904 323.144 654.104 320.744C655.232 318.489 649.014 316.799 644.582 316.311C641.824 316.487 639.852 316.452 641.104 316.244C641.849 316.12 643.118 316.15 644.582 316.311C648.432 316.065 653.813 315.409 654.104 314.244C654.577 312.356 650.147 310.468 639.134 311.524C634.395 312.349 631.445 312.423 637.104 311.744C637.804 311.66 638.481 311.587 639.134 311.524C644.86 310.527 653.199 308.433 652.104 305.244C650.504 300.582 637.104 306.301 630.604 309.744Z" fill="#E97A5E"/>
<path d="M630.604 309.744C635.104 303.744 649.084 294.744 674.104 294.744C702.104 294.744 707.604 294.244 725.604 302.244C721.771 303.244 713.704 305.944 712.104 308.744C704.771 311.41 688.004 317.744 679.604 321.744C671.204 325.744 645.438 323.41 633.604 321.744C639.938 322.41 652.904 323.144 654.104 320.744C655.604 317.744 644.104 315.744 641.104 316.244C638.104 316.744 653.604 316.244 654.104 314.244C654.604 312.244 649.604 310.244 637.104 311.744C624.604 313.244 654.104 311.071 652.104 305.244C650.504 300.582 637.104 306.301 630.604 309.744Z" stroke="black"/>
<path d="M674.604 300.244C699.004 299.044 712.771 302.744 717.104 304.744L722.104 302.494L725.104 302.244L722.604 301.244L708.604 296.244L691.604 295.244H671.104L660.354 296.244L648.104 298.744L637.604 303.744L632.104 308.744C634.604 307.744 650.204 301.444 674.604 300.244Z" fill="#AC5136"/>
<path d="M494.115 347.215L490.115 348.715C490.028 345.252 490.487 342.226 491.316 339.597C491.93 337.33 492.829 335.192 494.115 333.744C493.615 337.392 494.015 343.592 499.615 339.215C498.615 347.882 498.115 362.615 504.115 352.215C504.115 357.549 506.615 369.715 516.615 375.715C526.615 381.715 527.115 386.549 526.115 388.215C525.282 388.882 523.315 390.215 522.115 390.215L513.115 399.215C512.715 388.415 515.948 385.382 517.615 385.215C502.815 377.215 500.115 369.549 500.615 366.715L496.615 369.715C490.215 361.315 492.282 351.215 494.115 347.215Z" fill="#D2D7DB"/>
<path d="M528.604 520.244C523.404 527.044 519.438 526.411 518.104 525.244V528.744L525.104 529.744L529.604 524.244C531.438 520.078 533.804 513.444 528.604 520.244Z" fill="#C4C4C4"/>
<path d="M543.604 520.744C540.004 531.944 534.104 526.744 531.604 522.744L530.604 526.744L537.104 532.244L544.604 530.744L546.604 526.244C547.104 519.744 547.204 509.544 543.604 520.744Z" fill="#C4C4C4"/>
<path d="M507.105 514.744C504.854 501.244 521.271 495.411 528.105 493.744C534.105 497.744 546.605 497.077 552.105 496.244C562.505 506.644 561.105 515.577 559.105 518.744C552.226 525.623 548.158 522.359 546.232 518.218C547.78 524.276 547.699 532.244 539.105 532.244C532.528 532.244 530.403 527.578 530.152 522.673C528.861 527.687 526.063 531.843 520.605 529.244C513.595 525.906 515.847 518.623 518.818 513.785C514.405 518.525 507.539 517.354 507.105 514.744Z" fill="#FDFFFC"/>
<path d="M528.105 493.744C521.271 495.411 504.854 501.244 507.105 514.744C507.605 517.744 516.605 518.844 520.605 511.244C517.105 515.577 512.205 525.244 520.605 529.244C529.005 533.244 531.105 521.244 531.105 514.744C529.438 520.577 528.705 532.244 539.105 532.244C549.505 532.244 547.438 520.577 545.105 514.744C546.105 519.744 550.305 527.544 559.105 518.744C561.105 515.577 562.505 506.644 552.105 496.244C546.605 497.077 534.105 497.744 528.105 493.744Z" stroke="black"/>
<path d="M549.604 499.744C539.604 503.744 528.438 499.077 524.104 496.244L528.104 493.744L534.604 496.244L552.604 496.744L559.604 505.744C563.604 518.944 555.271 522.244 550.604 522.244C549.104 520.911 546.404 518.344 547.604 518.744C548.804 519.144 551.104 517.911 552.104 517.244C556.904 513.244 552.438 503.911 549.604 499.744Z" fill="#C4C4C4"/>
<path d="M561.105 393.244C543.905 392.044 541.271 359.411 542.105 342.744L542.855 340.119L545.105 340.744C551.604 360.744 562.604 363.744 574.104 365.744C583.304 367.344 592.604 358.744 596.104 354.244L595.104 358.244C583.504 391.844 567.605 395.577 561.105 393.244Z" fill="#270E21"/>
<path d="M596.104 354.244L595.104 358.244C583.504 391.844 567.605 395.577 561.105 393.244C543.905 392.044 541.271 359.411 542.105 342.744L542.855 340.119M596.104 354.244C592.604 358.744 583.304 367.344 574.104 365.744C562.604 363.744 551.604 360.744 545.105 340.744L542.855 340.119M596.104 354.244L593.604 351.744C595.271 353.244 599.604 355.644 603.604 357.244M536.104 338.244L540.605 339.494L542.855 340.119" stroke="black"/>
<path d="M567.605 375.244C559.205 375.644 559.438 367.411 560.605 363.244L561.604 362.244C563.204 364.244 572.938 365.744 577.604 366.244C577.771 369.077 576.005 374.844 567.605 375.244Z" fill="#FBF9FC" stroke="black"/>
<path d="M547.104 378.394C553.104 377.061 563.104 376.395 571.604 390.894C565.938 394.227 553.104 396.393 547.104 378.394Z" fill="#EF795F" stroke="black"/>
<path d="M605.222 334.401C604.417 338.472 602.488 341.9 600.042 344.155C597.596 346.411 594.667 347.472 591.822 346.91C588.977 346.348 586.672 344.251 585.268 341.235C583.865 338.218 583.385 334.314 584.19 330.243C584.994 326.172 586.924 322.745 589.37 320.489C591.815 318.234 594.745 317.173 597.59 317.735C600.434 318.297 602.74 320.393 604.143 323.41C605.547 326.427 606.027 330.331 605.222 334.401Z" fill="#000201" stroke="black"/>
<path d="M571.105 352.744C569.905 351.544 566.938 346.578 565.605 344.244C564.597 341.979 565.386 340.518 566.525 339.664C567.607 338.852 569.11 339.59 570.295 340.243C571.687 341.012 573.532 341.53 574.605 341.744C580.605 340.944 580.438 344.411 579.605 346.244C577.271 348.911 572.305 353.944 571.105 352.744Z" fill="#F05E3E"/>
<path d="M590.604 346.744C591.004 342.344 596.438 326.244 599.104 318.744C602.704 318.744 604.938 325.077 605.604 328.244C606.104 329.411 606.204 333.544 602.604 340.744C599.004 347.944 593.104 347.744 590.604 346.744Z" fill="#461823" stroke="black"/>
<path d="M562.104 289.244C566.271 285.578 575.604 280.744 578.104 296.244" stroke="black"/>
<path d="M593.104 300.244C598.104 295.078 608.904 288.344 612.104 302.744" stroke="black"/>
<path d="M568.608 328.077C567.804 332.148 565.874 335.575 563.428 337.831C560.983 340.087 558.053 341.148 555.208 340.586C552.364 340.023 550.058 337.927 548.655 334.91C547.251 331.894 546.771 327.99 547.576 323.919C548.381 319.848 550.31 316.421 552.756 314.165C555.202 311.909 558.131 310.848 560.976 311.411C563.821 311.973 566.126 314.069 567.53 317.086C568.933 320.102 569.413 324.006 568.608 328.077Z" fill="#000201" stroke="black"/>
<path d="M557.104 340.244C561.904 329.044 562.438 316.911 562.604 312.244C565.104 313.077 569.804 317.244 568.604 327.244C567.404 337.244 560.771 339.744 557.104 340.244Z" fill="#461823" stroke="black"/>
<ellipse cx="565.604" cy="324.244" rx="1.5" ry="3.5" transform="rotate(7.38319 565.604 324.244)" fill="white"/>
<ellipse cx="602.042" cy="329.408" rx="1.5" ry="3.5" transform="rotate(7.38319 602.042 329.408)" fill="white"/>
<path d="M922.104 710.744H936.104C936.104 572.343 922.104 452.077 915.104 409.244C915.604 390.744 884.104 288.744 864.104 247.744C844.104 206.744 797.604 163.744 739.604 147.244C693.204 134.044 661.604 146.411 651.604 154.244L641.604 160.244C638.604 165.577 638.004 172.544 659.604 157.744C681.204 142.944 721.937 149.244 739.604 154.244C836.104 186.744 866.104 242.744 899.104 384.744C925.504 498.344 925.437 649.41 922.104 710.744Z" fill="#7F9E1F" stroke="#B5C046" stroke-width="2"/>
<path d="M675.104 204.744C675.104 257.244 650.104 263.744 610.104 263.744C574.604 261.244 545.104 238.434 545.104 204.744C545.104 165.244 568.604 143.744 610.104 143.744C646.003 143.744 675.104 171.055 675.104 204.744Z" fill="#DE1304"/>
<ellipse cx="600.104" cy="160.744" rx="15" ry="9" fill="url(#paint0_radial_102_2)"/>
<ellipse cx="575.604" cy="170.244" rx="5.5" ry="3.5" transform="rotate(-27.7303 575.604 170.244)" fill="url(#paint1_radial_102_2)"/>
<path d="M589.604 233.244C560.804 230.044 552.271 198.244 551.604 182.744C547.604 185.944 546.937 200.078 547.104 206.744C547.104 210.577 548.704 221.644 555.104 235.244C561.504 248.844 582.437 258.577 592.104 261.744C605.704 268.144 631.437 265.077 642.604 263.244C648.271 261.244 661.504 253.544 669.104 238.744C676.704 223.944 674.937 200.244 673.104 190.244L659.604 162.244C659.271 161.744 659.204 165.344 661.604 183.744C664.004 202.144 648.604 218.411 640.604 224.244C635.604 228.578 618.404 236.444 589.604 233.244Z" fill="url(#paint2_linear_102_2)"/>
<path d="M1249.1 377.744C1256.1 376.077 1273.6 368.344 1287.6 350.744" stroke="#606314" stroke-width="2"/>
<path d="M1373.1 349.744L1359.6 364.744C1349.77 371.077 1329.5 384.044 1327.1 385.244C1324.7 386.444 1320.1 386.744 1318.1 386.744" stroke="#707229" stroke-width="2"/>
<path d="M1360.6 378.744C1368.27 373.411 1389.1 361.344 1411.1 355.744" stroke="#707229" stroke-width="2"/>
<path d="M647.604 125.744C645.604 133.344 648.437 146.577 650.104 152.244L649.104 156.244L645.104 152.244C640.938 149.911 633.104 142.944 635.104 133.744C637.104 124.544 644.271 124.577 647.604 125.744Z" fill="#CCDB4E"/>
<path d="M614.604 148.244C603.004 148.644 600.771 141.077 601.104 137.244C605.904 142.844 610.437 142.911 612.104 142.244C624.504 139.844 634.604 143.244 638.104 145.244C643.104 148.577 654.404 156.044 659.604 159.244C666.104 163.244 669.604 169.244 671.604 174.244C673.604 179.244 675.104 197.244 674.104 192.744C673.304 189.144 669.104 185.577 667.104 184.244C666.437 183.744 664.904 181.044 664.104 174.244C663.304 167.444 654.771 161.411 650.604 159.244L644.104 153.744C639.104 151.744 626.204 147.844 614.604 148.244Z" fill="#CCDB4E"/>
<path d="M917.104 18.7435C917.104 3.74409 939.604 -12.2562 949.104 18.7435C952.604 10.2437 962.404 -3.55593 973.604 9.24407C975.438 11.2441 979.204 17.4441 979.604 26.2441C983.438 17.9108 993.604 3.74413 1003.6 13.7441C1005.44 16.2441 1008.7 23.6441 1007.1 33.2441C1012.1 23.2441 1025.5 7.84414 1035.1 26.2441C1035.6 29.7441 1036.3 37.8441 1035.1 42.2441C1041.6 35.7441 1057.1 26.6441 1063.1 42.2441C1063.6 45.9108 1064.3 53.9441 1063.1 56.7441C1061.6 60.2441 1084.6 37.2441 1087.1 59.7441C1087.88 63.6319 1086.51 73.1497 1075.6 81.8799C1082.89 77.0644 1095.51 73.6265 1102.6 89.2441C1103.77 93.7441 1104 104.044 1095.6 109.244C1087.2 114.444 1080.44 123.077 1078.1 126.744L932.104 66.2441L917.104 18.7435Z" fill="#501B35"/>
<path d="M917.104 18.7435C917.104 3.74409 939.604 -12.2562 949.104 18.7435C952.604 10.2437 962.404 -3.55593 973.604 9.24407C975.438 11.2441 979.204 17.4441 979.604 26.2441C983.438 17.9108 993.604 3.74413 1003.6 13.7441C1005.44 16.2441 1008.7 23.6441 1007.1 33.2441C1012.1 23.2441 1025.5 7.84414 1035.1 26.2441C1035.6 29.7441 1036.3 37.8441 1035.1 42.2441C1041.6 35.7441 1057.1 26.6441 1063.1 42.2441C1063.6 45.9108 1064.3 53.9441 1063.1 56.7441C1061.6 60.2441 1084.6 37.2441 1087.1 59.7441C1087.94 63.9108 1086.3 74.5441 1073.1 83.7441C1079.6 78.2441 1094.6 71.6441 1102.6 89.2441C1103.77 93.7441 1104 104.044 1095.6 109.244C1087.2 114.444 1080.44 123.077 1078.1 126.744L932.104 66.2441L917.104 18.7435Z" stroke="black"/>
<path d="M826.104 646.744C832.504 650.744 872.771 662.077 892.104 667.244H907.104L922.104 593.244L885.604 574.244L759.104 549.244L742.604 548.244L730.104 532.744C724.604 519.744 683.771 513.911 665.104 513.744C655.771 508.577 637.104 502.544 637.104 519.744C637.104 536.944 652.438 540.577 660.104 540.244C678.505 539.444 680.104 547.577 678.604 551.744C671.938 555.577 652.704 564.344 629.104 568.744C605.504 573.144 589.604 582.244 584.604 586.244C583.271 592.244 582.004 605.144 587.604 608.744C593.204 612.344 612.271 602.577 621.104 597.244L665.104 586.244L605.104 625.244C589.104 650.044 609.104 649.91 621.104 646.744L678.604 604.244L642.104 646.744C632.938 653.577 619.104 668.244 637.104 672.244C659.604 677.244 695.104 620.244 694.104 625.244C693.104 630.244 673.104 667.244 673.104 676.244C673.104 685.244 675.604 688.244 689.604 683.744C700.804 680.144 715.938 646.577 722.104 630.244C734.104 631.244 746.104 601.744 747.104 604.244C748.104 606.744 751.104 608.244 756.604 613.744C762.104 619.244 818.104 641.744 826.104 646.744Z" fill="#E87E71"/>
<path d="M759.104 549.244L885.604 574.244L922.104 593.244L907.104 667.244H892.104C872.771 662.077 832.504 650.744 826.104 646.744C818.104 641.744 762.104 619.244 756.604 613.744C751.104 608.244 748.104 606.744 747.104 604.244C746.104 601.744 734.104 631.244 722.104 630.244C715.938 646.577 700.804 680.144 689.604 683.744C675.604 688.244 673.104 685.244 673.104 676.244C673.104 667.244 693.104 630.244 694.104 625.244C695.104 620.244 659.604 677.244 637.104 672.244C619.104 668.244 632.938 653.577 642.104 646.744L678.604 604.244L621.104 646.744C609.104 649.91 589.104 650.044 605.104 625.244L665.104 586.244L621.104 597.244C612.271 602.577 593.204 612.344 587.604 608.744C582.004 605.144 583.271 592.244 584.604 586.244C589.604 582.244 605.504 573.144 629.104 568.744C652.704 564.344 671.938 555.577 678.604 551.744C680.104 547.577 678.505 539.444 660.104 540.244C652.438 540.577 637.104 536.944 637.104 519.744C637.104 502.544 655.771 508.577 665.104 513.744C683.771 513.911 724.604 519.744 730.104 532.744L742.604 548.244L759.104 549.244ZM759.104 549.244C759.104 548.744 759.104 547.344 759.104 545.744" stroke="black"/>
<path d="M680.104 552.744C683.771 559.244 693.704 572.544 704.104 573.744" stroke="black"/>
<path d="M1165.1 190.244C1158.7 179.044 1148.1 178.244 1143.6 179.244L980.604 359.744L973.604 390.744L951.104 444.744C945.771 462.411 933.304 501.144 926.104 514.744C918.904 528.344 910.771 552.744 907.604 563.244L881.104 569.744C923.104 609.344 902.271 654.911 886.604 672.744C929.404 689.944 969.438 655.244 984.104 635.744L1020.1 534.744L1052.6 453.244L1074.1 472.244C1103.94 499.077 1164.2 553.544 1166.6 556.744C1169 559.944 1190.27 576.411 1200.6 584.244C1193.94 581.244 1181.6 579.244 1185.6 595.244C1189.6 611.244 1205.94 626.577 1213.6 632.244C1200 631.044 1193.6 640.411 1192.1 645.244L1196.6 657.244L1213.6 683.744L1298.6 702.244L1372.6 688.244L1442.1 603.744V371.744C1393.1 286.244 1325.6 259.244 1293.1 236.244C1266.47 217.397 1207.44 196.744 1180.1 190.244C1172.9 184.644 1167.1 187.911 1165.1 190.244Z" fill="#F2F79B"/>
<path d="M1200.6 584.244C1193.94 581.244 1181.6 579.244 1185.6 595.244C1189.6 611.244 1205.94 626.577 1213.6 632.244C1200 631.044 1193.6 640.411 1192.1 645.244L1196.6 657.244L1213.6 683.744L1298.6 702.244L1372.6 688.244L1442.1 603.744V371.744C1393.1 286.244 1325.6 259.244 1293.1 236.244C1266.47 217.397 1207.44 196.744 1180.1 190.244C1172.9 184.644 1167.1 187.911 1165.1 190.244C1158.7 179.044 1148.1 178.244 1143.6 179.244L980.604 359.744L973.604 390.744L951.104 444.744C945.771 462.411 933.304 501.144 926.104 514.744C918.904 528.344 910.771 552.744 907.604 563.244L881.104 569.744C923.104 609.344 902.271 654.911 886.604 672.744C929.404 689.944 969.438 655.244 984.104 635.744L1020.1 534.744L1052.6 453.244M1200.6 584.244C1221.94 596.244 1266.4 619.844 1273.6 618.244C1282.6 616.244 1292.6 617.244 1295.6 598.244M1200.6 584.244C1190.27 576.411 1169 559.944 1166.6 556.744C1164.2 553.544 1103.94 499.077 1074.1 472.244L1052.6 453.244M1052.6 453.244L1030.6 429.244L1022.94 419.244M996.104 384.244L1022.94 419.244M1022.94 419.244C1019.16 420.244 1007.8 417.944 992.604 400.744" stroke="black"/>
<path d="M1060.06 630.244C1069.21 586.741 1038.58 543.062 1021.6 526.244C1034.6 518.744 1059.6 524.244 1058.6 522.744C1057.6 521.244 1064.1 505.244 1067.6 505.744C1070.4 506.144 1075.1 509.577 1077.1 511.244V508.244C1091.5 458.244 1102.1 431.077 1105.6 423.744L1126.1 372.744L1149.6 301.744C1169.6 276.944 1181.6 274.411 1185.1 276.244C1185.6 274.077 1191.8 274.744 1212.6 294.744C1233.4 314.744 1248.96 350.077 1254.13 365.244L1262.6 385.744L1254.13 388.244L1233.6 429.744C1227.2 436.944 1221.94 448.411 1220.1 453.244L1160.1 564.244C1153.1 575.577 1135.5 601.244 1121.1 613.244C1106.7 625.244 1074.41 629.577 1060.06 630.244Z" fill="#F2F79B"/>
<path d="M1059.1 634.244C1059.46 632.911 1059.78 631.578 1060.06 630.244M1060.06 630.244C1069.21 586.741 1038.58 543.062 1021.6 526.244C1034.6 518.744 1059.6 524.244 1058.6 522.744C1057.6 521.244 1064.1 505.244 1067.6 505.744C1070.4 506.144 1075.1 509.577 1077.1 511.244V508.244C1091.5 458.244 1102.1 431.077 1105.6 423.744L1126.1 372.744L1149.6 301.744C1169.6 276.944 1181.6 274.411 1185.1 276.244C1185.6 274.077 1191.8 274.744 1212.6 294.744C1233.4 314.744 1248.96 350.077 1254.13 365.244L1262.6 385.744L1254.13 388.244M1060.06 630.244C1074.41 629.577 1106.7 625.244 1121.1 613.244C1135.5 601.244 1153.1 575.577 1160.1 564.244L1220.1 453.244C1221.94 448.411 1227.2 436.944 1233.6 429.744L1254.13 388.244M1256.6 383.244L1254.13 388.244" stroke="#606314" stroke-width="2"/>
<path d="M821.604 573.244C818.004 550.044 811.104 540.244 808.104 538.244C793.304 534.244 789.271 541.578 789.104 545.744L783.104 538.244C780.304 531.844 767.271 535.578 761.104 538.244V556.244C743.504 556.244 743.771 565.577 746.104 570.244L754.104 602.744L740.104 589.244C723.304 581.244 719.438 592.577 719.604 599.244C723.104 600.911 731.604 606.744 737.604 616.744C743.604 626.744 755.771 634.911 761.104 637.744L783.104 644.244L858.604 640.744L969.604 630.244L1051.1 624.744C1050.6 603.577 1044.2 557.244 1022.6 541.244L900.639 576.744C905.834 560.286 893.267 544.267 888.104 538.244C882.104 531.244 888.104 516.744 891.104 512.244C893.504 508.644 890.104 506.744 888.104 506.244C878.504 501.444 869.438 508.244 866.104 512.244C860.938 520.911 852.904 540.444 862.104 549.244C871.304 558.044 865.938 568.911 862.104 573.244C852.504 578.844 846.438 592.911 844.604 599.244L821.604 573.244Z" fill="#E87E71"/>
<path d="M896.604 584.744C898.488 582.093 899.797 579.413 900.639 576.744M754.104 602.744L740.104 589.244C723.304 581.244 719.438 592.577 719.604 599.244C723.104 600.911 731.604 606.744 737.604 616.744C743.604 626.744 755.771 634.911 761.104 637.744L783.104 644.244L858.604 640.744L969.604 630.244L1051.1 624.744C1050.6 603.577 1044.2 557.244 1022.6 541.244L900.639 576.744M754.104 602.744L746.104 570.244C743.771 565.577 743.504 556.244 761.104 556.244M754.104 602.744C755.104 609.577 757.904 622.844 761.104 621.244L789.104 637.744M761.104 556.244V538.244C767.271 535.578 780.304 531.844 783.104 538.244L789.104 545.744M761.104 556.244L765.604 584.744C766.104 587.077 767.304 592.044 768.104 593.244C768.904 594.444 787.771 614.744 797.104 624.744M789.104 545.744L793.604 582.244L821.604 611.744M789.104 545.744C789.271 541.578 793.304 534.244 808.104 538.244C811.104 540.244 818.004 550.044 821.604 573.244L844.604 599.244C846.438 592.911 852.504 578.844 862.104 573.244C865.938 568.911 871.304 558.044 862.104 549.244C852.904 540.444 860.938 520.911 866.104 512.244C869.438 508.244 878.504 501.444 888.104 506.244C890.104 506.744 893.504 508.644 891.104 512.244C888.104 516.744 882.104 531.244 888.104 538.244C893.267 544.267 905.834 560.286 900.639 576.744" stroke="#660A19" stroke-width="2"/>
<path d="M1030.1 538.244L1022.6 540.744C1043.4 556.344 1050.94 603.244 1052.1 624.744H1060.6C1063.1 578.244 1040.77 555.911 1030.1 538.244Z" fill="#A44034"/>
<path d="M1192.1 645.744C1218.1 666.077 1281.3 702.944 1326.1 687.744C1370.9 672.544 1394.1 653.411 1400.1 645.744C1411.1 633.077 1434.8 607.344 1441.6 605.744V710.244H1062.6C1070.27 702.077 1090.6 685.144 1110.6 682.744C1126.1 671.911 1160.6 650.744 1174.6 652.744C1187.68 654.612 1186.65 658.078 1184.15 659.886L1195.1 652.744L1192.1 645.744Z" fill="white"/>
<path d="M1192.1 645.744C1218.1 666.077 1281.3 702.944 1326.1 687.744C1370.9 672.544 1394.1 653.411 1400.1 645.744C1411.1 633.077 1434.8 607.344 1441.6 605.744V710.244H1062.6C1070.27 702.077 1090.6 685.144 1110.6 682.744C1126.1 671.911 1160.6 650.744 1174.6 652.744C1188.6 654.744 1186.44 658.577 1183.6 660.244L1195.1 652.744L1192.1 645.744Z" stroke="black"/>
<path d="M1113.6 691.744L1129.6 709.744" stroke="black"/>
<path d="M1184.1 668.744C1185.1 679.577 1188.5 702.744 1194.1 708.744" stroke="black"/>
<path d="M1265.1 693.244L1252.1 710.744" stroke="black"/>
<path d="M1308.6 692.744L1295.1 709.744" stroke="black"/>
<path d="M1440.6 663.244C1414.6 671.077 1357.4 691.444 1336.6 710.244" stroke="black"/>
<path d="M1382.1 710.244C1390.94 704.244 1415 692.744 1440.6 694.744" stroke="black"/>
<path d="M937.104 3.2442C930.704 4.8442 925.771 17.9109 924.104 24.2442L1078.1 116.744C1081.27 115.744 1088.8 113.244 1093.6 111.244C1099.6 108.744 1106.6 95.2441 1102.6 88.7441C1099.4 83.5441 1082.27 83.2441 1074.1 83.7441C1085.3 78.1441 1086.77 64.0775 1086.1 57.7441C1079.3 53.3441 1065.94 58.2441 1060.1 61.2441L1061.6 40.2441C1051.6 36.2441 1038.77 41.9108 1033.6 45.2441C1037.2 32.8441 1035.1 26.0775 1033.6 24.2442C1027.2 21.0442 1012.94 30.2442 1006.6 35.2441C1009 26.4441 1006.6 18.2441 1005.1 15.2441C999.504 13.2441 985.771 23.0775 979.604 28.2441C980.004 20.6441 976.104 12.4108 974.104 9.24414C968.504 7.24414 955.438 16.4108 949.604 21.2442C948.104 14.5775 943.504 1.6442 937.104 3.2442Z" fill="#040205"/>
<path d="M819.604 182.744C824.004 206.744 845.438 206.411 855.604 203.244L1047.1 62.7441L1005.6 38.7441C1002.77 37.9108 987.304 33.6441 948.104 23.2441C908.904 12.8441 888.438 24.2441 883.104 31.2441C877.938 37.0774 863.204 52.7441 845.604 68.7441C828.004 84.7441 820.938 105.077 819.604 113.244C817.771 126.411 815.204 158.744 819.604 182.744Z" fill="#E36B86"/>
<path d="M855.104 193.744L843.104 188.744C840.938 188.244 835.604 178.944 831.604 145.744C831.438 140.244 834.804 127.544 849.604 120.744H836.104C838.104 113.411 846.204 94.3444 862.604 76.7444C879.004 59.1444 895.104 46.7444 901.104 42.7444C905.604 39.0777 923.204 32.3444 957.604 34.7444C992.004 37.1444 1004.27 39.0777 1006.1 40.7444C1016.77 44.411 1040.9 55.2441 1052.1 69.2441C1063.3 83.2441 1072.77 109.411 1076.1 120.744C1082.6 114.411 1100.9 102.344 1122.1 104.744C1126.44 104.911 1133.8 112.744 1128.6 138.744H1121.34C1131.21 139.197 1141.73 140.962 1140.6 145.744L1136.6 163.244L1131.6 180.744L1099.1 173.744L1019.1 136.244C1001.1 129.077 957.704 113.744 928.104 109.744C922.212 107.944 913.449 105.789 906.104 105.105L862.604 154.244L850.463 173.744L855.104 193.744Z" fill="#913B56"/>
<path d="M1113.6 177.244L1018.1 135.744C1021.67 146.725 1048.44 172.876 1060.14 183.259C1061.79 184.843 1069.44 188.327 1086.85 189.594C1104.26 190.861 1113.44 180.94 1113.6 177.244Z" fill="#060002" stroke="black"/>
<path d="M1059.6 357.744C1047.6 348.144 1047.94 334.411 1049.6 328.744L1059.6 193.744L1090.1 187.744C1104.9 192.544 1112.94 182.077 1115.1 176.244C1116.94 176.577 1121.2 178.144 1123.6 181.744C1126 185.344 1139.94 187.244 1146.6 187.744C1153 204.944 1151.27 235.577 1149.6 248.744C1138 312.744 1118.77 341.411 1110.6 347.744L1123.6 376.244L1118.1 385.744L1100.6 362.744C1091.94 365.077 1071.6 367.344 1059.6 357.744Z" fill="#E87E71" stroke="black"/>
<path d="M1090.1 292.244L1085.6 198.744L1068.1 190.244L1031.6 323.244L1071.1 346.244L1083.1 329.244C1089.9 312.844 1090.6 297.744 1090.1 292.244Z" fill="#D3695C"/>
<path d="M928.104 370.744C904.904 351.544 865.771 234.078 849.104 177.744C849.104 169.744 886.771 126.744 905.604 106.244C942.938 114.577 1017.8 132.844 1018.6 139.244C1019.4 145.644 1046.27 170.911 1059.6 182.744L1065.1 151.744C1065.9 136.944 1072.1 137.244 1075.1 139.244C1098.7 155.644 1100.6 166.744 1098.6 170.244C1095.6 176.411 1088.6 190.544 1084.6 197.744C1080.6 204.944 1073.94 200.744 1071.1 197.744L1075.1 203.744C1071.27 233.078 1063.2 293.044 1061.6 298.244C1060 303.444 1056.27 308.744 1054.6 310.744C1031.6 329.744 991.604 350.744 962.604 365.744C939.404 377.744 929.938 374.078 928.104 370.744Z" fill="#EFAA89" stroke="black"/>
<path d="M1054.6 310.744C1031.6 329.744 991.604 350.744 962.604 365.744C945.604 371.245 937.604 349.744 935.604 346.244C934.004 343.444 919.271 315.077 912.104 301.244C900.504 282.444 872.271 200.744 859.604 162.244C865.104 151.744 886.771 124.744 905.604 104.244C942.938 112.577 1017.8 130.844 1018.6 137.244C1019.4 143.644 1046.27 170.911 1059.6 182.744L1065.1 151.744C1065.9 136.944 1072.1 137.244 1075.1 139.244C1098.7 155.644 1100.6 166.744 1098.6 170.244C1095.6 176.411 1088.6 190.544 1084.6 197.744C1080.6 204.944 1073.94 200.744 1071.1 197.744L1075.1 203.744C1071.27 233.078 1063.2 293.044 1061.6 298.244C1060 303.444 1056.27 308.744 1054.6 310.744Z" fill="#E87E71"/>
<path d="M961.695 164.136C950.895 187.736 958.195 215.969 963.195 227.136C977.285 225.028 986.104 223.244 997.604 210.744C1009.1 198.244 1025.6 171.244 1026.1 167.244C1026.5 164.044 1017.33 155.505 1012.69 151.636C1000.19 145.969 972.495 140.536 961.695 164.136Z" fill="#FFFEFC" stroke="black"/>
<path d="M970.104 164.244C959.704 191.844 970.104 215.411 976.604 223.744C993.004 222.144 1010.44 196.078 1017.1 183.244C1016.3 178.444 1009.77 166.911 1006.6 161.744C987.004 142.144 974.104 155.244 970.104 164.244Z" fill="#521A33" stroke="black"/>
<path d="M1006.6 161.745C987.004 142.145 977.104 155.744 977.104 155.744C982.771 172.911 994.704 207.844 997.104 210.244C999.504 212.644 1011.44 193.245 1017.1 183.245C1016.3 178.445 1009.77 166.912 1006.6 161.745Z" fill="#060002" stroke="black"/>
<path d="M880.604 257.744C883.404 268.144 897.604 271.244 904.604 270.244C908.104 269.744 911.904 263.444 909.104 258.244C906.304 253.044 897.938 250.411 894.104 249.744C883.304 246.944 880.604 253.911 880.604 257.744Z" fill="#ED625D"/>
<path d="M1033.1 183.244C1017.1 180.044 1015.1 200.911 1016.1 211.744C1015.89 221.344 1029.1 218.744 1033.1 213.244C1037.1 207.744 1049.1 186.444 1033.1 183.244Z" fill="#ED625D"/>
<ellipse cx="1003.96" cy="166.481" rx="4" ry="6.30249" transform="rotate(-20.3728 1003.96 166.481)" fill="#FFFEFC"/>
<path d="M887.604 182.244C870.404 187.444 868.438 217.744 869.604 232.244C882.804 243.844 895.771 246.744 900.604 246.744C923.804 244.344 935.604 234.411 938.604 229.744L936.604 224.744C931.404 211.144 923.438 199.411 920.104 195.244C916.438 188.744 904.804 177.044 887.604 182.244Z" fill="#FFFEFC" stroke="black"/>
<path d="M884.604 206.744C882.204 226.344 887.938 239.244 891.104 243.244C901.904 250.044 920.604 242.411 928.604 237.744C928.604 228.944 927.604 223.077 927.104 221.244C921.104 192.244 914.438 192.911 908.104 188.244C893.304 185.444 886.271 199.411 884.604 206.744Z" fill="#521A33" stroke="black"/>
<path d="M927.104 221.244C921.104 192.244 914.438 192.911 908.104 188.244C903.704 186.644 898.271 188.911 896.104 190.244L913.604 244.244C919.604 242.244 926.104 239.078 928.604 237.744C928.604 228.944 927.604 223.078 927.104 221.244Z" fill="#060002" stroke="black"/>
<ellipse cx="918.112" cy="207.632" rx="4" ry="6.30249" transform="rotate(-9.73396 918.112 207.632)" fill="#FFFEFC"/>
<path d="M997.104 216.744C990.304 221.944 976.604 248.244 970.604 260.744C972.771 258.744 979.804 253.044 990.604 246.244C1001.4 239.444 1009.77 232.077 1012.6 229.244C1015 215.644 1007.27 220.911 1003.6 225.244C1004.27 220.244 1003.9 211.544 997.104 216.744Z" fill="#060002" stroke="black"/>
<path d="M938.104 274.244C960.904 269.844 963.271 267.078 961.604 266.244C957.771 265.244 947.304 262.644 936.104 260.244C924.904 257.844 915.771 257.911 912.604 258.244C907.604 266.244 915.271 268.744 922.604 268.744C907.104 271.244 914.604 285.244 922.604 279.744C929.004 275.344 935.604 274.244 938.104 274.244Z" fill="#060002" stroke="black"/>
<path d="M938.604 291.744V282.244C962.204 284.644 982.438 266.578 989.604 257.244C998.404 240.444 1002.6 244.911 1003.6 249.244L1007.1 264.744C1005.94 281.244 998.604 314.644 978.604 316.244C958.604 317.844 943.604 300.578 938.604 291.744Z" fill="#6C0404" stroke="black"/>
<path d="M940.604 218.744L949.104 264.244L968.104 249.744" stroke="#913B56" stroke-width="2"/>
<path d="M948.604 264.244L940.104 218.744L951.104 213.744L967.064 250.157L948.604 264.244Z" fill="#CC4E63"/>
<path d="M954.604 292.744C953.004 291.944 949.604 286.077 948.104 283.244C953.704 282.044 963.771 277.411 968.104 275.244C974.75 273.029 980.821 267.491 984.923 262.744C986.746 260.634 988.181 258.68 989.104 257.244C996.704 244.044 1000.94 244.411 1002.1 246.244C1003.44 248.911 1005.8 255.344 1004.6 259.744C1003.87 262.436 998.108 268.01 992.104 273.191C988.294 276.479 984.387 279.609 981.604 281.744C980.356 282.512 977.825 284.087 974.604 286.126C972.233 287.627 969.488 289.378 966.604 291.244C958.104 296.744 956.604 293.744 954.604 292.744Z" fill="#FFFEFC"/>
<path d="M968.104 275.244C963.771 277.411 953.704 282.044 948.104 283.244C949.604 286.077 953.004 291.944 954.604 292.744C956.604 293.744 958.104 296.744 966.604 291.244C969.488 289.378 972.233 287.627 974.604 286.126M968.104 275.244L974.604 286.126M968.104 275.244C974.75 273.029 980.821 267.491 984.923 262.744M974.604 286.126C977.825 284.087 980.356 282.512 981.604 281.744C984.387 279.609 988.294 276.479 992.104 273.191M992.104 273.191C998.108 268.01 1003.87 262.436 1004.6 259.744C1005.8 255.344 1003.44 248.911 1002.1 246.244C1000.94 244.411 996.704 244.044 989.104 257.244C988.181 258.68 986.746 260.634 984.923 262.744M992.104 273.191L984.923 262.744" stroke="black"/>
<path d="M978.604 288.744C981.804 295.544 992.604 297.577 997.604 297.744C999.204 297.858 1001.94 290.792 1003.1 287.244L1005.1 275.244H993.604C987.271 276.911 975.404 281.944 978.604 288.744Z" fill="#C9140D"/>
<path d="M1087.1 167.244L1074.6 151.744L1072.1 182.244C1074.1 175.077 1081.6 167.244 1082.6 182.244C1083.1 185.244 1081.6 192.744 1078.1 190.244" stroke="black"/>
<path d="M943.604 113.244L940.604 97.2441C939.629 92.0441 942.198 90.4108 943.604 90.2441C947.604 90.4108 958.204 91.5441 968.604 94.7441C979.004 97.9441 980.604 102.744 980.104 104.744V121.744L943.604 113.244Z" fill="#060002" stroke="black"/>
<path d="M877.104 107.744C863.904 112.544 856.604 128.744 855.104 137.744C856.604 147.244 863.271 153.411 864.604 152.744L886.104 126.744C888.104 105.544 880.938 105.244 877.104 107.744Z" fill="#060002" stroke="black"/>
<path d="M965.604 48.7441C985.104 54.0775 1028.3 70.4441 1045.1 93.2441" stroke="black"/>
<path d="M971.104 76.7441C990.604 82.0775 1006.6 85.2441 1047.1 119.744L1063.6 136.744" stroke="black"/>
<path d="M1285.1 644.744C1299.1 633.744 1330.5 605.744 1344.1 581.744C1357.7 557.744 1373.77 533.077 1380.1 523.744L1393.1 506.744" stroke="black"/>
<path d="M1202.1 595.744C1218.44 612.077 1254.9 645.344 1270.1 647.744C1289.1 650.744 1289.1 659.744 1317.1 656.744C1339.5 654.344 1347.77 643.744 1349.1 638.744" stroke="black"/>
<path d="M1219.1 639.244C1234.44 652.577 1275.1 678.844 1315.1 677.244" stroke="black"/>
<path d="M1056.1 370.244C1064.27 372.911 1082.6 377.444 1090.6 374.244" stroke="black"/>
<path d="M1043.1 364.244C1050.1 371.744 1065.7 386.744 1072.1 386.744" stroke="black"/>
<path d="M926.604 544.244C929.604 546.577 941.904 549.844 967.104 544.244" stroke="black"/>
<path d="M979.604 413.244C982.938 415.411 992.004 419.944 1001.6 420.744" stroke="black"/>
<path d="M1195.6 312.744C1202.77 304.577 1219.6 286.844 1229.6 281.244" stroke="#606314" stroke-width="2"/>
<path d="M1188.6 312.744C1188.44 310.911 1194.3 300.544 1219.1 273.744" stroke="#606314" stroke-width="2"/>
<path d="M1166.1 443.744L1230.1 404.744" stroke="#606314" stroke-width="2"/>
<path d="M1325.1 363.244C1293.1 375.244 1217.6 402.044 1171.6 413.244C1169.1 413.244 1163.6 413.244 1161.6 413.244" stroke="#606314" stroke-width="2"/>
<path d="M779.605 275.744C812.405 253.744 849.938 262.911 864.605 270.244L860.104 261.744C823.704 250.544 786.604 264.077 772.604 272.244C771.004 265.844 763.271 260.578 759.604 258.744C752.771 256.744 736.004 255.044 723.604 264.244C711.204 273.444 718.438 278.744 723.604 280.244C717.271 284.578 704.604 295.444 704.604 304.244C704.604 313.044 704.604 325.244 705.604 330.244C708.004 339.044 704.604 352.578 702.604 358.244C704.204 375.844 711.271 384.911 714.604 387.244L742.605 354.244C741.405 346.244 758.771 330.244 767.605 323.244C774.405 316.044 775.105 302.911 774.605 297.244C780.605 301.244 784.438 298.911 785.605 297.244C787.605 286.844 782.438 278.578 779.605 275.744Z" fill="#9BBB29" stroke="#B5C046" stroke-width="2"/>
<path d="M774.604 274.744C769.498 276.446 762.528 280.27 755.104 286.704M715.104 368.244C717.438 352.521 721.385 339.103 726.239 327.744M755.104 286.704C750.771 284.217 737.504 281.944 719.104 292.744M755.104 286.704C756.438 289.551 759.104 301.044 759.104 324.244M755.104 286.704C745.166 295.317 734.416 308.607 726.239 327.744M726.239 327.744C722.194 328.244 713.704 330.144 712.104 333.744" stroke="#C6E466"/>
<path d="M742.104 300.744C743.771 302.911 746.904 310.744 746.104 324.744" stroke="#C6E466"/>
<path d="M726.104 328.744C727.438 332.244 730.404 343.244 731.604 359.244" stroke="#C6E466"/>
<defs>
<radialGradient id="paint0_radial_102_2" cx="0" cy="0" r="1" gradientUnits="userSpaceOnUse" gradientTransform="translate(600.104 160.744) rotate(90) scale(9 15)">
<stop stop-color="#FCEFE7"/>
<stop offset="1" stop-color="#FCEFE7" stop-opacity="0.26"/>
</radialGradient>
<radialGradient id="paint1_radial_102_2" cx="0" cy="0" r="1" gradientUnits="userSpaceOnUse" gradientTransform="translate(575.604 170.244) rotate(90) scale(3.5 5.5)">
<stop stop-color="#FCEFE7"/>
<stop offset="1" stop-color="#FCEFE7" stop-opacity="0.26"/>
</radialGradient>
<linearGradient id="paint2_linear_102_2" x1="606.104" y1="177.744" x2="610.887" y2="265.609" gradientUnits="userSpaceOnUse">
<stop stop-color="#8B0003" stop-opacity="0.04"/>
<stop offset="1" stop-color="#8B0003"/>
</linearGradient>
</defs>
</svg>
