<svg width="1267" height="800" viewBox="0 0 1267 800" fill="none" xmlns="http://www.w3.org/2000/svg">
<g clip-path="url(#clip0_2_3)">
<rect width="1267" height="800" fill="#E7F6FF"/>
<path d="M112.492 521.927L-38.6564 678.1L-101.226 737.994C-124.669 760.436 -108.785 800 -76.3317 800H1075.48C1105.42 800 1122.28 765.576 1103.92 741.925L832.41 392.172L608.314 147.503C593.55 131.385 567.947 132.034 554.02 148.881L231.813 538.642C216.452 557.224 187.524 555.749 174.132 535.702L168.296 526.966C155.55 507.887 128.449 505.439 112.492 521.927Z" fill="#BCF4A1" fill-opacity="0.76"/>
<path d="M565 531.762C369.8 482.162 174.333 689.762 101 799.762H1271C1271 609.683 1274.2 230.372 1287 233.762C1200.6 204.962 1115 275.096 1083 313.762C991.667 407.096 760.2 581.362 565 531.762Z" fill="#AEEC91"/>
<path d="M463.104 352.744C457.104 360.344 450.604 379.244 448.104 387.744C448.104 412.544 465.438 396.744 474.104 385.744L477.604 358.244C482.804 359.444 491.104 355.077 494.604 352.744C501.104 337.744 486.938 344.244 476.604 348.744C494.204 338.744 486.938 336.244 481.104 336.244C477.604 338.577 469.104 345.144 463.104 352.744Z" fill="#FEFFFA" stroke="black"/>
<path d="M367.604 366.244C370.938 359.577 379.104 343.644 385.104 333.244C379.604 324.577 371.904 307.344 385.104 307.744C386.1 309.336 387.653 312.842 388.659 317.707C388.705 312.386 389.645 307.744 392.604 307.744C397.804 307.744 399.104 324.744 399.104 333.244C397.938 343.244 395.004 365.244 392.604 373.244C389.604 383.244 367.604 387.244 367.604 366.244Z" fill="#FEFFFA" stroke="black"/>
<path d="M392.104 334.244L380.604 377.744L392.104 374.744L399.104 339.744L392.104 334.244Z" fill="#C2C4D1" fill-opacity="0.51"/>
<path d="M472.104 358.244L464.104 389.244L474.104 387.244L478.104 358.244H472.104Z" fill="#DFE1E5"/>
<path d="M415.604 580.244C379.204 603.844 340.438 582.411 325.604 568.744C311.204 570.344 304.604 576.077 303.104 578.744C303.104 580.744 300.438 583.244 299.104 584.244C296.604 584.244 291.104 583.144 289.104 578.744C287.104 574.344 274.938 563.244 269.104 558.244C245.104 535.244 263.604 537.244 267.104 536.744C269.904 536.344 285.604 552.911 293.104 561.244C291.437 550.911 291.104 528.744 303.104 522.744C313.45 517.571 323.549 525.902 328.913 532.676L326.104 528.744C331.704 515.944 342.104 500.744 346.604 495.744C346.204 484.944 349.437 481.911 351.104 481.744C336.304 473.744 333.604 466.077 334.104 463.244L330.104 466.244C323.704 457.844 325.771 447.744 327.604 443.744L323.604 445.244C323.518 441.781 323.976 438.755 324.805 436.126C325.42 433.859 326.318 431.721 327.604 430.273C331.297 424.766 336.703 422.044 340.104 421.244H334.104C334.104 415.744 344.437 413.911 348.604 413.744C351.804 405.744 360.604 395.744 364.604 391.744C363.437 391.744 356.904 390.644 340.104 386.244C319.104 380.744 304.104 361.244 295.104 351.244C287.904 343.244 273.104 333.244 266.604 329.244C259.404 312.444 288.604 319.244 304.104 324.744C334.504 331.144 365.771 363.744 377.604 379.244C420.104 360.744 445.438 381.91 452.104 395.244C459.704 384.844 512.604 381.744 538.604 381.744C586.104 388.244 581.104 401.744 576.604 401.744C573.004 401.744 558.771 403.077 552.104 403.744C549.271 403.577 539.804 405.344 524.604 413.744C509.404 422.144 479.938 420.577 467.104 418.744C467.904 425.944 462.771 438.744 460.104 444.244C476.904 452.644 477.104 458.744 475.104 460.744L471.104 458.244C478.704 480.244 474.938 482.41 472.104 480.744L471.104 475.744C469.104 489.744 463.938 493.91 461.604 494.244L460.104 491.244C455.304 501.244 443.104 503.744 437.604 503.744C436.404 509.344 432.644 513.744 430.913 515.244C434.813 528.626 433.506 546.696 432.104 555.244C437.304 549.644 449.271 548.911 454.604 549.244C472.604 555.244 467.438 579.411 462.604 590.744C467.004 586.744 480.771 586.411 487.104 586.744C498.704 593.544 489.271 599.577 483.104 601.744C466.304 602.544 452.104 609.744 447.104 613.244H440.604V598.744C437.004 585.944 422.438 581.077 415.604 580.244Z" fill="#FDFFFC"/>
<path d="M430.913 515.244C434.813 528.626 433.506 546.696 432.104 555.244C437.304 549.644 449.271 548.911 454.604 549.244C472.604 555.244 467.438 579.411 462.604 590.744C467.004 586.744 480.771 586.411 487.104 586.744C498.704 593.544 489.271 599.577 483.104 601.744C466.304 602.544 452.104 609.744 447.104 613.244H440.604V598.744C437.004 585.944 422.438 581.077 415.604 580.244C379.204 603.844 340.438 582.411 325.604 568.744C311.204 570.344 304.604 576.077 303.104 578.744C303.104 580.744 300.438 583.244 299.104 584.244C296.604 584.244 291.104 583.144 289.104 578.744C287.104 574.344 274.938 563.244 269.104 558.244C245.104 535.244 263.604 537.244 267.104 536.744C269.904 536.344 285.604 552.911 293.104 561.244C291.437 550.911 291.104 528.744 303.104 522.744C315.104 516.744 326.771 528.911 331.104 535.744L326.104 528.744C331.704 515.944 342.104 500.744 346.604 495.744C346.204 484.944 349.437 481.911 351.104 481.744C336.304 473.744 333.604 466.077 334.104 463.244L330.104 466.244C323.704 457.844 325.771 447.744 327.604 443.744L323.604 445.244M430.913 515.244C430.175 512.71 429.25 510.345 428.104 508.244L430.913 515.244ZM430.913 515.244C432.644 513.744 436.404 509.344 437.604 503.744M437.604 503.744C432.251 502.144 431.707 501.41 432.104 501.244L437.604 503.744ZM437.604 503.744C443.104 503.744 455.304 501.244 460.104 491.244L461.604 494.244C463.938 493.91 469.104 489.744 471.104 475.744L472.104 480.744C474.938 482.41 478.704 480.244 471.104 458.244L475.104 460.744C477.104 458.744 476.904 452.644 460.104 444.244M460.104 444.244C462.771 438.744 467.904 425.944 467.104 418.744M460.104 444.244C460.23 437.096 460.223 423.889 459.53 415.744M458.604 409.744C459 410.932 459.302 413.064 459.53 415.744M467.104 418.744L459.53 415.744M467.104 418.744C479.938 420.577 509.404 422.144 524.604 413.744C539.804 405.344 549.271 403.577 552.104 403.744C558.771 403.077 573.004 401.744 576.604 401.744C581.104 401.744 586.104 388.244 538.604 381.744C512.604 381.744 459.704 384.844 452.104 395.244C445.438 381.91 420.104 360.744 377.604 379.244C365.771 363.744 334.504 331.144 304.104 324.744C288.604 319.244 259.404 312.444 266.604 329.244C273.104 333.244 287.904 343.244 295.104 351.244C304.104 361.244 319.104 380.744 340.104 386.244C356.904 390.644 363.437 391.744 364.604 391.744C360.604 395.744 351.804 405.744 348.604 413.744C344.437 413.911 334.104 415.744 334.104 421.244H340.104C336.703 422.044 331.297 424.766 327.604 430.273M323.604 445.244C323.444 438.847 325.144 433.942 327.604 430.273M323.604 445.244C323.604 441.755 324.404 433.875 327.604 430.273" stroke="black"/>
<path d="M431.604 555.744H427.604C426.804 555.744 423.604 519.411 422.104 501.244C432.938 498.911 454.804 491.444 455.604 480.244C456.438 482.744 458.704 486.544 461.104 481.744C463.504 476.944 464.771 471.411 465.104 469.244C466.938 470.577 470.804 472.444 471.604 469.244C472.404 466.044 472.604 464.244 472.604 463.744C474.104 467.077 476.804 474.544 475.604 477.744C474.438 480.411 471.904 483.844 471.104 476.244C470.438 480.577 468.304 489.844 465.104 492.244C461.104 495.244 460.604 493.244 460.104 490.744C458.104 494.911 451.704 503.244 442.104 503.244C440.462 503.244 437.526 503.115 435.137 502.686C435.999 503.048 436.881 503.428 437.604 503.744C436.938 506.577 434.704 512.744 431.104 514.744L428.859 510.254C431.257 515.372 434.684 525.666 433.604 535.744L431.604 555.744Z" fill="#D2D7DB"/>
<path d="M459.104 591.244L461.604 554.744C471.204 561.144 465.604 581.744 461.604 591.244H459.104Z" fill="#D2D7DB"/>
<path d="M283.104 334.744L294.104 349.744C310.104 373.344 332.771 384.244 342.104 386.744C340.937 386.244 338.404 384.744 337.604 382.744C336.804 380.744 348.271 381.911 354.104 382.744C351.437 382.244 345.304 380.844 342.104 379.244C338.104 377.244 337.604 374.244 342.104 374.244C346.604 374.244 357.604 380.744 355.604 379.244C354.004 378.044 350.604 375.411 349.104 374.244C347.937 372.577 346.104 369.044 348.104 368.244C350.104 367.444 356.937 373.577 360.104 376.744C354.504 359.944 338.437 349.411 331.104 346.244C324.937 345.077 309.204 340.844 295.604 333.244C282.004 325.644 281.604 331.077 283.104 334.744Z" fill="#E97A5E" stroke="black"/>
<path d="M290.604 335.744C297.004 338.544 335.271 356.577 353.604 365.244C352.438 361.911 346.504 353.544 332.104 346.744C321.604 343.911 298.904 336.944 292.104 331.744C288.104 329.244 280.804 326.544 283.604 335.744C283.271 334.577 284.204 332.944 290.604 335.744Z" fill="#AC5136"/>
<path d="M464.604 405.744C469.104 399.744 483.084 390.744 508.104 390.744C536.104 390.744 541.604 390.244 559.604 398.244C555.771 399.244 547.704 401.944 546.104 404.744C538.771 407.41 522.004 413.744 513.604 417.744C505.204 421.744 479.438 419.41 467.604 417.744C473.938 418.41 486.904 419.144 488.104 416.744C489.232 414.489 483.014 412.799 478.582 412.311C475.824 412.487 473.852 412.452 475.104 412.244C475.849 412.12 477.118 412.15 478.582 412.311C482.432 412.065 487.813 411.409 488.104 410.244C488.577 408.356 484.147 406.468 473.134 407.524C468.395 408.349 465.445 408.423 471.104 407.744C471.804 407.66 472.481 407.587 473.134 407.524C478.86 406.527 487.199 404.433 486.104 401.244C484.504 396.582 471.104 402.301 464.604 405.744Z" fill="#E97A5E" stroke="black"/>
<path d="M508.604 396.244C533.004 395.044 546.771 398.744 551.104 400.744L556.104 398.494L559.104 398.244L556.604 397.244L542.604 392.244L525.604 391.244H505.104L494.354 392.244L482.104 394.744L471.604 399.744L466.104 404.744C468.604 403.744 484.204 397.444 508.604 396.244Z" fill="#AC5136"/>
<path d="M328.115 443.215L324.115 444.715C324.028 441.252 324.487 438.226 325.316 435.597C325.93 433.33 326.829 431.192 328.115 429.744C327.615 433.392 328.015 439.592 333.615 435.215C332.615 443.882 332.115 458.615 338.115 448.215C338.115 453.549 340.615 465.715 350.615 471.715C360.615 477.715 361.115 482.549 360.115 484.215C359.282 484.882 357.315 486.215 356.115 486.215L347.115 495.215C346.715 484.415 349.948 481.382 351.615 481.215C336.815 473.215 334.115 465.549 334.615 462.715L330.615 465.715C324.215 457.315 326.282 447.215 328.115 443.215Z" fill="#D2D7DB"/>
<path d="M362.604 616.244C357.404 623.044 353.438 622.411 352.104 621.244V624.744L359.104 625.744L363.604 620.244C365.438 616.078 367.804 609.444 362.604 616.244Z" fill="#C4C4C4"/>
<path d="M377.604 616.744C374.004 627.944 368.104 622.744 365.604 618.744L364.604 622.744L371.104 628.244L378.604 626.744L380.604 622.244C381.104 615.744 381.204 605.544 377.604 616.744Z" fill="#C4C4C4"/>
<path d="M341.105 610.744C338.854 597.244 355.271 591.411 362.105 589.744C368.105 593.744 380.605 593.077 386.105 592.244C396.505 602.644 395.105 611.577 393.105 614.744C386.226 621.623 382.158 618.359 380.232 614.218C381.78 620.276 381.699 628.244 373.105 628.244C366.528 628.244 364.403 623.578 364.152 618.673C362.861 623.687 360.063 627.843 354.605 625.244C347.595 621.906 349.847 614.623 352.818 609.785C348.405 614.525 341.539 613.354 341.105 610.744Z" fill="#FDFFFC" stroke="black"/>
<path d="M383.604 595.744C373.604 599.744 362.438 595.077 358.104 592.244L362.104 589.744L368.604 592.244L386.604 592.744L393.604 601.744C397.604 614.944 389.271 618.244 384.604 618.244C383.104 616.911 380.404 614.344 381.604 614.744C382.804 615.144 385.104 613.911 386.104 613.244C390.904 609.244 386.438 599.911 383.604 595.744Z" fill="#C4C4C4"/>
<path d="M395.105 489.244C377.905 488.044 375.271 455.411 376.105 438.744L376.855 436.119L379.105 436.744C385.604 456.744 396.604 459.744 408.104 461.744C417.304 463.344 426.604 454.744 430.104 450.244L429.104 454.244C417.504 487.844 401.605 491.577 395.105 489.244Z" fill="#270E21"/>
<path d="M430.104 450.244L429.104 454.244C417.504 487.844 401.605 491.577 395.105 489.244C377.905 488.044 375.271 455.411 376.105 438.744L376.855 436.119M430.104 450.244C426.604 454.744 417.304 463.344 408.104 461.744C396.604 459.744 385.604 456.744 379.105 436.744L376.855 436.119M430.104 450.244L427.604 447.744C429.271 449.244 433.604 451.644 437.604 453.244M370.104 434.244L374.605 435.494L376.855 436.119" stroke="black"/>
<path d="M401.605 471.244C393.205 471.644 393.438 463.411 394.605 459.244L395.604 458.244C397.204 460.244 406.938 461.744 411.604 462.244C411.771 465.077 410.005 470.844 401.605 471.244Z" fill="#FBF9FC" stroke="black"/>
<path d="M381.104 474.394C387.104 473.061 397.104 472.395 405.604 486.894C399.938 490.227 387.104 492.393 381.104 474.394Z" fill="#EF795F" stroke="black"/>
<path d="M439.222 430.401C438.417 434.472 436.488 437.9 434.042 440.155C431.596 442.411 428.667 443.472 425.822 442.91C422.977 442.348 420.672 440.251 419.268 437.235C417.865 434.218 417.385 430.314 418.19 426.243C418.994 422.172 420.924 418.745 423.37 416.489C425.815 414.234 428.745 413.173 431.59 413.735C434.434 414.297 436.74 416.393 438.143 419.41C439.547 422.427 440.027 426.331 439.222 430.401Z" fill="#000201" stroke="black"/>
<path d="M405.105 448.744C403.905 447.544 400.938 442.578 399.605 440.244C398.597 437.979 399.386 436.518 400.525 435.664C401.607 434.852 403.11 435.59 404.295 436.243C405.687 437.012 407.532 437.53 408.605 437.744C414.605 436.944 414.438 440.411 413.605 442.244C411.271 444.911 406.305 449.944 405.105 448.744Z" fill="#F05E3E"/>
<path d="M424.604 442.744C425.004 438.344 430.438 422.244 433.104 414.744C436.704 414.744 438.938 421.077 439.604 424.244C440.104 425.411 440.204 429.544 436.604 436.744C433.004 443.944 427.104 443.744 424.604 442.744Z" fill="#461823" stroke="black"/>
<path d="M396.104 385.244C400.271 381.578 409.604 376.744 412.104 392.244" stroke="black"/>
<path d="M427.104 396.244C432.104 391.078 442.904 384.344 446.104 398.744" stroke="black"/>
<path d="M402.608 424.077C401.804 428.148 399.874 431.575 397.428 433.831C394.983 436.087 392.053 437.148 389.208 436.586C386.364 436.023 384.058 433.927 382.655 430.91C381.251 427.894 380.771 423.99 381.576 419.919C382.381 415.848 384.31 412.421 386.756 410.165C389.202 407.909 392.131 406.848 394.976 407.411C397.821 407.973 400.126 410.069 401.53 413.086C402.933 416.102 403.413 420.006 402.608 424.077Z" fill="#000201" stroke="black"/>
<path d="M391.104 436.244C395.904 425.044 396.438 412.911 396.604 408.244C399.104 409.077 403.804 413.244 402.604 423.244C401.404 433.244 394.771 435.744 391.104 436.244Z" fill="#461823" stroke="black"/>
<ellipse cx="399.604" cy="420.244" rx="1.5" ry="3.5" transform="rotate(7.38319 399.604 420.244)" fill="white"/>
<ellipse cx="436.042" cy="425.408" rx="1.5" ry="3.5" transform="rotate(7.38319 436.042 425.408)" fill="white"/>
<path d="M756.104 806.744H770.104C770.104 668.343 756.104 548.077 749.104 505.244C749.604 486.744 718.104 384.744 698.104 343.744C678.104 302.744 631.604 259.744 573.604 243.244C527.204 230.044 495.604 242.411 485.604 250.244L475.604 256.244C472.604 261.577 472.004 268.544 493.604 253.744C515.204 238.944 555.937 245.244 573.604 250.244C670.104 282.744 700.104 338.744 733.104 480.744C759.504 594.344 759.437 745.41 756.104 806.744Z" fill="#7F9E1F" stroke="#B5C046" stroke-width="2"/>
<path d="M509.104 300.744C509.104 353.244 484.104 359.744 444.104 359.744C408.604 357.244 379.104 334.434 379.104 300.744C379.104 261.244 402.604 239.744 444.104 239.744C480.003 239.744 509.104 267.055 509.104 300.744Z" fill="#DE1304"/>
<ellipse cx="434.104" cy="256.744" rx="15" ry="9" fill="url(#paint0_radial_2_3)"/>
<ellipse cx="409.604" cy="266.244" rx="5.5" ry="3.5" transform="rotate(-27.7303 409.604 266.244)" fill="url(#paint1_radial_2_3)"/>
<path d="M423.604 329.244C394.804 326.044 386.271 294.244 385.604 278.744C381.604 281.944 380.937 296.078 381.104 302.744C381.104 306.577 382.704 317.644 389.104 331.244C395.504 344.844 416.437 354.577 426.104 357.744C439.704 364.144 465.437 361.077 476.604 359.244C482.271 357.244 495.504 349.544 503.104 334.744C510.704 319.944 508.937 296.244 507.104 286.244L493.604 258.244C493.271 257.744 493.204 261.344 495.604 279.744C498.004 298.144 482.604 314.411 474.604 320.244C469.604 324.578 452.404 332.444 423.604 329.244Z" fill="url(#paint2_linear_2_3)"/>
<path d="M1083.1 473.744C1090.1 472.077 1107.6 464.344 1121.6 446.744" stroke="#606314" stroke-width="2"/>
<path d="M1207.1 445.744L1193.6 460.744C1183.77 467.077 1163.5 480.044 1161.1 481.244C1158.7 482.444 1154.1 482.744 1152.1 482.744" stroke="#707229" stroke-width="2"/>
<path d="M1194.6 474.744C1202.27 469.411 1223.1 457.344 1245.1 451.744" stroke="#707229" stroke-width="2"/>
<path d="M481.604 221.744C479.604 229.344 482.437 242.577 484.104 248.244L483.104 252.244L479.104 248.244C474.938 245.911 467.104 238.944 469.104 229.744C471.104 220.544 478.271 220.577 481.604 221.744Z" fill="#CCDB4E"/>
<path d="M448.604 244.244C437.004 244.644 434.771 237.077 435.104 233.244C439.904 238.844 444.437 238.911 446.104 238.244C458.504 235.844 468.604 239.244 472.104 241.244C477.104 244.577 488.404 252.044 493.604 255.244C500.104 259.244 503.604 265.244 505.604 270.244C507.604 275.244 509.104 293.244 508.104 288.744C507.304 285.144 503.104 281.577 501.104 280.244C500.437 279.744 498.904 277.044 498.104 270.244C497.304 263.444 488.771 257.411 484.604 255.244L478.104 249.744C473.104 247.744 460.204 243.844 448.604 244.244Z" fill="#CCDB4E"/>
<path d="M751.104 114.744C751.104 99.7441 773.604 83.7438 783.104 114.744C786.604 106.244 796.404 92.4441 807.604 105.244C809.438 107.244 813.204 113.444 813.604 122.244C817.438 113.911 827.604 99.7441 837.604 109.744C839.438 112.244 842.704 119.644 841.104 129.244C846.104 119.244 859.504 103.844 869.104 122.244C869.604 125.744 870.304 133.844 869.104 138.244C875.604 131.744 891.104 122.644 897.104 138.244C897.604 141.911 898.304 149.944 897.104 152.744C895.604 156.244 918.604 133.244 921.104 155.744C921.882 159.632 920.512 169.15 909.602 177.88C916.895 173.064 929.506 169.627 936.604 185.244C937.771 189.744 938.004 200.044 929.604 205.244C921.204 210.444 914.438 219.077 912.104 222.744L766.104 162.244L751.104 114.744Z" fill="#501B35" stroke="black"/>
<path d="M660.104 742.744C666.504 746.744 706.771 758.077 726.104 763.244H741.104L756.104 689.244L719.604 670.244L593.104 645.244L576.604 644.244L564.104 628.744C558.604 615.744 517.771 609.911 499.104 609.744C489.771 604.577 471.104 598.544 471.104 615.744C471.104 632.944 486.438 636.577 494.104 636.244C512.505 635.444 514.104 643.577 512.604 647.744C505.938 651.577 486.704 660.344 463.104 664.744C439.504 669.144 423.604 678.244 418.604 682.244C417.271 688.244 416.004 701.144 421.604 704.744C427.204 708.344 446.271 698.577 455.104 693.244L499.104 682.244L439.104 721.244C423.104 746.044 443.104 745.91 455.104 742.744L512.604 700.244L476.104 742.744C466.938 749.577 453.104 764.244 471.104 768.244C493.604 773.244 529.104 716.244 528.104 721.244C527.104 726.244 507.104 763.244 507.104 772.244C507.104 781.244 509.604 784.244 523.604 779.744C534.804 776.144 549.938 742.577 556.104 726.244C568.104 727.244 580.104 697.744 581.104 700.244C582.104 702.744 585.104 704.244 590.604 709.744C596.104 715.244 652.104 737.744 660.104 742.744Z" fill="#E87E71"/>
<path d="M593.104 645.244L719.604 670.244L756.104 689.244L741.104 763.244H726.104C706.771 758.077 666.504 746.744 660.104 742.744C652.104 737.744 596.104 715.244 590.604 709.744C585.104 704.244 582.104 702.744 581.104 700.244C580.104 697.744 568.104 727.244 556.104 726.244C549.938 742.577 534.804 776.144 523.604 779.744C509.604 784.244 507.104 781.244 507.104 772.244C507.104 763.244 527.104 726.244 528.104 721.244C529.104 716.244 493.604 773.244 471.104 768.244C453.104 764.244 466.938 749.577 476.104 742.744L512.604 700.244L455.104 742.744C443.104 745.91 423.104 746.044 439.104 721.244L499.104 682.244L455.104 693.244C446.271 698.577 427.204 708.344 421.604 704.744C416.004 701.144 417.271 688.244 418.604 682.244C423.604 678.244 439.504 669.144 463.104 664.744C486.704 660.344 505.938 651.577 512.604 647.744C514.104 643.577 512.505 635.444 494.104 636.244C486.438 636.577 471.104 632.944 471.104 615.744C471.104 598.544 489.771 604.577 499.104 609.744C517.771 609.911 558.604 615.744 564.104 628.744L576.604 644.244L593.104 645.244ZM593.104 645.244C593.104 644.744 593.104 643.344 593.104 641.744" stroke="black"/>
<path d="M514.104 648.744C517.771 655.244 527.704 668.544 538.104 669.744" stroke="black"/>
<path d="M999.104 286.244C992.704 275.044 982.104 274.244 977.604 275.244L814.604 455.744L807.604 486.744L785.104 540.744C779.771 558.411 767.304 597.144 760.104 610.744C752.904 624.344 744.771 648.744 741.604 659.244L715.104 665.744C757.104 705.344 736.271 750.911 720.604 768.744C763.404 785.944 803.438 751.244 818.104 731.744L854.104 630.744L886.604 549.244L908.104 568.244C937.938 595.077 998.204 649.544 1000.6 652.744C1003 655.944 1024.27 672.411 1034.6 680.244C1027.94 677.244 1015.6 675.244 1019.6 691.244C1023.6 707.244 1039.94 722.577 1047.6 728.244C1034 727.044 1027.6 736.411 1026.1 741.244L1030.6 753.244L1047.6 779.744L1132.6 798.244L1206.6 784.244L1276.1 699.744V467.744C1227.1 382.244 1159.6 355.244 1127.1 332.244C1100.47 313.397 1041.44 292.744 1014.1 286.244C1006.9 280.644 1001.1 283.911 999.104 286.244Z" fill="#F2F79B"/>
<path d="M1034.6 680.244C1027.94 677.244 1015.6 675.244 1019.6 691.244C1023.6 707.244 1039.94 722.577 1047.6 728.244C1034 727.044 1027.6 736.411 1026.1 741.244L1030.6 753.244L1047.6 779.744L1132.6 798.244L1206.6 784.244L1276.1 699.744V467.744C1227.1 382.244 1159.6 355.244 1127.1 332.244C1100.47 313.397 1041.44 292.744 1014.1 286.244C1006.9 280.644 1001.1 283.911 999.104 286.244C992.704 275.044 982.104 274.244 977.604 275.244L814.604 455.744L807.604 486.744L785.104 540.744C779.771 558.411 767.304 597.144 760.104 610.744C752.904 624.344 744.771 648.744 741.604 659.244L715.104 665.744C757.104 705.344 736.271 750.911 720.604 768.744C763.404 785.944 803.438 751.244 818.104 731.744L854.104 630.744L886.604 549.244M1034.6 680.244C1055.94 692.244 1100.4 715.844 1107.6 714.244C1116.6 712.244 1126.6 713.244 1129.6 694.244M1034.6 680.244C1024.27 672.411 1003 655.944 1000.6 652.744C998.204 649.544 937.938 595.077 908.104 568.244L886.604 549.244M886.604 549.244L864.604 525.244L856.938 515.244M830.104 480.244L856.938 515.244M856.938 515.244C853.16 516.244 841.804 513.944 826.604 496.744" stroke="black"/>
<path d="M894.06 726.244C903.214 682.741 872.584 639.062 855.604 622.244C868.604 614.744 893.604 620.244 892.604 618.744C891.604 617.244 898.104 601.244 901.604 601.744C904.404 602.144 909.104 605.577 911.104 607.244V604.244C925.504 554.244 936.104 527.077 939.604 519.744L960.104 468.744L983.604 397.744C1003.6 372.944 1015.6 370.411 1019.1 372.244C1019.6 370.077 1025.8 370.744 1046.6 390.744C1067.4 410.744 1082.96 446.077 1088.13 461.244L1096.6 481.744L1088.13 484.244L1067.6 525.744C1061.2 532.944 1055.94 544.411 1054.1 549.244L994.104 660.244C987.104 671.577 969.504 697.244 955.104 709.244C940.704 721.244 908.408 725.577 894.06 726.244Z" fill="#F2F79B"/>
<path d="M893.104 730.244C893.461 728.911 893.779 727.578 894.06 726.244M894.06 726.244C903.214 682.741 872.584 639.062 855.604 622.244C868.604 614.744 893.604 620.244 892.604 618.744C891.604 617.244 898.104 601.244 901.604 601.744C904.404 602.144 909.104 605.577 911.104 607.244V604.244C925.504 554.244 936.104 527.077 939.604 519.744L960.104 468.744L983.604 397.744C1003.6 372.944 1015.6 370.411 1019.1 372.244C1019.6 370.077 1025.8 370.744 1046.6 390.744C1067.4 410.744 1082.96 446.077 1088.13 461.244L1096.6 481.744L1088.13 484.244M894.06 726.244C908.408 725.577 940.704 721.244 955.104 709.244C969.504 697.244 987.104 671.577 994.104 660.244L1054.1 549.244C1055.94 544.411 1061.2 532.944 1067.6 525.744L1088.13 484.244M1090.6 479.244L1088.13 484.244" stroke="#606314" stroke-width="2"/>
<path d="M655.604 669.244C652.004 646.044 645.104 636.244 642.104 634.244C627.304 630.244 623.271 637.578 623.104 641.744L617.104 634.244C614.304 627.844 601.271 631.578 595.104 634.244V652.244C577.504 652.244 577.771 661.577 580.104 666.244L588.104 698.744L574.104 685.244C557.304 677.244 553.438 688.577 553.604 695.244C557.104 696.911 565.604 702.744 571.604 712.744C577.604 722.744 589.771 730.911 595.104 733.744L617.104 740.244L692.604 736.744L803.604 726.244L885.104 720.744C884.604 699.577 878.204 653.244 856.604 637.244L734.639 672.744C739.834 656.286 727.267 640.267 722.104 634.244C716.104 627.244 722.104 612.744 725.104 608.244C727.504 604.644 724.104 602.744 722.104 602.244C712.504 597.444 703.438 604.244 700.104 608.244C694.938 616.911 686.904 636.444 696.104 645.244C705.304 654.044 699.938 664.911 696.104 669.244C686.504 674.844 680.438 688.911 678.604 695.244L655.604 669.244Z" fill="#E87E71"/>
<path d="M730.604 680.744C732.488 678.093 733.797 675.413 734.639 672.744M588.104 698.744L574.104 685.244C557.304 677.244 553.438 688.577 553.604 695.244C557.104 696.911 565.604 702.744 571.604 712.744C577.604 722.744 589.771 730.911 595.104 733.744L617.104 740.244L692.604 736.744L803.604 726.244L885.104 720.744C884.604 699.577 878.204 653.244 856.604 637.244L734.639 672.744M588.104 698.744L580.104 666.244C577.771 661.577 577.504 652.244 595.104 652.244M588.104 698.744C589.104 705.577 591.904 718.844 595.104 717.244L623.104 733.744M595.104 652.244V634.244C601.271 631.578 614.304 627.844 617.104 634.244L623.104 641.744M595.104 652.244L599.604 680.744C600.104 683.077 601.304 688.044 602.104 689.244C602.904 690.444 621.771 710.744 631.104 720.744M623.104 641.744L627.604 678.244L655.604 707.744M623.104 641.744C623.271 637.578 627.304 630.244 642.104 634.244C645.104 636.244 652.004 646.044 655.604 669.244L678.604 695.244C680.438 688.911 686.504 674.844 696.104 669.244C699.938 664.911 705.304 654.044 696.104 645.244C686.904 636.444 694.938 616.911 700.104 608.244C703.438 604.244 712.504 597.444 722.104 602.244C724.104 602.744 727.504 604.644 725.104 608.244C722.104 612.744 716.104 627.244 722.104 634.244C727.267 640.267 739.834 656.286 734.639 672.744" stroke="#660A19" stroke-width="2"/>
<path d="M864.104 634.244L856.604 636.744C877.404 652.344 884.938 699.244 886.104 720.744H894.604C897.104 674.244 874.771 651.911 864.104 634.244Z" fill="#A44034"/>
<path d="M1026.1 741.744C1052.1 762.077 1115.3 798.944 1160.1 783.744C1204.9 768.544 1228.1 749.411 1234.1 741.744C1245.1 729.077 1268.8 703.344 1275.6 701.744V806.244H896.604C904.271 798.077 924.604 781.144 944.604 778.744C960.104 767.911 994.604 746.744 1008.6 748.744C1021.68 750.612 1020.65 754.078 1018.15 755.886L1029.1 748.744L1026.1 741.744Z" fill="white" stroke="black"/>
<path d="M947.604 787.744L963.604 805.744" stroke="black"/>
<path d="M1018.1 764.744C1019.1 775.577 1022.5 798.744 1028.1 804.744" stroke="black"/>
<path d="M1099.1 789.244L1086.1 806.744" stroke="black"/>
<path d="M1142.6 788.744L1129.1 805.744" stroke="black"/>
<path d="M1274.6 759.244C1248.6 767.077 1191.4 787.444 1170.6 806.244" stroke="black"/>
<path d="M1216.1 806.244C1224.94 800.244 1249 788.744 1274.6 790.744" stroke="black"/>
<path d="M771.104 99.2442C764.704 100.844 759.771 113.911 758.104 120.244L912.104 212.744C915.271 211.744 922.804 209.244 927.604 207.244C933.604 204.744 940.604 191.244 936.604 184.744C933.404 179.544 916.271 179.244 908.104 179.744C919.304 174.144 920.771 160.077 920.104 153.744C913.304 149.344 899.938 154.244 894.104 157.244L895.604 136.244C885.604 132.244 872.771 137.911 867.604 141.244C871.204 128.844 869.104 122.078 867.604 120.244C861.204 117.044 846.938 126.244 840.604 131.244C843.004 122.444 840.604 114.244 839.104 111.244C833.504 109.244 819.771 119.077 813.604 124.244C814.004 116.644 810.104 108.411 808.104 105.244C802.504 103.244 789.438 112.411 783.604 117.244C782.104 110.578 777.504 97.6442 771.104 99.2442Z" fill="#040205"/>
<path d="M653.604 278.744C658.004 302.744 679.438 302.411 689.604 299.244L881.104 158.744L839.604 134.744C836.771 133.911 821.304 129.644 782.104 119.244C742.904 108.844 722.438 120.244 717.104 127.244C711.938 133.077 697.204 148.744 679.604 164.744C662.004 180.744 654.938 201.077 653.604 209.244C651.771 222.411 649.204 254.744 653.604 278.744Z" fill="#E36B86"/>
<path d="M689.104 289.744L677.104 284.744C674.938 284.244 669.604 274.944 665.604 241.744C665.438 236.244 668.804 223.544 683.604 216.744H670.104C672.104 209.411 680.204 190.344 696.604 172.744C713.004 155.144 729.104 142.744 735.104 138.744C739.604 135.078 757.204 128.344 791.604 130.744C826.004 133.144 838.271 135.078 840.104 136.744C850.771 140.411 874.904 151.244 886.104 165.244C897.304 179.244 906.771 205.411 910.104 216.744C916.604 210.411 934.904 198.344 956.104 200.744C960.438 200.911 967.804 208.744 962.604 234.744H955.339C965.215 235.197 975.73 236.962 974.604 241.744L970.604 259.244L965.604 276.744L933.104 269.744L853.104 232.244C835.104 225.077 791.704 209.744 762.104 205.744C756.212 203.944 747.449 201.789 740.104 201.105L696.604 250.244L684.463 269.744L689.104 289.744Z" fill="#913B56"/>
<path d="M947.604 273.244L852.104 231.744C855.665 242.725 882.438 268.876 894.142 279.259C895.791 280.843 903.44 284.327 920.849 285.594C938.258 286.861 947.439 276.94 947.604 273.244Z" fill="#060002" stroke="black"/>
<path d="M893.604 453.744C881.604 444.144 881.938 430.411 883.604 424.744L893.604 289.744L924.104 283.744C938.904 288.544 946.938 278.077 949.104 272.244C950.938 272.577 955.204 274.144 957.604 277.744C960.004 281.344 973.938 283.244 980.604 283.744C987.004 300.944 985.271 331.577 983.604 344.744C972.004 408.744 952.771 437.411 944.604 443.744L957.604 472.244L952.104 481.744L934.604 458.744C925.938 461.077 905.604 463.344 893.604 453.744Z" fill="#E87E71" stroke="black"/>
<path d="M924.104 388.244L919.604 294.744L902.104 286.244L865.604 419.244L905.104 442.244L917.104 425.244C923.904 408.844 924.604 393.744 924.104 388.244Z" fill="#D3695C"/>
<path d="M762.104 466.744C738.904 447.544 699.771 330.078 683.104 273.744C683.104 265.744 720.771 222.744 739.604 202.244C776.938 210.577 851.804 228.844 852.604 235.244C853.404 241.644 880.271 266.911 893.604 278.744L899.104 247.744C899.904 232.944 906.104 233.244 909.104 235.244C932.704 251.644 934.604 262.744 932.604 266.244C929.604 272.411 922.604 286.544 918.604 293.744C914.604 300.944 907.938 296.744 905.104 293.744L909.104 299.744C905.271 329.078 897.204 389.044 895.604 394.244C894.004 399.444 890.271 404.744 888.604 406.744C865.604 425.744 825.604 446.744 796.604 461.744C773.404 473.744 763.938 470.078 762.104 466.744Z" fill="#EFAA89" stroke="black"/>
<path d="M888.604 406.744C865.604 425.744 825.604 446.744 796.604 461.744C779.604 467.245 771.604 445.744 769.604 442.244C768.004 439.444 753.271 411.077 746.104 397.244C734.504 378.444 706.271 296.744 693.604 258.244C699.104 247.744 720.771 220.744 739.604 200.244C776.938 208.577 851.804 226.844 852.604 233.244C853.404 239.644 880.271 266.911 893.604 278.744L899.104 247.744C899.904 232.944 906.104 233.244 909.104 235.244C932.704 251.644 934.604 262.744 932.604 266.244C929.604 272.411 922.604 286.544 918.604 293.744C914.604 300.944 907.938 296.744 905.104 293.744L909.104 299.744C905.271 329.078 897.204 389.044 895.604 394.244C894.004 399.444 890.271 404.744 888.604 406.744Z" fill="#E87E71"/>
<path d="M795.695 260.136C784.895 283.736 792.195 311.969 797.195 323.136C811.285 321.028 820.104 319.244 831.604 306.744C843.104 294.244 859.604 267.244 860.104 263.244C860.504 260.044 851.331 251.505 846.695 247.636C834.195 241.969 806.495 236.536 795.695 260.136Z" fill="#FFFEFC" stroke="black"/>
<path d="M804.104 260.244C793.704 287.844 804.104 311.411 810.604 319.744C827.004 318.144 844.438 292.078 851.104 279.244C850.304 274.444 843.771 262.911 840.604 257.744C821.004 238.144 808.104 251.244 804.104 260.244Z" fill="#521A33" stroke="black"/>
<path d="M840.604 257.745C821.004 238.145 811.104 251.744 811.104 251.744C816.771 268.911 828.704 303.844 831.104 306.244C833.504 308.644 845.438 289.245 851.104 279.245C850.304 274.445 843.771 262.912 840.604 257.745Z" fill="#060002" stroke="black"/>
<path d="M714.604 353.744C717.404 364.144 731.604 367.244 738.604 366.244C742.104 365.744 745.904 359.444 743.104 354.244C740.304 349.044 731.938 346.411 728.104 345.744C717.304 342.944 714.604 349.911 714.604 353.744Z" fill="#ED625D"/>
<path d="M867.104 279.244C851.104 276.044 849.104 296.911 850.104 307.744C849.889 317.344 863.104 314.744 867.104 309.244C871.104 303.744 883.104 282.444 867.104 279.244Z" fill="#ED625D"/>
<ellipse cx="837.955" cy="262.481" rx="4" ry="6.30249" transform="rotate(-20.3728 837.955 262.481)" fill="#FFFEFC"/>
<path d="M721.604 278.244C704.404 283.444 702.438 313.744 703.604 328.244C716.804 339.844 729.771 342.744 734.604 342.744C757.804 340.344 769.604 330.411 772.604 325.744L770.604 320.744C765.404 307.144 757.438 295.411 754.104 291.244C750.438 284.744 738.804 273.044 721.604 278.244Z" fill="#FFFEFC" stroke="black"/>
<path d="M718.604 302.744C716.204 322.344 721.938 335.244 725.104 339.244C735.904 346.044 754.604 338.411 762.604 333.744C762.604 324.944 761.604 319.077 761.104 317.244C755.104 288.244 748.438 288.911 742.104 284.244C727.304 281.444 720.271 295.411 718.604 302.744Z" fill="#521A33" stroke="black"/>
<path d="M761.104 317.244C755.104 288.244 748.438 288.911 742.104 284.244C737.704 282.644 732.271 284.911 730.104 286.244L747.604 340.244C753.604 338.244 760.104 335.078 762.604 333.744C762.604 324.944 761.604 319.078 761.104 317.244Z" fill="#060002" stroke="black"/>
<ellipse cx="752.112" cy="303.632" rx="4" ry="6.30249" transform="rotate(-9.73396 752.112 303.632)" fill="#FFFEFC"/>
<path d="M831.104 312.744C824.304 317.944 810.604 344.244 804.604 356.744C806.771 354.744 813.804 349.044 824.604 342.244C835.404 335.444 843.771 328.077 846.604 325.244C849.004 311.644 841.271 316.911 837.604 321.244C838.271 316.244 837.904 307.544 831.104 312.744Z" fill="#060002" stroke="black"/>
<path d="M772.104 370.244C794.904 365.844 797.271 363.078 795.604 362.244C791.771 361.244 781.304 358.644 770.104 356.244C758.904 353.844 749.771 353.911 746.604 354.244C741.604 362.244 749.271 364.744 756.604 364.744C741.104 367.244 748.604 381.244 756.604 375.744C763.004 371.344 769.604 370.244 772.104 370.244Z" fill="#060002" stroke="black"/>
<path d="M772.604 387.744V378.244C796.204 380.644 816.438 362.578 823.604 353.244C832.404 336.444 836.604 340.911 837.604 345.244L841.104 360.744C839.938 377.244 832.604 410.644 812.604 412.244C792.604 413.844 777.604 396.578 772.604 387.744Z" fill="#6C0404" stroke="black"/>
<path d="M774.604 314.744L783.104 360.244L802.104 345.744" stroke="#913B56" stroke-width="2"/>
<path d="M782.604 360.244L774.104 314.744L785.104 309.744L801.064 346.157L782.604 360.244Z" fill="#CC4E63"/>
<path d="M788.604 388.744C787.004 387.944 783.604 382.077 782.104 379.244C787.704 378.044 797.771 373.411 802.104 371.244C808.75 369.029 814.821 363.491 818.923 358.744C820.746 356.634 822.181 354.68 823.104 353.244C830.704 340.044 834.938 340.411 836.104 342.244C837.438 344.911 839.804 351.344 838.604 355.744C837.87 358.436 832.108 364.01 826.104 369.191C822.294 372.479 818.387 375.609 815.604 377.744C814.356 378.512 811.825 380.087 808.604 382.126C806.233 383.627 803.488 385.378 800.604 387.244C792.104 392.744 790.604 389.744 788.604 388.744Z" fill="#FFFEFC"/>
<path d="M802.104 371.244C797.771 373.411 787.704 378.044 782.104 379.244C783.604 382.077 787.004 387.944 788.604 388.744C790.604 389.744 792.104 392.744 800.604 387.244C803.488 385.378 806.233 383.627 808.604 382.126M802.104 371.244L808.604 382.126M802.104 371.244C808.75 369.029 814.821 363.491 818.923 358.744M808.604 382.126C811.825 380.087 814.356 378.512 815.604 377.744C818.387 375.609 822.294 372.479 826.104 369.191M826.104 369.191C832.108 364.01 837.87 358.436 838.604 355.744C839.804 351.344 837.438 344.911 836.104 342.244C834.938 340.411 830.704 340.044 823.104 353.244C822.181 354.68 820.746 356.634 818.923 358.744M826.104 369.191L818.923 358.744" stroke="black"/>
<path d="M812.604 384.744C815.804 391.544 826.604 393.577 831.604 393.744C833.204 393.858 835.938 386.792 837.104 383.244L839.104 371.244H827.604C821.271 372.911 809.404 377.944 812.604 384.744Z" fill="#C9140D"/>
<path d="M921.104 263.244L908.604 247.744L906.104 278.244C908.104 271.077 915.604 263.244 916.604 278.244C917.104 281.244 915.604 288.744 912.104 286.244" stroke="black"/>
<path d="M777.604 209.244L774.604 193.244C773.629 188.044 776.198 186.411 777.604 186.244C781.604 186.411 792.204 187.544 802.604 190.744C813.004 193.944 814.604 198.744 814.104 200.744V217.744L777.604 209.244Z" fill="#060002" stroke="black"/>
<path d="M711.104 203.744C697.904 208.544 690.604 224.744 689.104 233.744C690.604 243.244 697.271 249.411 698.604 248.744L720.104 222.744C722.104 201.544 714.938 201.244 711.104 203.744Z" fill="#060002" stroke="black"/>
<path d="M799.604 144.744C819.104 150.077 862.304 166.444 879.104 189.244" stroke="black"/>
<path d="M805.104 172.744C824.604 178.077 840.604 181.244 881.104 215.744L897.604 232.744" stroke="black"/>
<path d="M1119.1 740.744C1133.1 729.744 1164.5 701.744 1178.1 677.744C1191.7 653.744 1207.77 629.077 1214.1 619.744L1227.1 602.744" stroke="black"/>
<path d="M1036.1 691.744C1052.44 708.077 1088.9 741.344 1104.1 743.744C1123.1 746.744 1123.1 755.744 1151.1 752.744C1173.5 750.344 1181.77 739.744 1183.1 734.744" stroke="black"/>
<path d="M1053.1 735.244C1068.44 748.577 1109.1 774.844 1149.1 773.244" stroke="black"/>
<path d="M890.104 466.244C898.271 468.911 916.604 473.444 924.604 470.244" stroke="black"/>
<path d="M877.104 460.244C884.104 467.744 899.704 482.744 906.104 482.744" stroke="black"/>
<path d="M760.604 640.244C763.604 642.577 775.904 645.844 801.104 640.244" stroke="black"/>
<path d="M813.604 509.244C816.938 511.411 826.004 515.944 835.604 516.744" stroke="black"/>
<path d="M1029.6 408.744C1036.77 400.577 1053.6 382.844 1063.6 377.244" stroke="#606314" stroke-width="2"/>
<path d="M1022.6 408.744C1022.44 406.911 1028.3 396.544 1053.1 369.744" stroke="#606314" stroke-width="2"/>
<path d="M1000.1 539.744L1064.1 500.744" stroke="#606314" stroke-width="2"/>
<path d="M1159.1 459.244C1127.1 471.244 1051.6 498.044 1005.6 509.244C1003.1 509.244 997.604 509.244 995.604 509.244" stroke="#606314" stroke-width="2"/>
<path d="M613.605 371.744C646.405 349.744 683.938 358.911 698.605 366.244L694.104 357.744C657.704 346.544 620.604 360.077 606.604 368.244C605.004 361.844 597.271 356.578 593.604 354.744C586.771 352.744 570.004 351.044 557.604 360.244C545.204 369.444 552.438 374.744 557.604 376.244C551.271 380.578 538.604 391.444 538.604 400.244C538.604 409.044 538.604 421.244 539.604 426.244C542.004 435.044 538.604 448.578 536.604 454.244C538.204 471.844 545.271 480.911 548.604 483.244L576.605 450.244C575.405 442.244 592.771 426.244 601.605 419.244C608.405 412.044 609.105 398.911 608.605 393.244C614.605 397.244 618.438 394.911 619.605 393.244C621.605 382.844 616.438 374.578 613.605 371.744Z" fill="#9BBB29" stroke="#B5C046" stroke-width="2"/>
<path d="M608.604 370.744C603.498 372.446 596.528 376.27 589.104 382.704M549.104 464.244C551.438 448.521 555.385 435.103 560.239 423.744M589.104 382.704C584.771 380.217 571.504 377.944 553.104 388.744M589.104 382.704C590.438 385.551 593.104 397.044 593.104 420.244M589.104 382.704C579.166 391.317 568.416 404.607 560.239 423.744M560.239 423.744C556.194 424.244 547.704 426.144 546.104 429.744" stroke="#C6E466"/>
<path d="M576.104 396.744C577.771 398.911 580.904 406.744 580.104 420.744" stroke="#C6E466"/>
<path d="M560.104 424.744C561.438 428.244 564.404 439.244 565.604 455.244" stroke="#C6E466"/>
</g>
<defs>
<radialGradient id="paint0_radial_2_3" cx="0" cy="0" r="1" gradientUnits="userSpaceOnUse" gradientTransform="translate(434.104 256.744) rotate(90) scale(9 15)">
<stop stop-color="#FCEFE7"/>
<stop offset="1" stop-color="#FCEFE7" stop-opacity="0.26"/>
</radialGradient>
<radialGradient id="paint1_radial_2_3" cx="0" cy="0" r="1" gradientUnits="userSpaceOnUse" gradientTransform="translate(409.604 266.244) rotate(90) scale(3.5 5.5)">
<stop stop-color="#FCEFE7"/>
<stop offset="1" stop-color="#FCEFE7" stop-opacity="0.26"/>
</radialGradient>
<linearGradient id="paint2_linear_2_3" x1="440.104" y1="273.744" x2="444.887" y2="361.609" gradientUnits="userSpaceOnUse">
<stop stop-color="#8B0003" stop-opacity="0.04"/>
<stop offset="1" stop-color="#8B0003"/>
</linearGradient>
<clipPath id="clip0_2_3">
<rect width="1267" height="800" fill="white"/>
</clipPath>
</defs>
</svg>
